<?xml version="1.0" encoding="utf-8"?>
<!-- Generator: Adobe Illustrator 26.3.1, SVG Export Plug-In . SVG Version: 6.00 Build 0)  -->
<svg version="1.1" id="skyline" xmlns="http://www.w3.org/2000/svg" xmlns:xlink="http://www.w3.org/1999/xlink" x="0px" y="0px"
	 viewBox="0 0 100 100" style="enable-background:new 0 0 100 100;" xml:space="preserve">
<style type="text/css">
	.st0{fill:none;stroke:#2E264D;stroke-width:0.8529;stroke-linecap:round;stroke-miterlimit:4.2644;stroke-dasharray:90.8316;}

		.st1{fill:none;stroke:#2E264D;stroke-width:0.8529;stroke-linecap:round;stroke-linejoin:round;stroke-miterlimit:4.2644;stroke-dasharray:59.7015;}

		.st2{fill:none;stroke:#2E264D;stroke-width:0.8529;stroke-linecap:round;stroke-linejoin:round;stroke-miterlimit:4.2644;stroke-dasharray:31.9829;}

		.st3{fill:none;stroke:#2E264D;stroke-width:0.8529;stroke-linecap:round;stroke-linejoin:round;stroke-miterlimit:4.2644;stroke-dasharray:33.2623;}

		.st4{fill:none;stroke:#2E264D;stroke-width:0.8529;stroke-linecap:round;stroke-linejoin:round;stroke-miterlimit:4.2644;stroke-dasharray:37.9531;}

		.st5{fill:none;stroke:#2E264D;stroke-width:0.8529;stroke-linecap:round;stroke-linejoin:round;stroke-miterlimit:4.2644;stroke-dasharray:5.5437;}

		.st6{fill:none;stroke:#2E264D;stroke-width:0.8529;stroke-linecap:round;stroke-linejoin:round;stroke-miterlimit:4.2644;stroke-dasharray:29.8507;}
	.st7{fill:none;stroke:#2E264D;stroke-width:0.8529;stroke-miterlimit:4.2644;stroke-dasharray:49.8934;}
	.st8{fill:none;stroke:#2E264D;stroke-width:0.8529;stroke-miterlimit:4.2644;stroke-dasharray:18.3369;}
	.st9{fill:none;stroke:#2E264D;stroke-width:0.8529;stroke-linecap:round;stroke-miterlimit:4.2644;stroke-dasharray:28.145;}
	.st10{fill:none;stroke:#2E264D;stroke-width:0.8529;stroke-linecap:round;stroke-miterlimit:4.2644;stroke-dasharray:7.2495;}

		.st11{fill:none;stroke:#2E264D;stroke-width:0.8529;stroke-linecap:round;stroke-linejoin:round;stroke-miterlimit:4.2644;stroke-dasharray:67.8038;}

		.st12{fill:none;stroke:#2E264D;stroke-width:0.8529;stroke-linecap:round;stroke-linejoin:round;stroke-miterlimit:4.2644;stroke-dasharray:20.8955;}

		.st13{fill:none;stroke:#2E264D;stroke-width:0.8529;stroke-linecap:round;stroke-linejoin:round;stroke-miterlimit:4.2644;stroke-dasharray:22.6013;}
	.st14{fill:none;stroke:#2E264D;stroke-width:0.8529;stroke-linecap:round;stroke-miterlimit:4.2644;stroke-dasharray:9.3817;}
	.st15{fill:none;stroke:#2E264D;stroke-width:0.8529;stroke-linecap:round;stroke-miterlimit:4.2644;stroke-dasharray:10.2345;}
	.st16{fill:none;stroke:#2E264D;stroke-width:0.8529;stroke-linecap:round;stroke-miterlimit:4.2644;stroke-dasharray:4.2644;}
	.st17{fill:none;stroke:#2E264D;stroke-width:0.8529;stroke-linecap:round;stroke-miterlimit:4.2644;stroke-dasharray:5.5437;}
	.st18{fill:none;stroke:#2E264D;stroke-width:0.8529;stroke-linecap:round;stroke-miterlimit:4.2644;stroke-dasharray:6.823;}
</style>
<g id="sky">
	<g id="sky-mac">
		<path id="sky-mac-body" class="st0" d="M58.5,37.6H39.3c-1.2,0-2.1,0.9-2.1,2.1v12.8c0,1.2,0.9,2.1,2.1,2.1h7.4l-2.1,3.2v1.1h8.5
			v-1.1L51,54.6h7.4c1.2,0,2.1-0.9,2.1-2.1V39.8C60.6,38.6,59.6,37.6,58.5,37.6z"/>
		<path id="sky-mac-monitor" class="st1" d="M58.5,50.4H39.3V39.8h19.1V50.4z"/>
		<path id="sky-mac-mtn" class="st2" d="M45.8,44.6l2.2,2.6l3-3.9l3.9,5.2H42.8L45.8,44.6z"/>
	</g>
	<g id="sky-printer">
		<path id="sky-printer-paper" class="st3" d="M68.4,58.5v-2.2h10.4v2.2v0.4v3.5H68.4v-3.5V58.5z"/>
		<path id="sky-printer-body" class="st4" d="M78.8,58.9h3.5v-5.2c0-1.4-1.2-2.6-2.6-2.6H67.5c-1.4,0-2.6,1.2-2.6,2.6v5.2h3.5"/>
		<path id="sky-printer-button" class="st5" d="M79.6,54.6c-0.5,0-0.9-0.4-0.9-0.9c0-0.5,0.4-0.9,0.9-0.9s0.9,0.4,0.9,0.9
			C80.5,54.2,80.1,54.6,79.6,54.6z"/>
		<path id="sky-printer-back" class="st6" d="M78.8,51.1H68.4v-4.3h10.4V51.1z"/>
	</g>
	<g id="sky-cam">
		<path id="sky-cam-body" class="st7" d="M14.2,46.3l1.3,1.4h2.3c0.8,0,1.4,0.6,1.4,1.4v8.4c0,0.8-0.6,1.4-1.4,1.4H6.4
			c-0.8,0-1.4-0.6-1.4-1.4v-8.4c0-0.8,0.6-1.4,1.4-1.4h2.3l1.3-1.4C10,46.3,14.2,46.3,14.2,46.3z"/>
		<path id="sky-cam-inner" class="st8" d="M12.1,56.2c-1.6,0-2.9-1.3-2.9-2.9s1.3-2.9,2.9-2.9s2.9,1.3,2.9,2.9S13.7,56.2,12.1,56.2z
			"/>
	</g>
	<g id="sky-cd">
		<path id="sky-cd-outer" class="st9" d="M90.9,49.9c-2.5,0-4.5,2-4.5,4.5s2,4.5,4.5,4.5c2.5,0,4.5-2,4.5-4.5S93.3,49.9,90.9,49.9z"
			/>
		<path id="sky-cd-inner" class="st10" d="M90.9,55.5c-0.6,0-1.1-0.5-1.1-1.1c0-0.6,0.5-1.1,1.1-1.1c0.6,0,1.1,0.5,1.1,1.1
			C92,55,91.5,55.5,90.9,55.5z"/>
	</g>
	<path id="sky-linie-left" class="st11" d="M68,58.9H0.4"/>
	<path id="sky-linie-right" class="st12" d="M99.6,58.9H78.8"/>
	<g id="sky-plant">
		<path id="sky-plant-pot" class="st13" d="M30.3,58.9h-5.7L24,54.1h7L30.3,58.9z"/>
		<path id="sky-plant-pot-top" class="st12" d="M31.4,54.1h-8.2V52h8.2V54.1z"/>
		<path id="sky-plant-leaf1" class="st14" d="M25.3,50.5c-0.5-0.3-0.8-0.6-1.3-1.2c-1.2-1.4-1.9-2.8-1.5-3.1c0.4-0.4,1.7,0.4,3,1.8
			c0,0,0,0.1,0.1,0.1"/>
		<path id="sky-plant-leaf2" class="st15" d="M28.6,51c0.6-0.3,1.3-0.9,2-1.7c1.2-1.4,1.9-2.8,1.5-3.1c-0.4-0.4-1.7,0.4-3,1.8
			c0,0.1-0.1,0.1-0.2,0.2"/>
		<path id="sky-plant-leaf3" class="st16" d="M24.5,45.4c-0.1-0.5,0-0.8,0.2-0.9c0.4-0.3,1.3,0.5,2.2,1.7"/>
		<path id="sky-plant-leaf4" class="st17" d="M27.8,46.1c0.4-1.4,1-2.4,1.5-2.3c0.4,0.1,0.6,1.1,0.5,2.3"/>
		<path id="sky-plant-leaf5" class="st18" d="M26.3,51c0-0.3,0-0.3,0-0.6c0-1.9,0.5-3.4,1-3.4c0.4,0,0.8,0.9,1,2.2"/>
	</g>
</g>
</svg>