<svg version="1.1" id="skyline" xmlns="http://www.w3.org/2000/svg" xmlns:xlink="http://www.w3.org/1999/xlink" x="0px" y="0px"
	 width="100" height="100" viewBox="0 0 234.5 60" style="enable-background:new 0 0 234.5 60;" xml:space="preserve">
<style type="text/css">
    svg{
    width: 380px;
    }
    
    #sky-mac-body{
        fill: none;
        stroke: #53A8B6;
        stroke-dasharray: 213;
        stroke-dashofset: 0;
        stroke-width:2;
        stroke-linecap:round;
        stroke-miterlimit:10;
        animation: sky-mac-body 3s ease;
        -webkit-animation: sky-mac-body 3s ease;
    }
    
    @keyframes sky-mac-body{
		from{
			stroke-dashoffset: 213;
		} to {
			stroke-dashoffset: 0;
		}
	}
    
    #sky-mac-monitor{
        fill: none;
        stroke: #53A8B6;
        stroke-dasharray: 140;
        stroke-dashofset: 0;
        stroke-width:2;
        stroke-linecap:round;
        stroke-miterlimit:10;
        animation: sky-mac-monitor 3s ease;
        -webkit-animation: sky-mac-monitor 3s ease;
    }
    
    @keyframes sky-mac-monitor{
		from{
			stroke-dashoffset: 140;
		} to {
			stroke-dashoffset: 0;
		}
	}
    
    #sky-mac-mtn{
        fill: none;
        stroke: #53A8B6;
        stroke-dasharray: 75;
        stroke-dashofset: 0;
        stroke-width:2;
        stroke-linecap:round;
        stroke-linejoin:round
        stroke-miterlimit:10;
        animation: sky-mac-mtn 3s ease;
        -webkit-animation: sky-mac-mtn 3s ease;
    }
    
    @keyframes sky-mac-mtn{
		from{
			stroke-dashoffset: 75;
		} to {
			stroke-dashoffset: 0;
		}
	}
    
    #sky-printer-paper{
        fill: none;
        stroke: #53A8B6;
        stroke-dasharray: 78;
        stroke-dashofset: 0;
        stroke-width:2;
        stroke-linecap:round;
        stroke-linejoin:round
        stroke-miterlimit:10;
        animation: sky-printer-paper 3s ease;
        -webkit-animation: sky-printer-paper 3s ease;
    }
    
    @keyframes sky-printer-paper{
		from{
			stroke-dashoffset: 78;
		} to {
			stroke-dashoffset: 0;
		}
	}
    
    #sky-printer-body{
        fill: none;
        stroke: #53A8B6;
        stroke-dasharray: 89;
        stroke-dashofset: 0;
        stroke-width:2;
        stroke-linecap:round;
        stroke-linejoin:round
        stroke-miterlimit:10;
        animation: sky-printer-body 3s ease;
        -webkit-animation: sky-printer-body 3s ease;
    }
    
    @keyframes sky-printer-body{
		from{
			stroke-dashoffset: 89;
		} to {
			stroke-dashoffset: 0;
		}
	}
    
    #sky-printer-button{
        fill: none;
        stroke: #53A8B6;
        stroke-dasharray: 13;
        stroke-dashofset: 0;
        stroke-width:2;
        stroke-linecap:round;
        stroke-linejoin:round
        stroke-miterlimit:10;
        animation: sky-printer-button 3s ease;
        -webkit-animation: sky-printer-button 3s ease;
    }
    
    @keyframes sky-printer-button{
		from{
			stroke-dashoffset: 13;
		} to {
			stroke-dashoffset: 0;
		}
	}
    
    #sky-printer-back{
        fill: none;
        stroke: #53A8B6;
        stroke-dasharray: 70;
        stroke-dashofset: 0;
        stroke-width:2;
        stroke-linecap:round;
        stroke-linejoin:round
        stroke-miterlimit:10;
        animation: sky-printer-back 3s ease;
        -webkit-animation: sky-printer-back 3s ease;
    }
    
    @keyframes sky-printer-back{
		from{
			stroke-dashoffset: 70;
		} to {
			stroke-dashoffset: 0;
		}
	}
    
    #sky-cam-body{
        fill: none;
        stroke: #53A8B6;
        stroke-dasharray: 117;
        stroke-dashofset: 0;
        stroke-width:2;
        stroke-miterlimit:10;
        animation: cam-body 3s ease;
        -webkit-animation: cam-body 3s ease;
    }
    
    @keyframes cam-body{
		from{
			stroke-dashoffset: 117;
		} to {
			stroke-dashoffset: 0;
		}
	}
    
    #sky-cam-inner{
        fill: none;
        stroke: #53A8B6;
        stroke-dasharray: 43;
        stroke-dashofset: 0;
        stroke-width:2;
        stroke-miterlimit:10;
        animation: sky-cam-inner 3s ease;
        -webkit-animation: sky-cam-inner 3s ease;
    }
    
    @keyframes sky-cam-inner{
		from{
			stroke-dashoffset: 43;
		} to {
			stroke-dashoffset: 0;
		}
	}
    
    #sky-cd-inner{
        fill: none;
        stroke: #53A8B6;
        stroke-dasharray: 17;
        stroke-dashofset: 0;
        stroke-width:2;
        stroke-linecap:round;
        stroke-linejoin:round
        stroke-miterlimit:10;
        animation: sky-cd-inner 3s ease;
        -webkit-animation: sky-cd-inner 3s ease;
    }
    
    @keyframes sky-cd-inner{
		from{
			stroke-dashoffset: 17;
		} to {
			stroke-dashoffset: 0;
		}
	}
    
    #sky-cd-outer{
        fill: none;
        stroke: #53A8B6;
        stroke-dasharray: 66;
        stroke-dashofset: 0;
        stroke-width:2;
        stroke-linecap:round;
        stroke-linejoin:round
        stroke-miterlimit:10;
        animation: sky-cd-outer 3s ease;
        -webkit-animation: sky-cd-outer 3s ease;
    }
    
    @keyframes sky-cd-outer{
		from{
			stroke-dashoffset: 66;
		} to {
			stroke-dashoffset: 0;
		}
	}
    
    #sky-linie-left{
        fill: none;
        stroke: #53A8B6;
        stroke-dasharray: 159;
        stroke-dashofset: 0;
        stroke-width:2;
        stroke-miterlimit:10;
        animation: sky-linie-left 3s ease;
        -webkit-animation: sky-linie-left 3s ease;
    }
    
    @keyframes sky-linie-left{
		from{
			stroke-dashoffset: 159;
		} to {
			stroke-dashoffset: 0;
		}
	}
    
    #sky-linie-right{
        fill: none;
        stroke: #53A8B6;
        stroke-dasharray: 49;
        stroke-dashofset: 0;
        stroke-width:2;
        stroke-miterlimit:10;
        animation: sky-linie-right 3s ease;
        -webkit-animation: sky-linie-right 3s ease;
    }
    
    @keyframes sky-linie-right{
		from{
			stroke-dashoffset: 49;
		} to {
			stroke-dashoffset: 0;
		}
	}
    
    #sky-plant-pot{
        fill: none;
        stroke: #53A8B6;
        stroke-dasharray: 53;
        stroke-dashofset: 0;
        stroke-width:2;
        stroke-linecap:round;
        stroke-linejoin:round
        stroke-miterlimit:10;
        animation: sky-plant-pot 3s ease;
        -webkit-animation: sky-plant-pot 3s ease;
    }
    
    @keyframes sky-plant-pot{
		from{
			stroke-dashoffset: 53;
		} to {
			stroke-dashoffset: 0;
		}
	}
    
    #sky-plant-pot-top{
        fill: none;
        stroke: #53A8B6;
        stroke-dasharray: 49;
        stroke-dashofset: 0;
        stroke-width:2;
        stroke-linecap:round;
        stroke-linejoin:round
        stroke-miterlimit:10;
        animation: sky-plant-pot-top 3s ease;
        -webkit-animation: sky-plant-pot-top 3s ease;
    }
    
    @keyframes sky-plant-pot-top{
		from{
			stroke-dashoffset: 49;
		} to {
			stroke-dashoffset: 0;
		}
	}
    
    #sky-plant-leaf1{
        fill: none;
        stroke: #53A8B6;
        stroke-dasharray: 22;
        stroke-dashofset: 0;
        stroke-width:2;
        stroke-linecap:round;
        stroke-miterlimit:10;
        animation: sky-plant-leaf1 3s ease;
        -webkit-animation: sky-plant-leaf1 3s ease;
    }
    
    @keyframes sky-plant-leaf1{
		from{
			stroke-dashoffset: 22;
		} to {
			stroke-dashoffset: 0;
		}
	}
    
    #sky-plant-leaf2{
        fill: none;
        stroke: #53A8B6;
        stroke-dasharray: 24;
        stroke-dashofset: 0;
        stroke-width:2;
        stroke-linecap:round;
        stroke-miterlimit:10;
        animation: sky-plant-leaf2 3s ease;
        -webkit-animation: sky-plant-leaf2 3s ease;
    }
    
    @keyframes sky-plant-leaf2{
		from{
			stroke-dashoffset: 24;
		} to {
			stroke-dashoffset: 0;
		}
	}
    
    #sky-plant-leaf3{
        fill: none;
        stroke: #53A8B6;
        stroke-dasharray: 10;
        stroke-dashofset: 0;
        stroke-width:2;
        stroke-linecap:round;
        stroke-miterlimit:10;
        animation: sky-plant-leaf3 3s ease;
        -webkit-animation: sky-plant-leaf3 3s ease;
    }
    
    @keyframes sky-plant-leaf3{
		from{
			stroke-dashoffset: 10;
		} to {
			stroke-dashoffset: 0;
		}
	}
    
    #sky-plant-leaf4{
        fill: none;
        stroke: #53A8B6;
        stroke-dasharray: 13;
        stroke-dashofset: 0;
        stroke-width:2;
        stroke-linecap:round;
        stroke-miterlimit:10;
        animation: sky-plant-leaf4 3s ease;
        -webkit-animation: sky-plant-leaf4 3s ease;
    }
    
    @keyframes sky-plant-leaf4{
		from{
			stroke-dashoffset: 13;
		} to {
			stroke-dashoffset: 0;
		}
	}
    
    #sky-plant-leaf5{
        fill: none;
        stroke: #53A8B6;
        stroke-dasharray: 16;
        stroke-dashofset: 0;
        stroke-width:2;
        stroke-linecap:round;
        stroke-miterlimit:10;
        animation: sky-plant-leaf5 3s ease;
        -webkit-animation: sky-plant-leaf5 3s ease;
    }
    
    @keyframes sky-plant-leaf5{
		from{
			stroke-dashoffset: 16;
		} to {
			stroke-dashoffset: 0;
		}
	}
    
    
    

	.st0{fill:none;stroke:#53A8B6;stroke-width:2;stroke-linecap:round;stroke-miterlimit:10;}
	.st1{fill:none;stroke:#53A8B6;stroke-width:2;stroke-linejoin:round;stroke-miterlimit:10;}
	.st2{fill:none;stroke:#53A8B6;stroke-width:2;stroke-miterlimit:10;}
	.st3{fill:none;stroke:#53A8B6;stroke-width:2;stroke-linecap:round;stroke-linejoin:round;stroke-miterlimit:10;}
</style>
<g id="sky" height="100">
	<g id="sky-mac">
		<path id="sky-mac-body" class="st0" d="M137.1,1H92.2c-2.8,0-5,2.2-5,5v29.9c0,2.8,2.2,5,5,5h17.4l-5,7.5v2.5h19.9v-2.5l-5-7.5h17.4c2.8,0,5-2.2,5-5V6C142.1,3.2,139.8,1,137.1,1z"/>
		<path id="sky-mac-monitor" class="st1" d="M137.1,30.9H92.2V6h44.9V30.9z"/>
		<path id="sky-mac-mtn" class="st3" d="M107.5,17.3l5.1,6.1l7.1-9.1l9.1,12.2h-28.4L107.5,17.3z"/>
	</g>
	<g id="sky-printer">
		<path id="sky-printer-paper" class="st3" d="M160.3,49.9v-5.2h24.4v5.2v1V59h-24.4v-8.1V49.9z"/>
		<path id="sky-printer-body" class="st3" d="M184.7,50.9h8.1V38.7c0-3.4-2.7-6.1-6.1-6.1h-28.4c-3.4,0-6.1,2.7-6.1,6.1v12.2h8.1"/>
		<path id="sky-printer-button" class="st3" d="M186.7,40.7c-1.1,0-2-0.9-2-2c0-1.1,0.9-2,2-2c1.1,0,2,0.9,2,2C188.8,39.8,187.9,40.7,186.7,40.7z"/>
		<path id="sky-printer-back" class="st3" d="M184.7,32.6h-24.4V22.4h24.4V32.6z"/>
	</g>
	<g id="sky-cam">
		<path id="sky-cam-body" class="st2" d="M33.4,21.4l3.1,3.3h5.3c1.9,0,3.3,1.5,3.3,3.3v19.6c0,1.8-1.5,3.3-3.3,3.3H15c-1.9,0-3.4-1.5-3.4-3.3V28c0-1.8,1.5-3.3,3.4-3.3h5.3l3.1-3.3H33.4z"/>
		<path id="sky-cam-inner" class="st2" d="M28.4,44.5c-3.8,0-6.9-3-6.9-6.8s3.1-6.8,6.9-6.8c3.8,0,6.9,3,6.9,6.8S32.2,44.5,28.4,44.5z"/>
	</g>
	<g id="sky-cd">
		<path id="sky-cd-outer" class="st2" d="M213.1,29.8c-5.8,0-10.5,4.7-10.5,10.5c0,5.8,4.7,10.5,10.5,10.5c5.8,0,10.5-4.7,10.5-10.5C223.6,34.5,218.9,29.8,213.1,29.8z"/>
		<path id="sky-cd-inner" class="st2" d="M213.1,43c-1.5,0-2.6-1.2-2.6-2.6c0-1.5,1.2-2.6,2.6-2.6c1.5,0,2.6,1.2,2.6,2.6C215.7,41.8,214.5,43,213.1,43z"/>
	</g>
	<path id="sky-linie-left" class="st3" d="M159.4,50.9H1"/>
	<path id="sky-linie-right" class="st3" d="M233.5,50.9h-48.7"/>
	<g id="sky-plant">
		<path id="sky-plant-pot" class="st3" d="M71.1,50.9H57.7l-1.5-11.2h16.4L71.1,50.9z"/>
		<path id="sky-plant-pot-top" class="st3" d="M73.6,39.7H54.3v-5.1h19.3V39.7z"/>
		<path id="sky-plant-leaf1" class="st0" d="M59.4,31.2c-1.1-0.8-1.9-1.5-3-2.8c-2.9-3.2-4.5-6.5-3.6-7.3c0.9-0.9,4.1,1,7,4.2c0.1,0.1,0.1,0.2,0.2,0.2"/>
		<path id="sky-plant-leaf2" class="st0" d="M67.1,32.3c1.4-0.7,3.1-2.1,4.8-3.9c2.9-3.2,4.5-6.5,3.6-7.3c-0.9-0.9-4.1,1-7,4.2c-0.1,0.2-0.3,0.3-0.4,0.5"/>
		<path id="sky-plant-leaf3" class="st0" d="M57.4,19.3c-0.2-1.1-0.1-1.9,0.4-2.2c1-0.6,3.1,1.1,5.1,3.9"/>
		<path id="sky-plant-leaf4" class="st0" d="M65.3,20.8c0.9-3.3,2.4-5.7,3.5-5.4c1,0.2,1.4,2.5,1.2,5.5"/>
		<path id="sky-plant-leaf5" class="st0" d="M61.6,32.3c-0.1-0.7,0-0.7,0-1.5c0-4.4,1.1-7.9,2.4-7.9c1,0,1.9,2.1,2.3,5.1"/>
	</g>
</g>
    
<script>
    var path = document.querySelector('#sky-linie-right');
var length = path.getTotalLength();
console.log(length)
    
/*  sky-mac-body: 213.8
    sky-mac-monitor: 139.6
    sky-mac-mtn: 74.7
    sky-printer-paper: 77.3
    sky-printer-body: 88.1
    sky-printer-button: 12.6
    sky-printer-back: 69.1
    sky-cam-body: 116.5
    sky-cam-inner: 43.0
    sky-cd-outer: 65.9
    sky-cd-inner: 16.3
    sky-linie-left: 158.3
    sky-linie-right: 48.6
    sky-plant-pot: 52.4
    sky-plant-pot-top: 48.7
    sky-plant-leaf1: 21.5
    sky-plant-leaf2: 23.9
    sky-plant-leaf3: 9.1
    sky-plant-leaf4: 12.7
    sky-plant-leaf5: 16.0
    
*/
</script> 
    
</svg>

