<?xml version="1.0" encoding="utf-8"?>
<!-- Generator: Adobe Illustrator 16.0.4, SVG Export Plug-In . SVG Version: 6.00 Build 0)  -->
<!DOCTYPE svg PUBLIC "-//W3C//DTD SVG 1.1//EN" "http://www.w3.org/Graphics/SVG/1.1/DTD/svg11.dtd">
<svg version="1.1" id="Ebene_1" xmlns="http://www.w3.org/2000/svg" xmlns:xlink="http://www.w3.org/1999/xlink" x="0px" y="0px"
	 width="380px" height="96px" viewBox="0 0 380 96" style="enable-background:new 0 0 380 96;" xml:space="preserve">
<style type="text/css">
<![CDATA[
	.st0{fill:#53A8B6;}
]]>
</style>
<g>
	<g>
		<path class="st0" d="M201.9,83h-32.3c-0.9,0-1.6-0.7-1.6-1.6v-4c0-0.3,0.1-0.6,0.3-0.9l6.4-9.4h-25.2c-5.4,0-9.7-4.3-9.7-9.6V9.6
			c0-5.3,4.4-9.6,9.7-9.6h72.7c5.4,0,9.7,4.3,9.7,9.6v47.8c0,5.3-4.4,9.6-9.7,9.6h-25.2l6.4,9.4c0.2,0.3,0.3,0.6,0.3,0.9v4
			C203.6,82.2,202.8,83,201.9,83z M171.3,79.7h29v-1.9l-7.8-11.5c-0.3-0.5-0.4-1.1-0.1-1.7c0.3-0.5,0.8-0.9,1.5-0.9h28.3
			c3.5,0,6.4-2.8,6.4-6.3V9.6c0-3.5-2.9-6.3-6.4-6.3h-72.7c-3.5,0-6.4,2.8-6.4,6.3v47.8c0,3.5,2.9,6.3,6.4,6.3h28.3
			c0.6,0,1.2,0.3,1.5,0.9c0.3,0.5,0.3,1.2-0.1,1.7l-7.8,11.5V79.7z M222.1,51.1h-72.7c-0.9,0-1.6-0.7-1.6-1.6V9.6
			c0-0.9,0.7-1.6,1.6-1.6h72.7c0.9,0,1.6,0.7,1.6,1.6v39.9C223.7,50.4,223,51.1,222.1,51.1z M151.1,47.8h69.4V11.2h-69.4V47.8z"/>
		<path class="st0" d="M208.8,44C208.8,44,208.8,44,208.8,44h-46.1c-0.6,0-1.2-0.4-1.5-0.9c-0.3-0.6-0.2-1.2,0.2-1.7L173,26.8
			c0.3-0.4,0.8-0.6,1.3-0.6c0.5,0,1,0.2,1.3,0.6l6.9,8.2l10.3-13c0.3-0.4,0.8-0.7,1.3-0.6c0.5,0,1,0.2,1.3,0.6l14.6,19.3
			c0.3,0.3,0.5,0.7,0.5,1.2C210.5,43.3,209.7,44,208.8,44z M166.1,40.7h39.4L194,25.6l-10.2,13c-0.3,0.4-0.8,0.6-1.3,0.6
			c-0.5,0-1-0.2-1.3-0.6l-6.9-8.2L166.1,40.7z"/>
	</g>
	<g>
		<path class="st0" d="M299.3,96h-39.5c-0.9,0-1.6-0.7-1.6-1.6V71.5c0-0.9,0.7-1.6,1.6-1.6h39.5c0.9,0,1.6,0.7,1.6,1.6v22.8
			C300.9,95.3,300.2,96,299.3,96z M261.4,92.8h36.2V73.2h-36.2V92.8z"/>
		<path class="st0" d="M312.4,83h-13.2v-3.2h11.5V61.9c0-4.5-3.7-8.1-8.2-8.1h-46.1c-4.5,0-8.2,3.6-8.2,8.1v17.9h11.5V83h-13.2
			c-0.9,0-1.6-0.7-1.6-1.6V61.9c0-6.3,5.2-11.4,11.5-11.4h46.1c6.3,0,11.5,5.1,11.5,11.4v19.5C314.1,82.3,313.3,83,312.4,83z"/>
		<path class="st0" d="M302.6,66.8c-2.7,0-4.9-2.2-4.9-4.9s2.2-4.9,4.9-4.9c2.7,0,4.9,2.2,4.9,4.9S305.3,66.8,302.6,66.8z
			 M302.6,60.3c-0.9,0-1.6,0.7-1.6,1.6c0,0.9,0.7,1.6,1.6,1.6c0.9,0,1.6-0.7,1.6-1.6C304.2,61,303.5,60.3,302.6,60.3z"/>
		<path class="st0" d="M299.3,53.7h-39.5c-0.9,0-1.6-0.7-1.6-1.6V35.9c0-0.9,0.7-1.6,1.6-1.6h39.5c0.9,0,1.6,0.7,1.6,1.6v16.2
			C300.9,53,300.2,53.7,299.3,53.7z M261.4,50.5h36.2V37.5h-36.2V50.5z"/>
	</g>
	<g>
		<path class="st0" d="M67.8,83H24.3c-3.9,0-7.1-3.1-7.1-6.9V44.8c0-3.8,3.2-6.9,7.1-6.9h7.9l5-5.2h17.7l5,5.2h7.9
			c3.9,0,7.1,3.1,7.1,6.9v31.4C74.8,79.9,71.7,83,67.8,83z M24.3,41.2c-2.1,0-3.8,1.6-3.8,3.6v31.4c0,2,1.7,3.6,3.8,3.6h43.4
			c2.1,0,3.8-1.6,3.8-3.6V44.8c0-2-1.7-3.6-3.8-3.6h-9.3l-5-5.2H38.6l-5,5.2H24.3z"/>
		<path class="st0" d="M46.1,72.9c-7.1,0-12.9-5.6-12.9-12.4C33.2,53.6,39,48,46.1,48c7.1,0,12.9,5.6,12.9,12.4
			C58.9,67.3,53.1,72.9,46.1,72.9z M46.1,51.3c-5.3,0-9.6,4.1-9.6,9.2c0,5.1,4.3,9.2,9.6,9.2s9.6-4.1,9.6-9.2
			C55.6,55.4,51.3,51.3,46.1,51.3z"/>
	</g>
	<g>
		<path class="st0" d="M350.4,74h-11.5c-0.9,0-1.6-0.6-1.6-1.5c0-0.9,0.7-1.5,1.6-1.5h11.5c0.9,0,1.6,0.6,1.6,1.5
			C352,73.4,351.3,74,350.4,74z"/>
		<path class="st0" d="M345.2,83c-10.3,0-18.7-8.3-18.7-18.5c0-10.2,8.4-18.5,18.7-18.5c10.3,0,18.7,8.3,18.7,18.5
			C364,74.7,355.6,83,345.2,83z M345.2,49.3c-8.5,0-15.4,6.8-15.4,15.2c0,8.4,6.9,15.2,15.4,15.2s15.4-6.8,15.4-15.2
			C360.7,56.1,353.8,49.3,345.2,49.3z M345.2,70.4c-3.3,0-5.9-2.6-5.9-5.8c0-3.2,2.7-5.8,5.9-5.8c3.3,0,5.9,2.6,5.9,5.8
			C351.2,67.8,348.5,70.4,345.2,70.4z M345.2,62c-1.4,0-2.6,1.2-2.6,2.6c0,1.4,1.2,2.6,2.6,2.6c1.4,0,2.6-1.2,2.6-2.6
			C347.9,63.1,346.7,62,345.2,62z"/>
	</g>
	<path class="st0" d="M258.3,83H1.6C0.7,83,0,82.3,0,81.4c0-0.9,0.7-1.6,1.6-1.6h256.6c0.9,0,1.6,0.7,1.6,1.6
		C259.9,82.3,259.2,83,258.3,83z"/>
	<path class="st0" d="M378.4,83h-79c-0.9,0-1.6-0.7-1.6-1.6c0-0.9,0.7-1.6,1.6-1.6h79c0.9,0,1.6,0.7,1.6,1.6
		C380,82.3,379.3,83,378.4,83z"/>
	<g>
		<path class="st0" d="M115.2,83H93.5c-0.8,0-1.5-0.6-1.6-1.4l-2.4-17.9c-0.1-0.5,0.1-0.9,0.4-1.3s0.8-0.6,1.2-0.6h26.5
			c0.5,0,0.9,0.2,1.2,0.6s0.5,0.8,0.4,1.3l-2.4,17.9C116.7,82.4,116,83,115.2,83z M94.9,79.8h18.8l2-14.6H93L94.9,79.8z"/>
		<path class="st0" d="M118.4,65.1H87.2c-0.9,0-1.6-0.7-1.6-1.6v-8.1c0-0.9,0.7-1.6,1.6-1.6h31.3c0.9,0,1.6,0.7,1.6,1.6v8.1
			C120.1,64.4,119.4,65.1,118.4,65.1z M88.8,61.9h28V57h-28V61.9z"/>
		<path class="st0" d="M96.2,51.5c-0.3,0-0.7-0.1-1-0.3c-1.9-1.4-3.3-2.7-5.1-4.7c-3.6-3.9-8.8-11.2-5.7-14c1.4-1.2,3.5-1,6.4,0.8
			c2.3,1.4,4.8,3.5,7.2,6.1l0.4,0.4c0.6,0.7,0.5,1.7-0.1,2.3c-0.7,0.6-1.7,0.5-2.3-0.1l-0.3-0.4c-4.3-4.6-7.8-6.4-8.9-6.5
			c0.1,1.1,1.5,4.7,5.8,9.3c1.9,2.1,3.1,3.2,4.6,4.2c0.7,0.5,0.9,1.5,0.4,2.3C97.2,51.3,96.7,51.5,96.2,51.5z"/>
		<path class="st0" d="M108.7,53.3c-0.6,0-1.2-0.3-1.5-0.9c-0.4-0.8-0.1-1.8,0.7-2.2c2.1-1.1,4.8-3.3,7.3-5.9
			c4.3-4.6,5.8-8.2,5.8-9.3c-1.1,0.2-4.6,1.9-8.9,6.6c-0.2,0.2-0.4,0.5-0.7,0.7c-0.6,0.7-1.6,0.7-2.3,0.2c-0.7-0.6-0.8-1.6-0.2-2.3
			c0.2-0.3,0.5-0.5,0.7-0.8c2.4-2.6,5-4.7,7.2-6.1c2.9-1.7,5.1-2,6.4-0.8c3.1,2.8-2.1,10.1-5.7,14c-2.7,3-5.7,5.4-8.2,6.6
			C109.2,53.3,109,53.3,108.7,53.3z"/>
		<path class="st0" d="M101.9,35.2c-0.5,0-1-0.2-1.3-0.7c-2.9-4.1-5.2-5.5-5.9-5.7c-0.1,0.3-0.1,0.8,0.1,1.8
			c0.2,0.9-0.4,1.7-1.3,1.9c-0.9,0.2-1.7-0.4-1.9-1.3c-0.5-2.6,0-4.4,1.4-5.2c3.6-2.1,8.9,4.6,10.4,6.7c0.5,0.7,0.3,1.7-0.4,2.3
			C102.5,35.1,102.2,35.2,101.9,35.2z"/>
		<path class="st0" d="M113.4,34.9c0,0-0.1,0-0.1,0c-0.9-0.1-1.6-0.9-1.5-1.8c0.4-4.1-0.2-6.3-0.6-6.9c-0.7,0.5-2.3,2.6-3.7,7.5
			c-0.2,0.9-1.2,1.4-2,1.1c-0.9-0.2-1.4-1.1-1.1-2c0.7-2.5,3.4-10.7,7.6-9.8c3.5,0.7,3.5,6.9,3.2,10.5
			C115,34.3,114.3,34.9,113.4,34.9z"/>
		<path class="st0" d="M99.9,53.3c-0.8,0-1.6-0.6-1.6-1.5c-0.1-0.9-0.1-1.1-0.1-1.7l0-0.8c0-5.3,1.1-14.3,5.5-14.3c0,0,0,0,0,0
			c3.6,0,4.9,6,5.3,9.6c0.1,0.9-0.5,1.7-1.4,1.8c-0.9,0.1-1.7-0.5-1.8-1.4c-0.5-4.1-1.5-6.1-2-6.6c-0.8,0.8-2.2,4.4-2.2,11l0,0.8
			c0,0.5,0,0.7,0.1,1.4c0.1,0.9-0.6,1.7-1.5,1.8C99.9,53.3,99.9,53.3,99.9,53.3z"/>
	</g>
</g>
</svg>
