<?xml version="1.0" encoding="utf-8"?>
<!-- Generator: Adobe Illustrator 16.0.4, SVG Export Plug-In . SVG Version: 6.00 Build 0)  -->
<!DOCTYPE svg PUBLIC "-//W3C//DTD SVG 1.1//EN" "http://www.w3.org/Graphics/SVG/1.1/DTD/svg11.dtd">
<svg version="1.1" id="Ebene_1" xmlns="http://www.w3.org/2000/svg" xmlns:xlink="http://www.w3.org/1999/xlink" x="0px" y="0px"
	 width="23.033px" height="42px" viewBox="0 0 23.033 42" enable-background="new 0 0 23.033 42" xml:space="preserve">
<g>
	<g>
		<path fill="#E20613" d="M22.994,1.879c0,0-4.292-1.879-11.476-1.879h-0.002C4.331,0,0.038,1.879,0.038,1.879
			s-0.384,8.323,1.245,13.028c2.877,8.273,10.231,10.598,10.231,10.598h0.002h0.002c0,0,7.353-2.325,10.231-10.598
			C23.379,10.203,22.994,1.879,22.994,1.879z"/>
	</g>
	<polygon fill="#FFFFFF" points="19.144,9.054 19.144,13.639 13.794,13.639 13.794,18.988 9.209,18.988 9.209,13.639 3.86,13.639 
		3.86,9.054 9.209,9.054 9.209,3.707 13.793,3.707 13.794,9.054 	"/>
</g>
</svg>
