<?xml version="1.0" encoding="utf-8"?>
<!-- Generator: Adobe Illustrator 16.0.4, SVG Export Plug-In . SVG Version: 6.00 Build 0)  -->
<!DOCTYPE svg PUBLIC "-//W3C//DTD SVG 1.1//EN" "http://www.w3.org/Graphics/SVG/1.1/DTD/svg11.dtd">
<svg version="1.1" id="Ebene_1" xmlns="http://www.w3.org/2000/svg" xmlns:xlink="http://www.w3.org/1999/xlink" x="0px" y="0px"
	 width="381px" height="42px" viewBox="0 0 381 42" style="enable-background:new 0 0 381 42;" xml:space="preserve">
<style type="text/css">
<![CDATA[
	.st0{fill:#E20613;}
	.st1{fill:#FFFFFF;}
	.st2{fill:#FFFFFF;stroke:#FFFFFF;stroke-miterlimit:10;}
]]>
</style>
<g>
	<g>
		<path class="st2" d="M191.4,2.1h2.8v0.5H192v2h2.1v0.5H192v2.2h2.3v0.5h-2.9V2.1L191.4,2.1z"/>
		<path class="st2" d="M196.6,2.5h-0.5V1.9h0.5V2.5z M196.1,3.6h0.5v4.1h-0.5V3.6z"/>
		<path class="st2" d="M201.8,7.8h-0.5V7.1l0,0c-0.3,0.5-0.7,0.8-1.3,0.8c-1.1,0-1.7-0.9-1.7-2.2c0-1.3,0.5-2.2,1.7-2.2
			c0.8,0,1.2,0.6,1.3,0.8l0,0V1.7h0.5V7.8z M200,7.4c0.9,0,1.2-1,1.2-1.7c0-0.7-0.3-1.7-1.2-1.7c-1,0-1.2,0.9-1.2,1.7
			C198.8,6.5,199.1,7.4,200,7.4z"/>
		<path class="st2" d="M206.9,7.4c0,1.2-0.5,2.1-1.9,2.1c-0.5,0-1-0.2-1.2-0.2V8.8c0.3,0.2,0.8,0.3,1.2,0.3c1.3,0,1.4-1,1.4-2.1l0,0
			c-0.3,0.6-0.7,0.8-1.3,0.8c-1.3,0-1.7-1.2-1.7-2.1c0-1.3,0.5-2.2,1.7-2.2c0.6,0,0.9,0.1,1.3,0.6l0,0V3.6h0.5V7.4z M205.1,7.3
			c0.9,0,1.3-0.9,1.3-1.6c0-1-0.3-1.7-1.2-1.7c-1,0-1.2,0.9-1.2,1.7C203.9,6.5,204.3,7.3,205.1,7.3z"/>
		<path class="st2" d="M211.5,7.7c-0.4,0.1-0.8,0.2-1.2,0.2c-1.4,0-1.9-0.9-1.9-2.2c0-1.3,0.7-2.2,1.7-2.2c1.2,0,1.6,0.9,1.6,2.1
			v0.3H209c0,0.9,0.5,1.6,1.4,1.6c0.4,0,0.9-0.2,1.2-0.3L211.5,7.7L211.5,7.7z M211.3,5.4c0-0.7-0.3-1.4-1.1-1.4S209,4.8,209,5.4
			H211.3z"/>
		<path class="st2" d="M213.4,4.6c0-0.3,0-0.6,0-1h0.5v0.7l0,0c0.2-0.4,0.5-0.8,1.3-0.8c1,0,1.4,0.7,1.4,1.6v2.6h-0.5V5.3
			c0-0.8-0.3-1.3-1-1.3c-0.9,0-1.2,0.8-1.2,1.5v2.3h-0.5V4.6z"/>
		<path class="st2" d="M220.2,3.6c1.3,0,1.9,1,1.9,2.2c0,1.1-0.6,2.2-1.9,2.2s-1.9-1-1.9-2.2C218.3,4.6,218.9,3.6,220.2,3.6z
			 M220.2,7.4c0.9,0,1.4-0.8,1.4-1.7c0-0.9-0.5-1.7-1.4-1.7c-0.9,0-1.4,0.8-1.4,1.7C218.8,6.6,219.3,7.4,220.2,7.4z M219.2,2.3h0.6
			V3h-0.6V2.3z M220.6,2.3h0.6V3h-0.6V2.3z"/>
		<path class="st2" d="M223.4,7.2c0.3,0.2,0.7,0.3,1.1,0.3c0.5,0,0.9-0.3,0.9-0.7c0-1-2-0.8-2-2c0-0.8,0.7-1.1,1.3-1.1
			c0.2,0,0.7,0,1,0.2v0.4c-0.3-0.1-0.6-0.2-0.9-0.2c-0.5,0-0.9,0.2-0.9,0.7c0,0.8,2,0.7,2,2c0,0.9-0.8,1.2-1.4,1.2
			c-0.4,0-0.8,0-1.2-0.2L223.4,7.2z"/>
		<path class="st2" d="M227.2,7.2c0.3,0.2,0.7,0.3,1.1,0.3c0.5,0,0.9-0.3,0.9-0.7c0-1-2-0.8-2-2c0-0.8,0.7-1.1,1.3-1.1
			c0.2,0,0.7,0,1,0.2v0.4c-0.3-0.1-0.6-0.2-0.9-0.2c-0.5,0-0.9,0.2-0.9,0.7c0,0.8,2,0.7,2,2c0,0.9-0.8,1.2-1.4,1.2
			c-0.4,0-0.8,0-1.2-0.2L227.2,7.2z"/>
		<path class="st2" d="M231.8,2.5h-0.5V1.9h0.5V2.5z M231.3,3.6h0.5v4.1h-0.5V3.6z"/>
		<path class="st2" d="M233.4,7.2c0.3,0.2,0.7,0.3,1.1,0.3c0.5,0,0.9-0.3,0.9-0.7c0-1-2-0.8-2-2c0-0.8,0.7-1.1,1.3-1.1
			c0.2,0,0.7,0,1,0.2v0.4c-0.3-0.1-0.6-0.2-0.9-0.2c-0.5,0-0.9,0.2-0.9,0.7c0,0.8,2,0.7,2,2c0,0.9-0.8,1.2-1.4,1.2
			c-0.4,0-0.8,0-1.2-0.2L233.4,7.2z"/>
		<path class="st2" d="M240.2,4.2c-0.3-0.1-0.6-0.2-0.9-0.2c-1,0-1.6,0.7-1.6,1.7c0,0.9,0.6,1.7,1.5,1.7c0.3,0,0.6-0.1,0.9-0.2v0.5
			c-0.3,0.1-0.7,0.1-1.1,0.1c-1.3,0-2-1-2-2.2c0-1.3,0.8-2.2,2-2.2c0.5,0,0.9,0.1,1,0.2L240.2,4.2z"/>
		<path class="st2" d="M241.7,1.7h0.5v2.6l0,0c0.2-0.5,0.7-0.8,1.3-0.8c1.1,0,1.4,0.7,1.4,1.8v2.5h-0.5V5.3c0-0.7-0.1-1.3-1-1.3
			c-0.9,0-1.2,0.9-1.2,1.6v2.2h-0.5V1.7z"/>
		<path class="st2" d="M249.7,7.7c-0.4,0.1-0.8,0.2-1.2,0.2c-1.4,0-1.9-0.9-1.9-2.2c0-1.3,0.7-2.2,1.7-2.2c1.2,0,1.6,0.9,1.6,2.1
			v0.3h-2.8c0,0.9,0.5,1.6,1.4,1.6c0.4,0,0.9-0.2,1.2-0.3V7.7z M249.4,5.4c0-0.7-0.3-1.4-1.1-1.4s-1.2,0.8-1.2,1.4H249.4z"/>
		<path class="st2" d="M251.3,7.2c0.3,0.2,0.7,0.3,1.1,0.3c0.5,0,0.9-0.3,0.9-0.7c0-1-2-0.8-2-2c0-0.8,0.7-1.1,1.3-1.1
			c0.2,0,0.7,0,1,0.2v0.4C253.3,4.1,253,4,252.7,4c-0.5,0-0.9,0.2-0.9,0.7c0,0.8,2,0.7,2,2c0,0.9-0.8,1.2-1.4,1.2
			c-0.4,0-0.8,0-1.2-0.2L251.3,7.2z"/>
		<path class="st2" d="M258.3,2.1h1.4c2,0,2.8,1.2,2.8,2.8c0,2.1-1.4,2.8-3.2,2.8h-1V2.1L258.3,2.1z M258.8,7.3h0.5
			c1.6,0,2.7-0.6,2.7-2.4c0-1.7-1-2.3-2.3-2.3h-0.8v4.7H258.8z"/>
		<path class="st2" d="M267.1,7.7c-0.4,0.1-0.8,0.2-1.2,0.2c-1.4,0-1.9-0.9-1.9-2.2c0-1.3,0.7-2.2,1.7-2.2c1.2,0,1.6,0.9,1.6,2.1
			v0.3h-2.8c0,0.9,0.5,1.6,1.4,1.6c0.4,0,0.9-0.2,1.2-0.3V7.7L267.1,7.7z M266.8,5.4c0-0.7-0.3-1.4-1.1-1.4s-1.2,0.8-1.2,1.4H266.8z
			"/>
		<path class="st2" d="M268.9,3.6h0.5v0.8l0,0c0.1-0.2,0.4-0.9,1.3-0.9c1.2,0,1.7,0.9,1.7,2.2c0,1.2-0.6,2.2-1.7,2.2
			c-0.6,0-1-0.3-1.3-0.8l0,0v2.4h-0.5V3.6z M270.7,4c-0.9,0-1.2,1-1.2,1.7c0,0.7,0.3,1.7,1.2,1.7c1,0,1.2-0.9,1.2-1.7
			C271.9,4.9,271.6,4,270.7,4z"/>
		<path class="st2" d="M276.5,7.1L276.5,7.1c-0.2,0.5-0.8,0.8-1.3,0.8c-1.2,0-1.4-0.8-1.4-1.2c0-1.4,1.5-1.5,2.5-1.5h0.1V5.1
			c0-0.7-0.3-1.1-0.9-1.1c-0.4,0-0.8,0.1-1.2,0.3V3.8c0.3-0.2,0.9-0.3,1.2-0.3c1,0,1.5,0.5,1.5,1.5v1.8c0,0.3,0,0.6,0,0.9h-0.5V7.1
			L276.5,7.1z M276.4,5.7h-0.1c-0.9,0-1.9,0.1-1.9,1c0,0.5,0.4,0.7,0.9,0.7c1.2,0,1.2-1,1.2-1.5L276.4,5.7L276.4,5.7z"/>
		<path class="st2" d="M278.8,4.6c0-0.5,0-0.6,0-0.9h0.5v0.8l0,0c0.2-0.5,0.5-0.9,1.1-0.9c0.1,0,0.3,0,0.4,0v0.5c-0.1,0-0.2,0-0.4,0
			c-0.8,0-1,0.9-1,1.7v2h-0.5V4.6H278.8z"/>
		<path class="st2" d="M283.9,4.1H283v2.7c0,0.4,0.1,0.7,0.6,0.7c0.2,0,0.3,0,0.5-0.1v0.4c-0.1,0-0.4,0.1-0.6,0.1
			c-0.9,0-0.9-0.6-0.9-1.4V4.1h-0.8V3.6h0.8v-1l0.5-0.2v1.2h0.9L283.9,4.1L283.9,4.1z"/>
		<path class="st2" d="M288.2,7.7c-0.4,0.1-0.8,0.2-1.2,0.2c-1.4,0-1.9-0.9-1.9-2.2c0-1.3,0.7-2.2,1.7-2.2c1.2,0,1.6,0.9,1.6,2.1
			v0.3h-2.8c0,0.9,0.5,1.6,1.4,1.6c0.4,0,0.9-0.2,1.2-0.3V7.7L288.2,7.7z M288,5.4c0-0.7-0.3-1.4-1.1-1.4c-0.8,0-1.2,0.8-1.2,1.4
			H288z"/>
		<path class="st2" d="M295.1,7.8V5c0-0.6-0.2-1-0.9-1c-0.6,0-1.1,0.5-1.1,1.5v2.3h-0.5V5c0-0.6-0.2-1-0.9-1c-0.6,0-1.1,0.5-1.1,1.5
			v2.3h-0.5V4.6c0-0.3,0-0.6,0-1h0.5v0.7l0,0c0.2-0.3,0.4-0.8,1.3-0.8c0.4,0,1,0.2,1.1,0.9l0,0c0.2-0.5,0.7-0.9,1.3-0.9
			c0.8,0,1.3,0.6,1.3,1.4v2.8L295.1,7.8L295.1,7.8z"/>
		<path class="st2" d="M300.3,7.7c-0.4,0.1-0.8,0.2-1.2,0.2c-1.4,0-1.9-0.9-1.9-2.2c0-1.3,0.7-2.2,1.7-2.2c1.2,0,1.6,0.9,1.6,2.1
			v0.3h-2.8c0,0.9,0.5,1.6,1.4,1.6c0.4,0,0.9-0.2,1.2-0.3V7.7L300.3,7.7z M300.1,5.4c0-0.7-0.3-1.4-1.1-1.4s-1.2,0.8-1.2,1.4H300.1z
			"/>
		<path class="st2" d="M302.2,4.6c0-0.3,0-0.6,0-1h0.5v0.7l0,0c0.2-0.4,0.5-0.8,1.3-0.8c1,0,1.4,0.7,1.4,1.6v2.6h-0.5V5.3
			c0-0.8-0.3-1.3-1-1.3c-0.9,0-1.2,0.8-1.2,1.5v2.3h-0.5V4.6L302.2,4.6z"/>
		<path class="st2" d="M309.1,4.1h-0.9v2.7c0,0.4,0.1,0.7,0.6,0.7c0.2,0,0.3,0,0.5-0.1v0.4c-0.1,0-0.4,0.1-0.6,0.1
			c-0.9,0-0.9-0.6-0.9-1.4V4.1H307V3.6h0.8v-1l0.5-0.2v1.2h0.9v0.5H309.1z"/>
		<path class="st2" d="M313.9,4.1h-0.8V3.6h0.8V3.3c0-0.9,0-1.7,1.1-1.7c0.2,0,0.4,0,0.5,0.1v0.4C315.4,2,315.2,2,315.1,2
			c-0.7,0-0.6,0.8-0.6,1.2v0.4h0.9V4h-0.9v3.7H314L313.9,4.1L313.9,4.1z"/>
		<path class="st2" d="M320.1,6.8c0,0.3,0,0.6,0,1h-0.5V7l0,0c-0.2,0.4-0.5,0.8-1.3,0.8c-1,0-1.4-0.7-1.4-1.6V3.6h0.5v2.5
			c0,0.8,0.3,1.3,1,1.3c0.9,0,1.2-0.8,1.2-1.5V3.6h0.5V6.8L320.1,6.8z M317.5,2.3h0.6V3h-0.6V2.3z M318.9,2.3h0.6V3h-0.6V2.3z"/>
		<path class="st2" d="M322,4.6c0-0.5,0-0.6,0-0.9h0.5v0.8l0,0c0.2-0.5,0.5-0.9,1.1-0.9c0.1,0,0.3,0,0.4,0v0.5c-0.1,0-0.2,0-0.4,0
			c-0.8,0-1,0.9-1,1.7v2H322V4.6z"/>
		<path class="st2" d="M330.4,7.8h-0.6l-2.1-5.7h0.6l1.8,5.1l1.9-5.1h0.6L330.4,7.8z"/>
		<path class="st2" d="M336.2,7.7c-0.4,0.1-0.8,0.2-1.2,0.2c-1.4,0-1.9-0.9-1.9-2.2c0-1.3,0.7-2.2,1.7-2.2c1.2,0,1.6,0.9,1.6,2.1
			v0.3h-2.8c0,0.9,0.5,1.6,1.4,1.6c0.4,0,0.9-0.2,1.2-0.3V7.7L336.2,7.7z M335.9,5.4c0-0.7-0.3-1.4-1.1-1.4s-1.2,0.8-1.2,1.4H335.9z
			"/>
		<path class="st2" d="M338.1,4.6c0-0.5,0-0.6,0-0.9h0.5v0.8l0,0c0.2-0.5,0.5-0.9,1.1-0.9c0.1,0,0.3,0,0.4,0v0.5c-0.1,0-0.2,0-0.4,0
			c-0.8,0-1,0.9-1,1.7v2h-0.5V4.6H338.1z"/>
		<path class="st2" d="M343.2,4.1h-0.9v2.7c0,0.4,0.1,0.7,0.6,0.7c0.2,0,0.3,0,0.5-0.1v0.4c-0.1,0-0.4,0.1-0.6,0.1
			c-0.9,0-0.9-0.6-0.9-1.4V4.1h-0.8V3.6h0.8v-1l0.5-0.2v1.2h0.9L343.2,4.1L343.2,4.1z"/>
		<path class="st2" d="M347.5,7.7c-0.4,0.1-0.8,0.2-1.2,0.2c-1.4,0-1.9-0.9-1.9-2.2c0-1.3,0.7-2.2,1.7-2.2c1.2,0,1.6,0.9,1.6,2.1
			v0.3H345c0,0.9,0.5,1.6,1.4,1.6c0.4,0,0.9-0.2,1.2-0.3L347.5,7.7L347.5,7.7z M347.3,5.4c0-0.7-0.3-1.4-1.1-1.4S345,4.8,345,5.4
			H347.3z"/>
		<path class="st2" d="M349.9,2.5h-0.5V1.9h0.5V2.5z M349.4,3.6h0.5v4.1h-0.5V3.6z"/>
		<path class="st2" d="M355.1,7.8h-0.5V7.1l0,0c-0.3,0.5-0.7,0.8-1.3,0.8c-1.1,0-1.7-0.9-1.7-2.2c0-1.3,0.5-2.2,1.7-2.2
			c0.8,0,1.2,0.6,1.3,0.8l0,0V1.7h0.5V7.8z M353.4,7.4c0.9,0,1.2-1,1.2-1.7c0-0.7-0.3-1.7-1.2-1.7c-1,0-1.2,0.9-1.2,1.7
			C352.2,6.5,352.4,7.4,353.4,7.4z"/>
		<path class="st2" d="M357.5,2.5H357V1.9h0.5V2.5z M357,3.6h0.5v4.1H357V3.6z"/>
		<path class="st2" d="M362.7,7.4c0,1.2-0.5,2.1-1.9,2.1c-0.5,0-1-0.2-1.2-0.2V8.8c0.3,0.2,0.8,0.3,1.2,0.3c1.3,0,1.4-1,1.4-2.1l0,0
			c-0.3,0.6-0.7,0.8-1.3,0.8c-1.3,0-1.7-1.2-1.7-2.1c0-1.3,0.5-2.2,1.7-2.2c0.6,0,0.9,0.1,1.3,0.6l0,0V3.6h0.5V7.4z M361,7.3
			c0.9,0,1.3-0.9,1.3-1.6c0-1-0.3-1.7-1.2-1.7c-1,0-1.2,0.9-1.2,1.7C359.8,6.5,360.1,7.3,361,7.3z"/>
		<path class="st2" d="M367.8,6.8c0,0.3,0,0.6,0,1h-0.5V7l0,0c-0.2,0.4-0.5,0.8-1.3,0.8c-1,0-1.4-0.7-1.4-1.6V3.6h0.5v2.5
			c0,0.8,0.3,1.3,1,1.3c0.9,0,1.2-0.8,1.2-1.5V3.6h0.5V6.8L367.8,6.8z"/>
		<path class="st2" d="M369.7,4.6c0-0.3,0-0.6,0-1h0.5v0.7l0,0c0.2-0.4,0.5-0.8,1.3-0.8c1,0,1.4,0.7,1.4,1.6v2.6h-0.5V5.3
			c0-0.8-0.3-1.3-1-1.3c-0.9,0-1.2,0.8-1.2,1.5v2.3h-0.5V4.6L369.7,4.6z"/>
		<path class="st2" d="M378.1,7.4c0,1.2-0.5,2.1-1.9,2.1c-0.5,0-1-0.2-1.2-0.2V8.8c0.3,0.2,0.8,0.3,1.2,0.3c1.3,0,1.4-1,1.4-2.1l0,0
			c-0.3,0.6-0.7,0.8-1.3,0.8c-1.3,0-1.7-1.2-1.7-2.1c0-1.3,0.5-2.2,1.7-2.2c0.6,0,0.9,0.1,1.3,0.6l0,0V3.6h0.5V7.4z M376.4,7.3
			c0.9,0,1.3-0.9,1.3-1.6c0-1-0.3-1.7-1.2-1.7c-1,0-1.2,0.9-1.2,1.7C375.2,6.5,375.5,7.3,376.4,7.3z"/>
		<path class="st2" d="M380.3,7.1h0.7l-0.6,1.8h-0.5L380.3,7.1z"/>
		<path class="st2" d="M191.4,13.3h1.3c0.9,0,1.8,0.3,1.8,1.4c0,0.7-0.3,1.2-1,1.3l0,0c0.7,0.1,1.2,0.6,1.2,1.3c0,1.2-1,1.6-2.2,1.6
			h-1.1V13.3z M191.9,18.5h0.6c0.8,0,1.6-0.2,1.6-1.1c0-1-0.9-1.1-1.7-1.1h-0.5V18.5L191.9,18.5z M192,15.8h0.6
			c0.6,0,1.4-0.2,1.4-1.1c0-0.8-0.8-0.9-1.2-0.9H192V15.8z"/>
		<path class="st2" d="M199.3,18.8c-0.4,0.1-0.8,0.2-1.2,0.2c-1.4,0-1.9-0.9-1.9-2.2c0-1.3,0.7-2.2,1.7-2.2c1.2,0,1.6,0.9,1.6,2.1
			V17h-2.8c0,0.9,0.5,1.6,1.4,1.6c0.4,0,0.9-0.2,1.2-0.3V18.8z M199,16.6c0-0.7-0.3-1.4-1.1-1.4c-0.8,0-1.2,0.8-1.2,1.4H199z"/>
		<path class="st2" d="M202.6,19H202l-1.4-4.1h0.6l1.1,3.6l0,0l1.2-3.6h0.5L202.6,19z"/>
		<path class="st2" d="M207,14.7c1.3,0,1.9,1,1.9,2.2c0,1.1-0.6,2.2-1.9,2.2s-1.9-1-1.9-2.2C205.1,15.8,205.7,14.7,207,14.7z
			 M207,18.6c0.9,0,1.4-0.8,1.4-1.7c0-1-0.5-1.7-1.4-1.7s-1.4,0.8-1.4,1.7C205.7,17.9,206.1,18.6,207,18.6z M206,13.5h0.6v0.7H206
			V13.5z M207.4,13.5h0.6v0.7h-0.6V13.5z"/>
		<path class="st2" d="M210.6,12.9h0.5V19h-0.5V12.9z"/>
		<path class="st2" d="M213,12.9h0.5v3.6l1.9-1.7h0.7l-2,1.8l2.3,2.3h-0.7l-2-2.1V19H213V12.9z"/>
		<path class="st2" d="M220.5,18.8c-0.4,0.1-0.8,0.2-1.2,0.2c-1.4,0-1.9-0.9-1.9-2.2c0-1.3,0.7-2.2,1.7-2.2c1.2,0,1.6,0.9,1.6,2.1
			V17h-2.8c0,0.9,0.5,1.6,1.4,1.6c0.4,0,0.9-0.2,1.2-0.3V18.8z M220.2,16.6c0-0.7-0.3-1.4-1.1-1.4c-0.8,0-1.2,0.8-1.2,1.4H220.2z"/>
		<path class="st2" d="M222.4,15.8c0-0.5,0-0.6,0-0.9h0.5v0.8l0,0c0.2-0.5,0.5-0.9,1.1-0.9c0.1,0,0.3,0,0.4,0v0.5
			c-0.1,0-0.2,0-0.4,0c-0.8,0-1,0.9-1,1.7v2h-0.5L222.4,15.8L222.4,15.8z"/>
		<path class="st2" d="M228.9,18c0,0.3,0,0.6,0,1h-0.5v-0.7l0,0c-0.2,0.4-0.5,0.8-1.3,0.8c-1,0-1.4-0.7-1.4-1.6v-2.6h0.5v2.5
			c0,0.8,0.3,1.3,1,1.3c0.9,0,1.2-0.8,1.2-1.5v-2.3h0.5V18z"/>
		<path class="st2" d="M230.8,15.8c0-0.3,0-0.6,0-1h0.5v0.7l0,0c0.2-0.4,0.5-0.8,1.3-0.8c1,0,1.4,0.7,1.4,1.6V19h-0.5v-2.5
			c0-0.8-0.3-1.3-1-1.3c-0.9,0-1.2,0.8-1.2,1.5V19h-0.5V15.8z"/>
		<path class="st2" d="M239.3,18.6c0,1.2-0.5,2.1-1.9,2.1c-0.5,0-1-0.2-1.2-0.2V20c0.3,0.2,0.8,0.3,1.2,0.3c1.3,0,1.4-1,1.4-2.1l0,0
			c-0.3,0.6-0.7,0.8-1.3,0.8c-1.3,0-1.7-1.2-1.7-2.1c0-1.3,0.5-2.2,1.7-2.2c0.6,0,0.9,0.1,1.3,0.6l0,0v-0.5h0.5V18.6z M237.5,18.5
			c0.9,0,1.3-0.9,1.3-1.6c0-1-0.3-1.7-1.2-1.7c-1,0-1.2,0.9-1.2,1.7C236.3,17.7,236.6,18.5,237.5,18.5z"/>
		<path class="st2" d="M240.8,18.4c0.3,0.2,0.7,0.3,1.1,0.3c0.5,0,0.9-0.3,0.9-0.7c0-1-2-0.8-2-2c0-0.8,0.7-1.1,1.3-1.1
			c0.2,0,0.7,0,1,0.2v0.4c-0.3-0.1-0.6-0.2-0.9-0.2c-0.5,0-0.9,0.2-0.9,0.7c0,0.8,2,0.7,2,2c0,0.9-0.8,1.2-1.4,1.2
			c-0.4,0-0.8,0-1.2-0.2L240.8,18.4z"/>
		<path class="st2" d="M244.6,18.4c0.3,0.2,0.7,0.3,1.1,0.3c0.5,0,0.9-0.3,0.9-0.7c0-1-2-0.8-2-2c0-0.8,0.7-1.1,1.3-1.1
			c0.2,0,0.7,0,1,0.2v0.4c-0.3-0.1-0.6-0.2-0.9-0.2c-0.5,0-0.9,0.2-0.9,0.7c0,0.8,2,0.7,2,2c0,0.9-0.8,1.2-1.4,1.2
			c-0.4,0-0.8,0-1.2-0.2L244.6,18.4z"/>
		<path class="st2" d="M251.4,15.4c-0.3-0.1-0.6-0.2-0.9-0.2c-1,0-1.6,0.7-1.6,1.7c0,0.9,0.6,1.7,1.5,1.7c0.3,0,0.6-0.1,0.9-0.2v0.5
			c-0.3,0.1-0.7,0.1-1.1,0.1c-1.3,0-2-1-2-2.2c0-1.3,0.8-2.2,2-2.2c0.5,0,0.8,0.1,1,0.2L251.4,15.4z"/>
		<path class="st2" d="M252.9,12.9h0.5v2.6l0,0c0.2-0.5,0.7-0.8,1.3-0.8c1.1,0,1.4,0.7,1.4,1.8V19h-0.5v-2.5c0-0.7-0.1-1.3-1-1.3
			c-0.9,0-1.2,0.9-1.2,1.6V19h-0.5V12.9L252.9,12.9z"/>
		<path class="st2" d="M261.3,18c0,0.3,0,0.6,0,1h-0.5v-0.7l0,0c-0.2,0.4-0.5,0.8-1.3,0.8c-1,0-1.4-0.7-1.4-1.6v-2.6h0.5v2.5
			c0,0.8,0.3,1.3,1,1.3c0.9,0,1.2-0.8,1.2-1.5v-2.3h0.5V18L261.3,18z"/>
		<path class="st2" d="M265,15.3h-1V18c0,0.4,0.1,0.7,0.6,0.7c0.2,0,0.3,0,0.5-0.1V19c-0.1,0-0.4,0.1-0.6,0.1
			c-0.9,0-0.9-0.6-0.9-1.4v-2.4h-0.8v-0.4h0.8v-1l0.5-0.2v1.2h0.9V15.3z"/>
		<path class="st2" d="M266.2,18.5l2.5-3.3h-2.4v-0.4h3v0.4l-2.5,3.3h2.5V19h-3.1V18.5z"/>
		<path class="st2" d="M276.9,18c0,0.3,0,0.6,0,1h-0.5v-0.7l0,0c-0.2,0.4-0.5,0.8-1.3,0.8c-1,0-1.4-0.7-1.4-1.6v-2.6h0.5v2.5
			c0,0.8,0.3,1.3,1,1.3c0.9,0,1.2-0.8,1.2-1.5v-2.3h0.5V18L276.9,18z"/>
		<path class="st2" d="M278.8,15.8c0-0.3,0-0.6,0-1h0.5v0.7l0,0c0.2-0.4,0.5-0.8,1.3-0.8c1,0,1.4,0.7,1.4,1.6V19h-0.5v-2.5
			c0-0.8-0.3-1.3-1-1.3c-0.9,0-1.2,0.8-1.2,1.5V19h-0.5V15.8L278.8,15.8z"/>
		<path class="st2" d="M287.2,19h-0.5v-0.7l0,0c-0.3,0.5-0.7,0.8-1.3,0.8c-1.1,0-1.7-0.9-1.7-2.2c0-1.3,0.5-2.2,1.7-2.2
			c0.8,0,1.2,0.6,1.3,0.8l0,0v-2.6h0.5V19z M285.5,18.6c0.9,0,1.2-1,1.2-1.7c0-0.7-0.3-1.7-1.2-1.7c-1,0-1.2,0.9-1.2,1.7
			C284.3,17.7,284.5,18.6,285.5,18.6z"/>
		<path class="st2" d="M291.9,18.2c0.3,0.2,0.7,0.3,1.2,0.3c0.7,0,1.3-0.4,1.3-1.2c0-1.1-2.6-1.2-2.6-2.7c0-0.9,0.8-1.5,1.8-1.5
			c0.3,0,0.7,0,1.1,0.2l-0.1,0.5c-0.3-0.1-0.7-0.2-1-0.2c-0.6,0-1.2,0.2-1.2,1c0,1.1,2.6,1.1,2.6,2.8c0,1.1-1,1.6-1.9,1.6
			c-0.6,0-1-0.1-1.3-0.2L291.9,18.2z"/>
		<path class="st2" d="M296.6,14.8h0.5v0.8l0,0c0.1-0.2,0.4-0.9,1.3-0.9c1.2,0,1.7,0.9,1.7,2.2c0,1.2-0.6,2.2-1.7,2.2
			c-0.6,0-1-0.3-1.3-0.8l0,0v2.4h-0.5V14.8z M298.3,15.2c-0.9,0-1.2,1-1.2,1.7c0,0.7,0.3,1.7,1.2,1.7c1,0,1.2-0.9,1.2-1.7
			C299.5,16.1,299.3,15.2,298.3,15.2z"/>
		<path class="st2" d="M303.4,14.7c1.3,0,1.9,1,1.9,2.2c0,1.1-0.6,2.2-1.9,2.2c-1.3,0-1.9-1-1.9-2.2
			C301.5,15.8,302.1,14.7,303.4,14.7z M303.4,18.6c0.9,0,1.4-0.8,1.4-1.7c0-1-0.5-1.7-1.4-1.7c-0.9,0-1.4,0.8-1.4,1.7
			C302,17.9,302.5,18.6,303.4,18.6z"/>
		<path class="st2" d="M306.9,15.8c0-0.5,0-0.6,0-0.9h0.5v0.8l0,0c0.2-0.5,0.5-0.9,1.1-0.9c0.1,0,0.3,0,0.4,0v0.5
			c-0.1,0-0.2,0-0.4,0c-0.8,0-1,0.9-1,1.7v2H307L306.9,15.8L306.9,15.8z"/>
		<path class="st2" d="M312,15.3h-0.9V18c0,0.4,0.1,0.7,0.6,0.7c0.2,0,0.3,0,0.5-0.1V19c-0.1,0-0.4,0.1-0.6,0.1
			c-0.9,0-0.9-0.6-0.9-1.4v-2.4h-0.8v-0.4h0.8v-1l0.5-0.2v1.2h0.9L312,15.3L312,15.3z"/>
		<path class="st2" d="M318.6,19H318l-2.1-5.7h0.6l1.8,5.1l1.9-5.1h0.6L318.6,19z"/>
		<path class="st2" d="M322.1,13.3h1.3c0.9,0,1.8,0.3,1.8,1.4c0,0.7-0.3,1.2-1,1.3l0,0c0.7,0.1,1.2,0.6,1.2,1.3c0,1.2-1,1.6-2.2,1.6
			h-1.1V13.3L322.1,13.3z M322.6,18.5h0.6c0.8,0,1.6-0.2,1.6-1.1c0-1-0.9-1.1-1.7-1.1h-0.5V18.5z M322.6,15.8h0.6
			c0.6,0,1.4-0.2,1.4-1.1c0-0.8-0.8-0.9-1.2-0.9h-0.8V15.8z"/>
		<path class="st2" d="M327.1,18.2c0.3,0.2,0.7,0.3,1.2,0.3c0.7,0,1.3-0.4,1.3-1.2c0-1.1-2.6-1.2-2.6-2.7c0-0.9,0.8-1.5,1.8-1.5
			c0.3,0,0.7,0,1.1,0.2l-0.1,0.5c-0.3-0.1-0.6-0.2-1-0.2c-0.6,0-1.2,0.2-1.2,1c0,1.1,2.6,1.1,2.6,2.8c0,1.1-1,1.6-1.9,1.6
			c-0.6,0-1-0.1-1.3-0.2L327.1,18.2z"/>
		<path class="st2" d="M194.4,25.5c-0.4-0.2-0.8-0.2-1.2-0.2c-0.4,0-0.9,0.2-0.9,0.8c0,1,2.5,0.6,2.5,2.5c0,1.2-1,1.7-2.1,1.7
			c-0.6,0-0.9-0.1-1.5-0.2l0.1-1c0.4,0.2,0.8,0.3,1.3,0.3c0.4,0,1-0.2,1-0.7c0-1.1-2.5-0.6-2.5-2.5c0-1.3,1-1.7,2-1.7
			c0.5,0,0.9,0.1,1.4,0.2L194.4,25.5z"/>
		<path class="st2" d="M198.6,26.9c-0.2-0.1-0.4-0.2-0.7-0.2c-0.7,0-1.1,0.5-1.1,1.3s0.4,1.4,1.1,1.4c0.3,0,0.6-0.1,0.8-0.2v0.9
			c-0.3,0.1-0.6,0.1-1.1,0.1c-1.4,0-2.1-0.9-2.1-2.2c0-1.2,0.7-2.2,2-2.2c0.4,0,0.8,0,1.1,0.1V26.9z"/>
		<path class="st2" d="M199.6,24.1h1.1v2.5l0,0c0.3-0.4,0.7-0.7,1.3-0.7c1,0,1.4,0.7,1.4,1.6v2.6h-1.1v-2.2c0-0.5,0-1.2-0.7-1.2
			c-0.8,0-1,0.9-1,1.4v2h-1.1L199.6,24.1L199.6,24.1z"/>
		<path class="st2" d="M204.2,26h1.2l0.9,3.1l0,0l0.8-3.1h1.3l0.9,3.1l0,0l0.9-3.1h1l-1.3,4.2h-1.3l-0.9-3.2l0,0l-0.9,3.2h-1.2
			L204.2,26z"/>
		<path class="st2" d="M215.4,29.9c-0.4,0.2-0.8,0.3-1.4,0.3c-1.4,0-2.2-0.8-2.2-2.2c0-1.2,0.6-2.2,1.9-2.2c1.5,0,2,1.1,2,2.5h-2.9
			c0,0.7,0.5,1.1,1.2,1.1c0.5,0,1-0.2,1.4-0.4V29.9z M214.7,27.7c0-0.5-0.3-1-0.9-1c-0.6,0-0.9,0.4-1,1H214.7z"/>
		<path class="st2" d="M216.7,24.2h1.1v1h-1.1V24.2z M216.7,26h1.1v4.2h-1.1V26z"/>
		<path class="st2" d="M218.9,26h3.3v0.9l-2.1,2.4h2.1v0.8h-3.5v-0.9l2.1-2.5h-2V26H218.9z"/>
		<path class="st2" d="M226.6,29.9c-0.4,0.2-0.8,0.3-1.4,0.3c-1.4,0-2.2-0.8-2.2-2.2c0-1.2,0.6-2.2,1.9-2.2c1.5,0,2,1.1,2,2.5H224
			c0,0.7,0.5,1.1,1.2,1.1c0.5,0,1-0.2,1.4-0.4V29.9L226.6,29.9z M225.8,27.7c0-0.5-0.3-1-0.9-1c-0.6,0-0.9,0.4-1,1H225.8z"/>
		<path class="st2" d="M227.9,26h1v1l0,0c0-0.4,0.5-1,1.1-1c0.1,0,0.2,0,0.3,0v1c-0.1-0.1-0.3-0.1-0.5-0.1c-0.9,0-0.9,1.1-0.9,1.7
			v1.5h-1.1V26H227.9z"/>
		<path class="st2" d="M235.2,24.5h1.3l2.2,5.7h-1.3l-0.5-1.3h-2.3l-0.5,1.3H233L235.2,24.5z M235.8,25.6L235.8,25.6L235,28h1.7
			L235.8,25.6z"/>
		<path class="st2" d="M239.5,26h1v1l0,0c0.1-0.4,0.5-1,1.1-1c0.1,0,0.2,0,0.3,0v1c-0.1-0.1-0.3-0.1-0.5-0.1c-0.9,0-0.9,1.1-0.9,1.7
			v1.5h-1.1L239.5,26L239.5,26z"/>
		<path class="st2" d="M242.7,26h1v0.6l0,0c0.3-0.5,0.8-0.7,1.2-0.7c0.6,0,1,0.2,1.2,0.7c0.3-0.5,0.8-0.7,1.3-0.7
			c1,0,1.3,0.7,1.3,1.6v2.6h-1.1v-2.5c0-0.4,0-0.9-0.6-0.9c-0.7,0-0.8,0.9-0.8,1.4v2h-1.1v-2.5c0-0.4,0-0.9-0.6-0.9
			c-0.7,0-0.8,0.9-0.8,1.4v2h-1.1V26H242.7z"/>
		<path class="st2" d="M253.4,29.9c-0.4,0.2-0.8,0.3-1.4,0.3c-1.4,0-2.2-0.8-2.2-2.2c0-1.2,0.6-2.2,1.9-2.2c1.5,0,2,1.1,2,2.5h-2.9
			c0,0.7,0.5,1.1,1.2,1.1c0.5,0,1-0.2,1.4-0.4V29.9z M252.7,27.7c0-0.5-0.3-1-0.9-1c-0.6,0-0.9,0.4-1,1H252.7z"/>
		<path class="st2" d="M258.1,29.9c-0.4,0.2-0.9,0.3-1.4,0.3c-1.4,0-2.2-0.8-2.2-2.2c0-1.2,0.6-2.2,1.9-2.2c1.6,0,2,1.1,2,2.5h-2.9
			c0,0.7,0.5,1.1,1.2,1.1c0.5,0,1-0.2,1.4-0.4V29.9L258.1,29.9z M257.3,27.7c0-0.5-0.3-1-0.9-1c-0.6,0-0.9,0.4-1,1H257.3z"/>
	</g>
	<g>
		<path class="st2" d="M32.3,7.1c0.3,0.2,0.7,0.3,1.2,0.3c0.7,0,1.3-0.4,1.3-1.2c0-1.1-2.6-1.2-2.6-2.7C32.2,2.6,33,2,34,2
			c0.3,0,0.7,0,1.1,0.2L35,2.7c-0.3-0.1-0.6-0.2-1-0.2c-0.6,0-1.2,0.2-1.2,1c0,1.1,2.6,1.1,2.6,2.8c0,1.1-1,1.6-1.9,1.6
			c-0.6,0-1-0.1-1.3-0.2L32.3,7.1z"/>
		<path class="st2" d="M39.7,4.2C39.5,4.1,39.1,4,38.8,4c-1,0-1.6,0.7-1.6,1.7c0,0.9,0.6,1.7,1.5,1.7c0.3,0,0.6-0.1,0.9-0.2v0.5
			c-0.3,0.1-0.7,0.1-1.1,0.1c-1.3,0-2-1-2-2.2c0-1.3,0.8-2.2,2-2.2c0.5,0,0.9,0.1,1,0.2L39.7,4.2z"/>
		<path class="st2" d="M41.3,1.7h0.5v2.6l0,0c0.2-0.5,0.7-0.8,1.3-0.8c1.1,0,1.4,0.7,1.4,1.8v2.5H44V5.3C44,4.6,43.8,4,43,4
			c-0.9,0-1.2,0.9-1.2,1.6v2.2h-0.5V1.7z"/>
		<path class="st2" d="M50.7,7.8H50l-1.1-3.6l0,0l-1.1,3.6h-0.6l-1.3-4.1h0.6l1.1,3.6l0,0l1.2-3.6h0.6l1.1,3.6l0,0l1.1-3.6H52
			L50.7,7.8z"/>
		<path class="st2" d="M56.1,7.7c-0.4,0.1-0.8,0.2-1.2,0.2C53.5,7.9,53,7,53,5.7c0-1.3,0.7-2.2,1.7-2.2c1.2,0,1.6,0.9,1.6,2.1v0.3
			h-2.8c0,0.9,0.5,1.6,1.4,1.6c0.4,0,0.9-0.2,1.2-0.3V7.7z M55.9,5.4c0-0.7-0.3-1.4-1.1-1.4c-0.8,0-1.2,0.8-1.2,1.4H55.9z"/>
		<path class="st2" d="M58.5,2.5H58V1.9h0.5V2.5z M58,3.6h0.5v4.1H58V3.6z"/>
		<path class="st2" d="M60.1,7.4l2.5-3.3h-2.4V3.6h3V4l-2.5,3.3h2.5v0.4h-3.1V7.4z"/>
		<path class="st2" d="M67.5,7.7c-0.4,0.1-0.8,0.2-1.2,0.2c-1.4,0-1.9-0.9-1.9-2.2c0-1.3,0.7-2.2,1.7-2.2c1.2,0,1.6,0.9,1.6,2.1v0.3
			h-2.8c0,0.9,0.5,1.6,1.4,1.6c0.4,0,0.9-0.2,1.2-0.3V7.7z M67.2,5.4c0-0.7-0.3-1.4-1.1-1.4c-0.8,0-1.2,0.8-1.2,1.4H67.2z"/>
		<path class="st2" d="M69.4,4.6c0-0.5,0-0.6,0-0.9h0.5v0.8l0,0C70.1,4,70.4,3.6,71,3.6c0.1,0,0.3,0,0.4,0v0.5c-0.1,0-0.2,0-0.4,0
			c-0.8,0-1,0.9-1,1.7v2h-0.5V4.6H69.4z"/>
		<path class="st2" d="M73.2,2.5h-0.5V1.9h0.5V2.5z M72.7,3.6h0.5v4.1h-0.5V3.6z"/>
		<path class="st2" d="M74.8,7.2c0.3,0.2,0.7,0.3,1.1,0.3c0.5,0,0.9-0.3,0.9-0.7c0-1-2-0.8-2-2c0-0.8,0.7-1.1,1.3-1.1
			c0.2,0,0.7,0,1,0.2v0.4C76.9,4.1,76.5,4,76.2,4c-0.5,0-0.9,0.2-0.9,0.7c0,0.8,2,0.7,2,2c0,0.9-0.8,1.2-1.4,1.2
			c-0.4,0-0.8,0-1.2-0.2L74.8,7.2z"/>
		<path class="st2" d="M81.6,4.2C81.3,4.1,81,4,80.7,4c-1,0-1.6,0.7-1.6,1.7c0,0.9,0.6,1.7,1.5,1.7c0.3,0,0.6-0.1,0.9-0.2v0.5
			c-0.3,0.1-0.7,0.1-1.1,0.1c-1.3,0-2-1-2-2.2c0-1.3,0.8-2.2,2-2.2c0.5,0,0.9,0.1,1,0.2L81.6,4.2z"/>
		<path class="st2" d="M83.2,1.7h0.5v2.6l0,0c0.2-0.5,0.7-0.8,1.3-0.8c1.1,0,1.4,0.7,1.4,1.8v2.5h-0.5V5.3c0-0.7-0.1-1.3-1-1.3
			s-1.2,0.9-1.2,1.6v2.2h-0.5V1.7L83.2,1.7z"/>
		<path class="st2" d="M91.1,7.7c-0.4,0.1-0.8,0.2-1.2,0.2C88.5,7.9,88,7,88,5.7c0-1.3,0.7-2.2,1.7-2.2c1.2,0,1.6,0.9,1.6,2.1v0.3
			h-2.8c0,0.9,0.5,1.6,1.4,1.6c0.4,0,0.9-0.2,1.2-0.3V7.7L91.1,7.7z M90.8,5.4c0-0.7-0.3-1.4-1.1-1.4c-0.8,0-1.2,0.8-1.2,1.4H90.8z"
			/>
		<path class="st2" d="M95.9,2.1h2.8v0.5h-2.2v2h2.1v0.5h-2.1v2.2h2.3v0.5h-2.9V2.1L95.9,2.1z"/>
		<path class="st2" d="M101.1,2.5h-0.5V1.9h0.5V2.5z M100.6,3.6h0.5v4.1h-0.5V3.6z"/>
		<path class="st2" d="M106.3,7.8h-0.5V7.1l0,0c-0.3,0.5-0.7,0.8-1.3,0.8c-1.1,0-1.7-0.9-1.7-2.2c0-1.3,0.5-2.2,1.7-2.2
			c0.8,0,1.2,0.6,1.3,0.8l0,0V1.7h0.5V7.8z M104.5,7.4c0.9,0,1.2-1,1.2-1.7c0-0.7-0.3-1.7-1.2-1.7c-1,0-1.2,0.9-1.2,1.7
			C103.3,6.5,103.6,7.4,104.5,7.4z"/>
		<path class="st2" d="M111.4,7.4c0,1.2-0.5,2.1-1.9,2.1c-0.5,0-1-0.2-1.2-0.2V8.8c0.3,0.2,0.8,0.3,1.2,0.3c1.3,0,1.4-1,1.4-2.1l0,0
			c-0.3,0.6-0.7,0.8-1.3,0.8c-1.3,0-1.7-1.2-1.7-2.1c0-1.3,0.5-2.2,1.7-2.2c0.6,0,0.9,0.1,1.3,0.6l0,0V3.6h0.5V7.4z M109.6,7.3
			c0.9,0,1.3-0.9,1.3-1.6c0-1-0.3-1.7-1.2-1.7c-1,0-1.2,0.9-1.2,1.7C108.4,6.5,108.8,7.3,109.6,7.3z"/>
		<path class="st2" d="M116,7.7c-0.4,0.1-0.8,0.2-1.2,0.2c-1.4,0-1.9-0.9-1.9-2.2c0-1.3,0.7-2.2,1.7-2.2c1.2,0,1.6,0.9,1.6,2.1v0.3
			h-2.8c0,0.9,0.5,1.6,1.4,1.6c0.4,0,0.9-0.2,1.2-0.3V7.7z M115.8,5.4c0-0.7-0.3-1.4-1.1-1.4c-0.8,0-1.2,0.8-1.2,1.4H115.8z"/>
		<path class="st2" d="M118,4.6c0-0.3,0-0.6,0-1h0.5v0.7l0,0c0.2-0.4,0.5-0.8,1.3-0.8c1,0,1.4,0.7,1.4,1.6v2.6h-0.5V5.3
			c0-0.8-0.3-1.3-1-1.3c-0.9,0-1.2,0.8-1.2,1.5v2.3H118V4.6z"/>
		<path class="st2" d="M124.7,3.5c1.3,0,1.9,1,1.9,2.2c0,1.1-0.6,2.2-1.9,2.2c-1.3,0-1.9-1-1.9-2.2C122.8,4.6,123.4,3.5,124.7,3.5z
			 M124.7,7.4c0.9,0,1.4-0.8,1.4-1.7c0-0.9-0.5-1.7-1.4-1.7c-0.9,0-1.4,0.8-1.4,1.7C123.3,6.6,123.8,7.4,124.7,7.4z"/>
		<path class="st2" d="M127.9,7.2c0.3,0.2,0.7,0.3,1.1,0.3c0.5,0,0.9-0.3,0.9-0.7c0-1-2-0.8-2-2c0-0.8,0.7-1.1,1.3-1.1
			c0.2,0,0.7,0,1,0.2v0.4C130,4.1,129.6,4,129.3,4c-0.5,0-0.9,0.2-0.9,0.7c0,0.8,2,0.7,2,2c0,0.9-0.8,1.2-1.4,1.2
			c-0.4,0-0.8,0-1.2-0.2L127.9,7.2z"/>
		<path class="st2" d="M131.7,7.2c0.3,0.2,0.7,0.3,1.1,0.3c0.5,0,0.9-0.3,0.9-0.7c0-1-2-0.8-2-2c0-0.8,0.7-1.1,1.3-1.1
			c0.2,0,0.7,0,1,0.2v0.4c-0.3-0.1-0.6-0.2-0.9-0.2c-0.5,0-0.9,0.2-0.9,0.7c0,0.8,2,0.7,2,2c0,0.9-0.8,1.2-1.4,1.2
			c-0.4,0-0.8,0-1.2-0.2L131.7,7.2z"/>
		<path class="st2" d="M138.6,7.7c-0.4,0.1-0.8,0.2-1.2,0.2c-1.4,0-1.9-0.9-1.9-2.2c0-1.3,0.7-2.2,1.7-2.2c1.2,0,1.6,0.9,1.6,2.1
			v0.3H136c0,0.9,0.5,1.6,1.4,1.6c0.4,0,0.9-0.2,1.2-0.3V7.7z M138.3,5.4c0-0.7-0.3-1.4-1.1-1.4c-0.8,0-1.2,0.8-1.2,1.4H138.3z"/>
		<path class="st2" d="M140.5,4.6c0-0.3,0-0.6,0-1h0.5v0.7l0,0c0.2-0.4,0.5-0.8,1.3-0.8c1,0,1.4,0.7,1.4,1.6v2.6h-0.5V5.3
			c0-0.8-0.3-1.3-1-1.3c-0.9,0-1.2,0.8-1.2,1.5v2.3h-0.5V4.6z"/>
		<path class="st2" d="M145.3,7.2c0.3,0.2,0.7,0.3,1.1,0.3c0.5,0,0.9-0.3,0.9-0.7c0-1-2-0.8-2-2c0-0.8,0.7-1.1,1.3-1.1
			c0.2,0,0.7,0,1,0.2v0.4C147.4,4.1,147,4,146.7,4c-0.5,0-0.9,0.2-0.9,0.7c0,0.8,2,0.7,2,2c0,0.9-0.8,1.2-1.4,1.2
			c-0.4,0-0.8,0-1.2-0.2L145.3,7.2z"/>
		<path class="st2" d="M152.1,4.2c-0.3-0.1-0.6-0.2-0.9-0.2c-1,0-1.6,0.7-1.6,1.7c0,0.9,0.6,1.7,1.5,1.7c0.3,0,0.6-0.1,0.9-0.2v0.5
			c-0.3,0.1-0.7,0.1-1.1,0.1c-1.3,0-2-1-2-2.2c0-1.3,0.8-2.2,2-2.2c0.5,0,0.9,0.1,1,0.2L152.1,4.2z"/>
		<path class="st2" d="M153.6,1.7h0.5v2.6l0,0c0.2-0.5,0.7-0.8,1.3-0.8c1.1,0,1.4,0.7,1.4,1.8v2.5h-0.5V5.3c0-0.7-0.1-1.3-1-1.3
			c-0.9,0-1.2,0.9-1.2,1.6v2.2h-0.5V1.7z"/>
		<path class="st2" d="M161.2,7.1L161.2,7.1c-0.2,0.5-0.8,0.8-1.3,0.8c-1.2,0-1.4-0.8-1.4-1.2c0-1.4,1.5-1.5,2.5-1.5h0.1V5.1
			c0-0.7-0.3-1.1-0.9-1.1c-0.4,0-0.8,0.1-1.2,0.3V3.8c0.3-0.2,0.9-0.3,1.2-0.3c1,0,1.5,0.5,1.5,1.5v1.8c0,0.3,0,0.6,0,0.9h-0.5V7.1
			L161.2,7.1z M161.1,5.7H161c-0.9,0-1.9,0.1-1.9,1c0,0.5,0.4,0.7,0.9,0.7c1.2,0,1.2-1,1.2-1.5V5.7H161.1z"/>
		<path class="st2" d="M163.8,4.1H163V3.6h0.8V3.3c0-0.9,0-1.7,1.1-1.7c0.2,0,0.4,0,0.5,0.1v0.4c-0.1,0-0.3-0.1-0.4-0.1
			c-0.7,0-0.6,0.8-0.6,1.2v0.4h0.9V4h-0.9v3.7h-0.5V4.1H163.8z"/>
		<path class="st2" d="M168.6,4.1h-0.9v2.7c0,0.4,0.1,0.7,0.6,0.7c0.2,0,0.3,0,0.5-0.1v0.4c-0.1,0-0.4,0.1-0.6,0.1
			c-0.9,0-0.9-0.6-0.9-1.4V4.1h-0.8V3.6h0.8v-1l0.5-0.2v1.2h0.9v0.5H168.6z"/>
		<path class="st2" d="M36.3,13.9c-0.4-0.2-0.9-0.2-1.3-0.2c-1.5,0-2.3,1-2.3,2.4s0.8,2.4,2.3,2.4c0.4,0,0.9,0,1.3-0.2v0.5
			C36,19,35.4,19.1,35,19.1c-1.8,0-2.9-1.2-2.9-2.9c0-1.7,1.1-2.9,2.9-2.9c0.3,0,1,0.1,1.3,0.2V13.9z"/>
		<path class="st2" d="M40,14.7c1.3,0,1.9,1,1.9,2.2c0,1.1-0.6,2.2-1.9,2.2s-1.9-1-1.9-2.2C38.1,15.8,38.7,14.7,40,14.7z M40,18.6
			c0.9,0,1.4-0.8,1.4-1.7s-0.5-1.7-1.4-1.7s-1.4,0.8-1.4,1.7S39.1,18.6,40,18.6z"/>
		<path class="st2" d="M43.5,15.8c0-0.3,0-0.6,0-1H44v0.7l0,0c0.2-0.4,0.5-0.8,1.3-0.8c1,0,1.4,0.7,1.4,1.6V19h-0.5v-2.5
			c0-0.8-0.3-1.3-1-1.3c-0.9,0-1.2,0.8-1.2,1.5V19h-0.5V15.8z"/>
		<path class="st2" d="M49,15.3h-0.8v-0.4H49v-0.3c0-0.9,0-1.7,1.1-1.7c0.2,0,0.4,0,0.5,0.1v0.4c-0.1-0.1-0.3-0.1-0.4-0.1
			c-0.7,0-0.6,0.8-0.6,1.2v0.4h0.9v0.4h-0.9V19H49V15.3z"/>
		<path class="st2" d="M54.8,18.8C54.4,18.9,54,19,53.6,19c-1.4,0-1.9-0.9-1.9-2.2c0-1.3,0.7-2.2,1.7-2.2c1.2,0,1.6,0.9,1.6,2.1V17
			h-2.8c0,0.9,0.5,1.6,1.4,1.6c0.4,0,0.9-0.2,1.2-0.3V18.8z M54.5,16.6c0-0.7-0.3-1.4-1.1-1.4c-0.8,0-1.2,0.8-1.2,1.4H54.5z
			 M53.7,13.2h0.6l-1,1.2h-0.4L53.7,13.2z"/>
		<path class="st2" d="M60,19h-0.5v-0.7l0,0c-0.3,0.5-0.7,0.8-1.3,0.8c-1.1,0-1.7-0.9-1.7-2.2c0-1.3,0.5-2.2,1.7-2.2
			c0.8,0,1.2,0.6,1.3,0.8l0,0v-2.6H60V19z M58.2,18.6c0.9,0,1.2-1,1.2-1.7c0-0.8-0.3-1.7-1.2-1.7c-1,0-1.2,0.9-1.2,1.7
			C57,17.7,57.3,18.6,58.2,18.6z"/>
		<path class="st2" d="M64.6,18.8c-0.4,0.1-0.8,0.2-1.2,0.2c-1.4,0-1.9-0.9-1.9-2.2c0-1.3,0.7-2.2,1.7-2.2c1.2,0,1.6,0.9,1.6,2.1V17
			H62c0,0.9,0.5,1.6,1.4,1.6c0.4,0,0.9-0.2,1.2-0.3V18.8z M64.3,16.6c0-0.7-0.3-1.4-1.1-1.4c-0.8,0-1.2,0.8-1.2,1.4H64.3z
			 M63.5,13.2h0.6l-1,1.2h-0.4L63.5,13.2z"/>
		<path class="st2" d="M66.5,15.8c0-0.5,0-0.6,0-0.9H67v0.8l0,0c0.2-0.5,0.5-0.9,1.1-0.9c0.1,0,0.3,0,0.4,0v0.5c-0.1,0-0.2,0-0.4,0
			c-0.8,0-1,0.9-1,1.7v2h-0.5v-3.2H66.5z"/>
		<path class="st2" d="M72.2,18.3L72.2,18.3c-0.2,0.5-0.8,0.8-1.3,0.8c-1.2,0-1.4-0.8-1.4-1.2c0-1.4,1.5-1.5,2.5-1.5h0.1v-0.2
			c0-0.7-0.3-1.1-0.9-1.1c-0.4,0-0.8,0.1-1.2,0.3V15c0.3-0.2,0.9-0.3,1.2-0.3c1,0,1.5,0.5,1.5,1.5V18c0,0.3,0,0.6,0,0.9h-0.5V18.3
			L72.2,18.3z M72.2,16.9H72c-0.9,0-1.9,0.1-1.9,1c0,0.5,0.4,0.7,0.9,0.7c1.2,0,1.2-1,1.2-1.5V16.9z"/>
		<path class="st2" d="M76.3,15.3h-0.9V18c0,0.4,0.1,0.7,0.6,0.7c0.2,0,0.3,0,0.5-0.1V19c-0.1,0-0.4,0.1-0.6,0.1
			c-0.9,0-0.9-0.6-0.9-1.4v-2.4h-0.8v-0.4H75v-1l0.5-0.2v1.2h0.9v0.4H76.3z"/>
		<path class="st2" d="M78.4,13.7h-0.5V13h0.5V13.7z M77.9,14.8h0.5V19h-0.5V14.8z"/>
		<path class="st2" d="M81.9,14.7c1.3,0,1.9,1,1.9,2.2c0,1.1-0.6,2.2-1.9,2.2c-1.3,0-1.9-1-1.9-2.2C80,15.8,80.6,14.7,81.9,14.7z
			 M81.9,18.6c0.9,0,1.4-0.8,1.4-1.7s-0.5-1.7-1.4-1.7s-1.4,0.8-1.4,1.7S81,18.6,81.9,18.6z"/>
		<path class="st2" d="M85.4,15.8c0-0.3,0-0.6,0-1h0.5v0.7l0,0c0.2-0.4,0.5-0.8,1.3-0.8c1,0,1.4,0.7,1.4,1.6V19h-0.5v-2.5
			c0-0.8-0.3-1.3-1-1.3c-0.9,0-1.2,0.8-1.2,1.5V19h-0.5V15.8L85.4,15.8z"/>
		<path class="st2" d="M93.1,18.4c0.3,0.2,0.7,0.3,1.1,0.3c0.5,0,0.9-0.3,0.9-0.7c0-1-2-0.8-2-2c0-0.8,0.7-1.1,1.3-1.1
			c0.2,0,0.7,0,1,0.2v0.4c-0.3-0.1-0.6-0.2-0.9-0.2c-0.5,0-0.9,0.2-0.9,0.7c0,0.8,2,0.7,2,2c0,0.9-0.8,1.2-1.4,1.2
			c-0.4,0-0.8,0-1.2-0.2L93.1,18.4z"/>
		<path class="st2" d="M100.5,18c0,0.3,0,0.6,0,1H100v-0.7l0,0c-0.2,0.4-0.5,0.8-1.3,0.8c-1,0-1.4-0.7-1.4-1.6v-2.6h0.5v2.5
			c0,0.8,0.3,1.3,1,1.3c0.9,0,1.2-0.8,1.2-1.5v-2.3h0.5V18z"/>
		<path class="st2" d="M102.9,13.7h-0.5V13h0.5V13.7z M102.4,14.8h0.5V19h-0.5V14.8z"/>
		<path class="st2" d="M104.5,18.4c0.3,0.2,0.7,0.3,1.1,0.3c0.5,0,0.9-0.3,0.9-0.7c0-1-2-0.8-2-2c0-0.8,0.7-1.1,1.3-1.1
			c0.2,0,0.7,0,1,0.2v0.4c-0.3-0.1-0.6-0.2-0.9-0.2c-0.5,0-0.9,0.2-0.9,0.7c0,0.8,2,0.7,2,2c0,0.9-0.8,1.2-1.4,1.2
			c-0.4,0-0.8,0-1.2-0.2L104.5,18.4z"/>
		<path class="st2" d="M108.3,18.4c0.3,0.2,0.7,0.3,1.1,0.3c0.5,0,0.9-0.3,0.9-0.7c0-1-2-0.8-2-2c0-0.8,0.7-1.1,1.3-1.1
			c0.2,0,0.7,0,1,0.2v0.4c-0.3-0.1-0.6-0.2-0.9-0.2c-0.5,0-0.9,0.2-0.9,0.7c0,0.8,2,0.7,2,2c0,0.9-0.8,1.2-1.4,1.2
			c-0.4,0-0.8,0-1.2-0.2L108.3,18.4z"/>
		<path class="st2" d="M115.2,18.8c-0.4,0.1-0.8,0.2-1.2,0.2c-1.4,0-1.9-0.9-1.9-2.2c0-1.3,0.7-2.2,1.7-2.2c1.2,0,1.6,0.9,1.6,2.1
			V17h-2.8c0,0.9,0.5,1.6,1.4,1.6c0.4,0,0.9-0.2,1.2-0.3V18.8L115.2,18.8z M114.9,16.6c0-0.7-0.3-1.4-1.1-1.4
			c-0.8,0-1.2,0.8-1.2,1.4H114.9z"/>
		<path class="st2" d="M36.3,25.1c-0.4-0.2-0.9-0.2-1.3-0.2c-1.5,0-2.3,1-2.3,2.4c0,1.4,0.8,2.4,2.3,2.4c0.4,0,0.9,0,1.3-0.2V30
			c-0.3,0.2-0.9,0.2-1.3,0.2c-1.8,0-2.9-1.2-2.9-2.9s1.1-2.9,2.9-2.9c0.3,0,1,0.1,1.3,0.2V25.1z"/>
		<path class="st2" d="M40,25.9c1.3,0,1.9,1,1.9,2.2c0,1.1-0.6,2.2-1.9,2.2s-1.9-1-1.9-2.2C38.1,27,38.7,25.9,40,25.9z M40,29.8
			c0.9,0,1.4-0.8,1.4-1.7c0-1-0.5-1.7-1.4-1.7s-1.4,0.8-1.4,1.7C38.6,29,39.1,29.8,40,29.8z"/>
		<path class="st2" d="M43.5,27c0-0.3,0-0.6,0-1H44v0.7l0,0c0.2-0.4,0.5-0.8,1.3-0.8c1,0,1.4,0.7,1.4,1.6v2.6h-0.5v-2.5
			c0-0.8-0.3-1.3-1-1.3c-0.9,0-1.2,0.8-1.2,1.5v2.3h-0.5V27z"/>
		<path class="st2" d="M49,26.4h-0.8V26H49v-0.3c0-0.9,0-1.7,1.1-1.7c0.2,0,0.4,0,0.5,0.1v0.4c-0.1-0.1-0.3-0.1-0.4-0.1
			c-0.7,0-0.6,0.8-0.6,1.2V26h0.9v0.4h-0.9v3.7H49V26.4z"/>
		<path class="st2" d="M54.8,30c-0.4,0.1-0.8,0.2-1.2,0.2c-1.4,0-1.9-0.9-1.9-2.2s0.7-2.2,1.7-2.2c1.2,0,1.6,0.9,1.6,2.1v0.3h-2.8
			c0,0.9,0.5,1.6,1.4,1.6c0.4,0,0.9-0.2,1.2-0.3V30z M54.5,27.8c0-0.7-0.3-1.4-1.1-1.4c-0.8,0-1.2,0.8-1.2,1.4H54.5z"/>
		<path class="st2" d="M60,30.1h-0.5v-0.7l0,0c-0.3,0.5-0.7,0.8-1.3,0.8c-1.1,0-1.7-0.9-1.7-2.2s0.5-2.2,1.7-2.2
			c0.8,0,1.2,0.6,1.3,0.8l0,0V24H60V30.1z M58.2,29.8c0.9,0,1.2-1,1.2-1.7c0-0.8-0.3-1.7-1.2-1.7c-1,0-1.2,0.9-1.2,1.7
			C57,28.9,57.3,29.8,58.2,29.8z"/>
		<path class="st2" d="M64.6,30c-0.4,0.1-0.8,0.2-1.2,0.2c-1.4,0-1.9-0.9-1.9-2.2s0.7-2.2,1.7-2.2c1.2,0,1.6,0.9,1.6,2.1v0.3H62
			c0,0.9,0.5,1.6,1.4,1.6c0.4,0,0.9-0.2,1.2-0.3V30z M64.3,27.8c0-0.7-0.3-1.4-1.1-1.4c-0.8,0-1.2,0.8-1.2,1.4H64.3z"/>
		<path class="st2" d="M66.5,26.9c0-0.5,0-0.6,0-0.9H67v0.8l0,0c0.2-0.5,0.5-0.9,1.1-0.9c0.1,0,0.3,0,0.4,0v0.5c-0.1,0-0.2,0-0.4,0
			c-0.8,0-1,0.9-1,1.7v2h-0.5v-3.2H66.5z"/>
		<path class="st2" d="M72.2,29.5L72.2,29.5c-0.2,0.5-0.8,0.8-1.3,0.8c-1.2,0-1.4-0.8-1.4-1.2c0-1.4,1.5-1.5,2.5-1.5h0.1v-0.2
			c0-0.7-0.3-1.1-0.9-1.1c-0.4,0-0.8,0.1-1.2,0.3v-0.5c0.3-0.2,0.9-0.3,1.2-0.3c1,0,1.5,0.5,1.5,1.5v1.8c0,0.3,0,0.6,0,0.9h-0.5
			V29.5L72.2,29.5z M72.2,28.1H72c-0.9,0-1.9,0.1-1.9,1c0,0.5,0.4,0.7,0.9,0.7c1.2,0,1.2-1,1.2-1.5V28.1z"/>
		<path class="st2" d="M74.1,29.7l2.5-3.3h-2.4V26h3v0.4l-2.5,3.3h2.5v0.4h-3.1V29.7z"/>
		<path class="st2" d="M79.3,24.9h-0.5v-0.7h0.5V24.9z M78.8,26h0.5v4.1h-0.5V26z"/>
		<path class="st2" d="M82.8,25.9c1.3,0,1.9,1,1.9,2.2c0,1.1-0.6,2.2-1.9,2.2c-1.3,0-1.9-1-1.9-2.2C80.9,27,81.5,25.9,82.8,25.9z
			 M82.8,29.8c0.9,0,1.4-0.8,1.4-1.7c0-1-0.5-1.7-1.4-1.7c-0.9,0-1.4,0.8-1.4,1.7C81.4,29,81.9,29.8,82.8,29.8z"/>
		<path class="st2" d="M86.3,27c0-0.3,0-0.6,0-1h0.5v0.7l0,0c0.2-0.4,0.5-0.8,1.3-0.8c1,0,1.4,0.7,1.4,1.6v2.6H89v-2.5
			c0-0.8-0.3-1.3-1-1.3c-0.9,0-1.2,0.8-1.2,1.5v2.3h-0.5V27z"/>
		<path class="st2" d="M94.2,30c-0.4,0.1-0.8,0.2-1.2,0.2c-1.4,0-1.9-0.9-1.9-2.2s0.7-2.2,1.7-2.2c1.2,0,1.6,0.9,1.6,2.1v0.3h-2.8
			c0,0.9,0.5,1.6,1.4,1.6c0.4,0,0.9-0.2,1.2-0.3V30L94.2,30z M94,27.8c0-0.7-0.3-1.4-1.1-1.4c-0.8,0-1.2,0.8-1.2,1.4H94z"/>
		<path class="st2" d="M98.9,29.4c0.3,0.2,0.7,0.3,1.2,0.3c0.7,0,1.3-0.4,1.3-1.2c0-1.1-2.6-1.2-2.6-2.7c0-0.9,0.8-1.5,1.8-1.5
			c0.3,0,0.7,0,1.1,0.2l-0.1,0.5c-0.3-0.1-0.6-0.2-1-0.2c-0.6,0-1.2,0.2-1.2,1c0,1.1,2.6,1.1,2.6,2.8c0,1.1-1,1.6-1.9,1.6
			c-0.6,0-1-0.1-1.3-0.2L98.9,29.4z"/>
		<path class="st2" d="M105.2,30.1h-0.6l-1.4-4.1h0.6l1.1,3.6l0,0l1.2-3.6h0.5L105.2,30.1z"/>
		<path class="st2" d="M108.5,24.9H108v-0.7h0.5V24.9z M108,26h0.5v4.1H108V26z"/>
		<path class="st2" d="M110,29.7l2.5-3.3h-2.4V26h3v0.4l-2.5,3.3h2.5v0.4H110V29.7z"/>
		<path class="st2" d="M114.2,29.7l2.5-3.3h-2.4V26h3v0.4l-2.5,3.3h2.5v0.4h-3.1V29.7z"/>
		<path class="st2" d="M121.6,30c-0.4,0.1-0.8,0.2-1.2,0.2c-1.4,0-1.9-0.9-1.9-2.2s0.7-2.2,1.7-2.2c1.2,0,1.6,0.9,1.6,2.1v0.3H119
			c0,0.9,0.5,1.6,1.4,1.6c0.4,0,0.9-0.2,1.2-0.3V30L121.6,30z M121.4,27.8c0-0.7-0.3-1.4-1.1-1.4c-0.8,0-1.2,0.8-1.2,1.4H121.4z"/>
		<path class="st2" d="M123.5,26.9c0-0.5,0-0.6,0-0.9h0.5v0.8l0,0c0.2-0.5,0.5-0.9,1.1-0.9c0.1,0,0.3,0,0.4,0v0.5
			c-0.1,0-0.2,0-0.4,0c-0.8,0-1,0.9-1,1.7v2h-0.5v-3.2H123.5z"/>
		<path class="st2" d="M129.2,29.5L129.2,29.5c-0.2,0.5-0.8,0.8-1.3,0.8c-1.2,0-1.4-0.8-1.4-1.2c0-1.4,1.5-1.5,2.5-1.5h0.1v-0.2
			c0-0.7-0.3-1.1-0.9-1.1c-0.4,0-0.8,0.1-1.2,0.3v-0.5c0.3-0.2,0.9-0.3,1.2-0.3c1,0,1.5,0.5,1.5,1.5v1.8c0,0.3,0,0.6,0,0.9h-0.5
			V29.5L129.2,29.5z M129.2,28.1h-0.1c-0.9,0-1.9,0.1-1.9,1c0,0.5,0.4,0.7,0.9,0.7c1.2,0,1.2-1,1.2-1.5L129.2,28.1L129.2,28.1z"/>
		<path class="st2" d="M36.3,36.3c-0.4-0.2-0.9-0.2-1.3-0.2c-1.5,0-2.3,1-2.3,2.4s0.8,2.4,2.3,2.4c0.4,0,0.9,0,1.3-0.2v0.5
			c-0.3,0.2-0.9,0.2-1.3,0.2c-1.8,0-2.9-1.2-2.9-2.9s1.1-2.9,2.9-2.9c0.3,0,1,0.1,1.3,0.2V36.3z"/>
		<path class="st2" d="M40,37.1c1.3,0,1.9,1,1.9,2.2s-0.6,2.2-1.9,2.2s-1.9-1-1.9-2.2S38.7,37.1,40,37.1z M40,41
			c0.9,0,1.4-0.8,1.4-1.7c0-1-0.5-1.7-1.4-1.7s-1.4,0.8-1.4,1.7C38.6,40.2,39.1,41,40,41z"/>
		<path class="st2" d="M43.5,38.2c0-0.3,0-0.6,0-1H44v0.7l0,0c0.2-0.4,0.5-0.8,1.3-0.8c1,0,1.4,0.7,1.4,1.6v2.6h-0.5v-2.5
			c0-0.8-0.3-1.3-1-1.3c-0.9,0-1.2,0.8-1.2,1.5v2.3h-0.5V38.2z"/>
		<path class="st2" d="M49,37.6h-0.8v-0.4H49v-0.3c0-0.9,0-1.7,1.1-1.7c0.2,0,0.4,0,0.5,0.1v0.4c-0.1-0.1-0.3-0.1-0.4-0.1
			c-0.7,0-0.6,0.8-0.6,1.2v0.4h0.9v0.4h-0.9v3.7H49V37.6z"/>
		<path class="st2" d="M54.8,41.2c-0.4,0.1-0.8,0.2-1.2,0.2c-1.4,0-1.9-0.9-1.9-2.2s0.7-2.2,1.7-2.2c1.2,0,1.6,0.9,1.6,2.1v0.3h-2.8
			c0,0.9,0.5,1.6,1.4,1.6c0.4,0,0.9-0.2,1.2-0.3V41.2z M54.5,39c0-0.7-0.3-1.4-1.1-1.4c-0.8,0-1.2,0.8-1.2,1.4H54.5z"/>
		<path class="st2" d="M60,41.3h-0.5v-0.7l0,0c-0.3,0.5-0.7,0.8-1.3,0.8c-1.1,0-1.7-0.9-1.7-2.2S57,37,58.2,37
			c0.8,0,1.2,0.6,1.3,0.8l0,0v-2.6H60V41.3z M58.2,41c0.9,0,1.2-1,1.2-1.7c0-0.8-0.3-1.7-1.2-1.7c-1,0-1.2,0.9-1.2,1.7
			S57.3,41,58.2,41z"/>
		<path class="st2" d="M64.6,41.2c-0.4,0.1-0.8,0.2-1.2,0.2c-1.4,0-1.9-0.9-1.9-2.2s0.7-2.2,1.7-2.2c1.2,0,1.6,0.9,1.6,2.1v0.3H62
			c0,0.9,0.5,1.6,1.4,1.6c0.4,0,0.9-0.2,1.2-0.3V41.2z M64.3,39c0-0.7-0.3-1.4-1.1-1.4c-0.8,0-1.2,0.8-1.2,1.4H64.3z"/>
		<path class="st2" d="M66.5,38.1c0-0.5,0-0.6,0-0.9H67V38l0,0c0.2-0.5,0.5-0.9,1.1-0.9c0.1,0,0.3,0,0.4,0v0.5c-0.1,0-0.2,0-0.4,0
			c-0.8,0-1,0.9-1,1.7v2h-0.5v-3.2H66.5z"/>
		<path class="st2" d="M72.2,40.7L72.2,40.7c-0.2,0.5-0.8,0.8-1.3,0.8c-1.2,0-1.4-0.8-1.4-1.2c0-1.4,1.5-1.5,2.5-1.5h0.1v-0.2
			c0-0.7-0.3-1.1-0.9-1.1c-0.4,0-0.8,0.1-1.2,0.3v-0.5c0.3-0.2,0.9-0.3,1.2-0.3c1,0,1.5,0.5,1.5,1.5v1.8c0,0.3,0,0.6,0,0.9h-0.5
			V40.7L72.2,40.7z M72.2,39.2H72c-0.9,0-1.9,0.1-1.9,1c0,0.5,0.4,0.7,0.9,0.7c1.2,0,1.2-1,1.2-1.5V39.2z"/>
		<path class="st2" d="M74.1,40.9l2.5-3.3h-2.4v-0.4h3v0.4l-2.5,3.3h2.5v0.4h-3.1V40.9z"/>
		<path class="st2" d="M79.3,36.1h-0.5v-0.7h0.5V36.1z M78.8,37.2h0.5v4.1h-0.5V37.2z"/>
		<path class="st2" d="M84.4,40.4c0,0.3,0,0.6,0,1H84v-0.7l0,0c-0.2,0.4-0.5,0.8-1.3,0.8c-1,0-1.4-0.7-1.4-1.6v-2.6h0.5v2.5
			c0,0.8,0.3,1.3,1,1.3c0.9,0,1.2-0.8,1.2-1.5v-2.3h0.5v3.1H84.4z"/>
		<path class="st2" d="M86.3,38.2c0-0.3,0-0.6,0-1h0.5v0.7l0,0c0.2-0.4,0.5-0.8,1.3-0.8c1,0,1.4,0.7,1.4,1.6v2.6H89v-2.5
			c0-0.8-0.3-1.3-1-1.3c-0.9,0-1.2,0.8-1.2,1.5v2.3h-0.5V38.2z"/>
		<path class="st2" d="M94,40.7c0.3,0.2,0.7,0.3,1.1,0.3c0.5,0,0.9-0.3,0.9-0.7c0-1-2-0.8-2-2c0-0.8,0.7-1.1,1.3-1.1
			c0.2,0,0.7,0,1,0.2v0.4c-0.3-0.1-0.6-0.2-0.9-0.2c-0.5,0-0.9,0.2-0.9,0.7c0,0.8,2,0.7,2,2c0,0.9-0.8,1.2-1.4,1.2
			c-0.4,0-0.8,0-1.2-0.2L94,40.7z"/>
		<path class="st2" d="M99.6,41.3H99l-1.4-4.1h0.6l1.1,3.6l0,0l1.2-3.6h0.5L99.6,41.3z"/>
		<path class="st2" d="M102.9,36.1h-0.5v-0.7h0.5V36.1z M102.4,37.2h0.5v4.1h-0.5V37.2z"/>
		<path class="st2" d="M104.4,40.9l2.5-3.3h-2.4v-0.4h3v0.4l-2.5,3.3h2.5v0.4h-3.1V40.9z"/>
		<path class="st2" d="M109,38.1c0-0.5,0-0.6,0-0.9h0.5V38l0,0c0.2-0.5,0.5-0.9,1.1-0.9c0.1,0,0.3,0,0.4,0v0.5c-0.1,0-0.2,0-0.4,0
			c-0.8,0-1,0.9-1,1.7v2H109V38.1z"/>
		<path class="st2" d="M114.7,40.7L114.7,40.7c-0.2,0.5-0.8,0.8-1.3,0.8c-1.2,0-1.4-0.8-1.4-1.2c0-1.4,1.5-1.5,2.5-1.5h0.1v-0.2
			c0-0.7-0.3-1.1-0.9-1.1c-0.4,0-0.8,0.1-1.2,0.3v-0.5c0.3-0.2,0.9-0.3,1.2-0.3c1,0,1.5,0.5,1.5,1.5v1.8c0,0.3,0,0.6,0,0.9h-0.5
			V40.7L114.7,40.7z M114.7,39.2h-0.1c-0.9,0-1.9,0.1-1.9,1c0,0.5,0.4,0.7,0.9,0.7c1.2,0,1.2-1,1.2-1.5L114.7,39.2L114.7,39.2z"/>
	</g>
	<g>
		<g>
			<path class="st0" d="M23,1.9c0,0-4.3-1.9-11.5-1.9l0,0C4.3,0,0,1.9,0,1.9s-0.4,8.3,1.2,13c2.9,8.3,10.2,10.6,10.2,10.6l0,0l0,0
				c0,0,7.3-2.3,10.2-10.6C23.4,10.2,23,1.9,23,1.9z"/>
		</g>
		<polygon class="st1" points="19.1,9 19.1,13.6 13.8,13.6 13.8,19 9.2,19 9.2,13.6 3.9,13.6 3.9,9 9.2,9 9.2,3.7 13.8,3.7 13.8,9 
					"/>
	</g>
</g>
</svg>
