<?xml version="1.0" encoding="utf-8"?>
<!-- Generator: Adobe Illustrator 16.0.4, SVG Export Plug-In . SVG Version: 6.00 Build 0)  -->
<!DOCTYPE svg PUBLIC "-//W3C//DTD SVG 1.1//EN" "http://www.w3.org/Graphics/SVG/1.1/DTD/svg11.dtd">
<svg version="1.1" id="Ebene_1" xmlns="http://www.w3.org/2000/svg" xmlns:xlink="http://www.w3.org/1999/xlink" x="0px" y="0px"
	 width="381px" height="42px" viewBox="0 0 381 42" enable-background="new 0 0 381 42" xml:space="preserve">
<g>
	<g>
		<path fill="#FFFFFF" d="M191.592,2.125h2.774v0.487h-2.215v2.021h2.103v0.488h-2.103v2.184h2.313v0.487h-2.873V2.125z"/>
		<path fill="#FFFFFF" d="M196.736,2.548h-0.512V1.866h0.512V2.548z M196.225,3.651h0.512v4.141h-0.512V3.651z"/>
		<path fill="#FFFFFF" d="M201.938,7.792h-0.511V7.134h-0.017c-0.276,0.528-0.697,0.755-1.291,0.755
			c-1.136,0-1.704-0.941-1.704-2.168c0-1.258,0.487-2.167,1.704-2.167c0.812,0,1.218,0.594,1.291,0.796h0.017V1.704h0.511V7.792z
			 M200.201,7.451c0.908,0,1.226-0.974,1.226-1.729c0-0.754-0.317-1.729-1.226-1.729c-0.975,0-1.227,0.926-1.227,1.729
			C198.975,6.526,199.227,7.451,200.201,7.451z"/>
		<path fill="#FFFFFF" d="M207.082,7.451c0,1.153-0.52,2.095-1.94,2.095c-0.544,0-1.039-0.154-1.25-0.22l0.041-0.511
			c0.315,0.163,0.771,0.292,1.218,0.292c1.315,0,1.429-0.958,1.429-2.126h-0.017c-0.276,0.601-0.73,0.812-1.259,0.812
			c-1.322,0-1.745-1.152-1.745-2.071c0-1.258,0.486-2.167,1.705-2.167c0.552,0,0.908,0.074,1.291,0.568h0.017V3.651h0.511V7.451z
			 M205.312,7.354c0.925,0,1.259-0.876,1.259-1.632c0-0.998-0.294-1.729-1.228-1.729c-0.973,0-1.225,0.926-1.225,1.729
			C204.119,6.534,204.443,7.354,205.312,7.354z"/>
		<path fill="#FFFFFF" d="M211.723,7.662c-0.357,0.146-0.82,0.227-1.202,0.227c-1.37,0-1.883-0.925-1.883-2.168
			c0-1.265,0.698-2.167,1.745-2.167c1.17,0,1.647,0.942,1.647,2.054v0.26h-2.832c0,0.877,0.472,1.583,1.363,1.583
			c0.373,0,0.918-0.154,1.161-0.308V7.662z M211.471,5.43c0-0.722-0.291-1.437-1.056-1.437c-0.754,0-1.217,0.755-1.217,1.437
			H211.471z"/>
		<path fill="#FFFFFF" d="M213.636,4.626c0-0.316,0-0.641-0.032-0.975h0.494v0.739h0.018c0.171-0.374,0.479-0.836,1.339-0.836
			c1.023,0,1.413,0.682,1.413,1.591v2.646h-0.512V5.275c0-0.779-0.276-1.283-0.981-1.283c-0.934,0-1.228,0.82-1.228,1.51v2.29
			h-0.511V4.626z"/>
		<path fill="#FFFFFF" d="M220.396,3.554c1.339,0,1.933,1.039,1.933,2.167c0,1.129-0.594,2.168-1.933,2.168
			c-1.34,0-1.932-1.039-1.932-2.168C218.464,4.593,219.056,3.554,220.396,3.554z M220.396,7.451c0.894,0,1.372-0.771,1.372-1.729
			c0-0.957-0.479-1.729-1.372-1.729c-0.893,0-1.372,0.772-1.372,1.729C219.023,6.68,219.503,7.451,220.396,7.451z M219.396,2.28
			h0.608v0.682h-0.608V2.28z M220.784,2.28h0.609v0.682h-0.609V2.28z"/>
		<path fill="#FFFFFF" d="M223.608,7.191c0.308,0.154,0.682,0.26,1.079,0.26c0.486,0,0.916-0.268,0.916-0.739
			c0-0.982-1.988-0.828-1.988-2.029c0-0.819,0.666-1.128,1.349-1.128c0.219,0,0.657,0.049,1.022,0.187l-0.049,0.447
			c-0.269-0.123-0.634-0.195-0.918-0.195c-0.526,0-0.892,0.163-0.892,0.689c0,0.772,2.036,0.675,2.036,2.029
			c0,0.877-0.82,1.178-1.445,1.178c-0.396,0-0.794-0.049-1.159-0.194L223.608,7.191z"/>
		<path fill="#FFFFFF" d="M227.396,7.191c0.309,0.154,0.683,0.26,1.079,0.26c0.488,0,0.918-0.268,0.918-0.739
			c0-0.982-1.988-0.828-1.988-2.029c0-0.819,0.665-1.128,1.348-1.128c0.22,0,0.656,0.049,1.021,0.187l-0.048,0.447
			c-0.269-0.123-0.634-0.195-0.917-0.195c-0.528,0-0.894,0.163-0.894,0.689c0,0.772,2.038,0.675,2.038,2.029
			c0,0.877-0.82,1.178-1.445,1.178c-0.398,0-0.795-0.049-1.16-0.194L227.396,7.191z"/>
		<path fill="#FFFFFF" d="M232.014,2.548h-0.512V1.866h0.512V2.548z M231.502,3.651h0.512v4.141h-0.512V3.651z"/>
		<path fill="#FFFFFF" d="M233.621,7.191c0.308,0.154,0.682,0.26,1.079,0.26c0.486,0,0.916-0.268,0.916-0.739
			c0-0.982-1.988-0.828-1.988-2.029c0-0.819,0.666-1.128,1.349-1.128c0.219,0,0.656,0.049,1.022,0.187l-0.049,0.447
			c-0.269-0.123-0.634-0.195-0.918-0.195c-0.526,0-0.892,0.163-0.892,0.689c0,0.772,2.036,0.675,2.036,2.029
			c0,0.877-0.82,1.178-1.445,1.178c-0.397,0-0.794-0.049-1.159-0.194L233.621,7.191z"/>
		<path fill="#FFFFFF" d="M240.421,4.204c-0.276-0.122-0.609-0.211-0.885-0.211c-0.999,0-1.559,0.723-1.559,1.729
			c0,0.942,0.568,1.729,1.502,1.729c0.325,0,0.625-0.073,0.933-0.186l0.049,0.478c-0.349,0.122-0.674,0.146-1.063,0.146
			c-1.331,0-1.98-1.015-1.98-2.168c0-1.273,0.82-2.167,2.045-2.167c0.496,0,0.854,0.114,0.999,0.163L240.421,4.204z"/>
		<path fill="#FFFFFF" d="M241.961,1.704h0.511v2.646h0.017c0.22-0.455,0.683-0.796,1.291-0.796c1.112,0,1.412,0.739,1.412,1.761
			v2.477h-0.511V5.324c0-0.714-0.139-1.332-0.982-1.332c-0.91,0-1.227,0.86-1.227,1.583v2.217h-0.511V1.704z"/>
		<path fill="#FFFFFF" d="M249.881,7.662c-0.357,0.146-0.82,0.227-1.201,0.227c-1.372,0-1.883-0.925-1.883-2.168
			c0-1.265,0.698-2.167,1.744-2.167c1.17,0,1.648,0.942,1.648,2.054v0.26h-2.833c0,0.877,0.471,1.583,1.364,1.583
			c0.374,0,0.917-0.154,1.16-0.308V7.662z M249.629,5.43c0-0.722-0.291-1.437-1.054-1.437c-0.756,0-1.219,0.755-1.219,1.437H249.629
			z"/>
		<path fill="#FFFFFF" d="M251.479,7.191c0.309,0.154,0.683,0.26,1.08,0.26c0.486,0,0.916-0.268,0.916-0.739
			c0-0.982-1.988-0.828-1.988-2.029c0-0.819,0.666-1.128,1.349-1.128c0.219,0,0.656,0.049,1.022,0.187l-0.049,0.447
			c-0.269-0.123-0.634-0.195-0.918-0.195c-0.526,0-0.893,0.163-0.893,0.689c0,0.772,2.037,0.675,2.037,2.029
			c0,0.877-0.82,1.178-1.445,1.178c-0.397,0-0.794-0.049-1.159-0.194L251.479,7.191z"/>
		<path fill="#FFFFFF" d="M258.479,2.125h1.405c2.029,0,2.834,1.169,2.834,2.825c0,2.055-1.373,2.842-3.248,2.842h-0.991V2.125z
			 M259.041,7.305h0.462c1.608,0,2.655-0.649,2.655-2.387c0-1.729-1.032-2.306-2.297-2.306h-0.82V7.305z"/>
		<path fill="#FFFFFF" d="M267.293,7.662c-0.357,0.146-0.819,0.227-1.202,0.227c-1.372,0-1.884-0.925-1.884-2.168
			c0-1.265,0.699-2.167,1.747-2.167c1.168,0,1.647,0.942,1.647,2.054v0.26h-2.832c0,0.877,0.469,1.583,1.361,1.583
			c0.374,0,0.919-0.154,1.162-0.308V7.662z M267.042,5.43c0-0.722-0.294-1.437-1.057-1.437c-0.754,0-1.216,0.755-1.216,1.437
			H267.042z"/>
		<path fill="#FFFFFF" d="M269.158,3.651h0.511l-0.032,0.756h0.018c0.129-0.228,0.445-0.854,1.322-0.854
			c1.218,0,1.706,0.909,1.706,2.167c0,1.227-0.57,2.168-1.706,2.168c-0.648,0-1.039-0.267-1.291-0.804h-0.017v2.412h-0.511V3.651z
			 M270.896,3.993c-0.91,0-1.227,0.975-1.227,1.729c0,0.756,0.316,1.729,1.227,1.729c0.974,0,1.226-0.925,1.226-1.729
			C272.121,4.918,271.869,3.993,270.896,3.993z"/>
		<path fill="#FFFFFF" d="M276.729,7.125h-0.017c-0.226,0.497-0.803,0.764-1.313,0.764c-1.179,0-1.364-0.795-1.364-1.169
			c0-1.388,1.479-1.453,2.549-1.453h0.098V5.056c0-0.705-0.252-1.063-0.942-1.063c-0.431,0-0.836,0.098-1.217,0.341V3.838
			c0.317-0.154,0.852-0.284,1.217-0.284c1.022,0,1.453,0.462,1.453,1.543v1.826c0,0.333,0,0.585,0.04,0.869h-0.503V7.125z
			 M276.681,5.707h-0.146c-0.885,0-1.94,0.088-1.94,0.998c0,0.544,0.391,0.747,0.861,0.747c1.202,0,1.226-1.047,1.226-1.493V5.707z"
			/>
		<path fill="#FFFFFF" d="M279.039,4.578c0-0.455,0-0.625-0.031-0.926h0.511v0.796h0.017c0.187-0.462,0.537-0.894,1.062-0.894
			c0.123,0,0.269,0.024,0.359,0.049v0.536c-0.105-0.033-0.245-0.048-0.374-0.048c-0.812,0-1.03,0.908-1.03,1.656v2.045h-0.514V4.578
			z"/>
		<path fill="#FFFFFF" d="M284.161,4.091h-0.942v2.678c0,0.374,0.138,0.682,0.554,0.682c0.194,0,0.323-0.04,0.469-0.097l0.033,0.422
			c-0.122,0.049-0.373,0.113-0.625,0.113c-0.91,0-0.941-0.624-0.941-1.38V4.091h-0.812V3.651h0.812V2.654l0.511-0.179v1.176h0.942
			V4.091z"/>
		<path fill="#FFFFFF" d="M288.486,7.662c-0.357,0.146-0.82,0.227-1.202,0.227c-1.373,0-1.884-0.925-1.884-2.168
			c0-1.265,0.699-2.167,1.746-2.167c1.168,0,1.647,0.942,1.647,2.054v0.26h-2.832c0,0.877,0.469,1.583,1.362,1.583
			c0.374,0,0.919-0.154,1.162-0.308V7.662z M288.234,5.43c0-0.722-0.293-1.437-1.056-1.437c-0.754,0-1.217,0.755-1.217,1.437
			H288.234z"/>
		<path fill="#FFFFFF" d="M295.4,7.792V5.04c0-0.584-0.22-1.047-0.877-1.047c-0.56,0-1.112,0.479-1.112,1.51v2.29h-0.512V5.04
			c0-0.584-0.22-1.047-0.876-1.047c-0.56,0-1.111,0.479-1.111,1.51v2.29h-0.513V4.626c0-0.316,0-0.641-0.032-0.975h0.494v0.699
			l0.018,0.007c0.162-0.284,0.405-0.804,1.29-0.804c0.365,0,0.968,0.154,1.097,0.876h0.017c0.186-0.487,0.674-0.876,1.322-0.876
			c0.836,0,1.307,0.585,1.307,1.388v2.85H295.4z"/>
		<path fill="#FFFFFF" d="M300.568,7.662c-0.357,0.146-0.819,0.227-1.202,0.227c-1.372,0-1.884-0.925-1.884-2.168
			c0-1.265,0.699-2.167,1.747-2.167c1.168,0,1.647,0.942,1.647,2.054v0.26h-2.832c0,0.877,0.469,1.583,1.361,1.583
			c0.374,0,0.919-0.154,1.162-0.308V7.662z M300.316,5.43c0-0.722-0.293-1.437-1.056-1.437c-0.754,0-1.216,0.755-1.216,1.437
			H300.316z"/>
		<path fill="#FFFFFF" d="M302.481,4.626c0-0.316,0-0.641-0.031-0.975h0.494v0.739h0.017c0.169-0.374,0.478-0.836,1.339-0.836
			c1.022,0,1.413,0.682,1.413,1.591v2.646h-0.512V5.275c0-0.779-0.276-1.283-0.983-1.283c-0.934,0-1.226,0.82-1.226,1.51v2.29
			h-0.511V4.626z"/>
		<path fill="#FFFFFF" d="M309.411,4.091h-0.942v2.678c0,0.374,0.138,0.682,0.554,0.682c0.194,0,0.323-0.04,0.469-0.097l0.033,0.422
			c-0.122,0.049-0.373,0.113-0.625,0.113c-0.91,0-0.941-0.624-0.941-1.38V4.091h-0.812V3.651h0.812V2.654l0.511-0.179v1.176h0.942
			V4.091z"/>
		<path fill="#FFFFFF" d="M314.198,4.091h-0.836V3.651h0.836v-0.3c0-0.868,0.032-1.746,1.097-1.746c0.16,0,0.38,0.024,0.477,0.082
			l-0.031,0.447c-0.105-0.057-0.26-0.09-0.405-0.09c-0.699,0-0.626,0.755-0.626,1.25v0.357h0.934v0.439h-0.934v3.701h-0.511V4.091z"
			/>
		<path fill="#FFFFFF" d="M320.414,6.817c0,0.316,0,0.642,0.033,0.975h-0.496V7.054h-0.017c-0.169,0.373-0.478,0.835-1.339,0.835
			c-1.022,0-1.413-0.681-1.413-1.591V3.651h0.513v2.518c0,0.779,0.275,1.282,0.982,1.282c0.934,0,1.225-0.819,1.225-1.51v-2.29
			h0.512V6.817z M317.802,2.28h0.607v0.682h-0.607V2.28z M319.188,2.28h0.608v0.682h-0.608V2.28z"/>
		<path fill="#FFFFFF" d="M322.327,4.578c0-0.455,0-0.625-0.031-0.926h0.511v0.796h0.015c0.188-0.462,0.536-0.894,1.064-0.894
			c0.122,0,0.269,0.024,0.356,0.049v0.536c-0.105-0.033-0.242-0.048-0.373-0.048c-0.812,0-1.031,0.908-1.031,1.656v2.045h-0.511
			V4.578z"/>
		<path fill="#FFFFFF" d="M330.669,7.792h-0.6l-2.112-5.667h0.594l1.827,5.105l1.89-5.105h0.554L330.669,7.792z"/>
		<path fill="#FFFFFF" d="M336.471,7.662c-0.357,0.146-0.819,0.227-1.199,0.227c-1.373,0-1.885-0.925-1.885-2.168
			c0-1.265,0.697-2.167,1.745-2.167c1.17,0,1.649,0.942,1.649,2.054v0.26h-2.834c0,0.877,0.471,1.583,1.364,1.583
			c0.373,0,0.916-0.154,1.159-0.308V7.662z M336.22,5.43c0-0.722-0.292-1.437-1.055-1.437c-0.756,0-1.218,0.755-1.218,1.437H336.22z
			"/>
		<path fill="#FFFFFF" d="M338.384,4.578c0-0.455,0-0.625-0.031-0.926h0.511v0.796h0.017c0.187-0.462,0.537-0.894,1.062-0.894
			c0.123,0,0.269,0.024,0.359,0.049v0.536c-0.105-0.033-0.245-0.048-0.374-0.048c-0.813,0-1.03,0.908-1.03,1.656v2.045h-0.514V4.578
			z"/>
		<path fill="#FFFFFF" d="M343.506,4.091h-0.942v2.678c0,0.374,0.138,0.682,0.554,0.682c0.194,0,0.322-0.04,0.469-0.097l0.033,0.422
			c-0.122,0.049-0.373,0.113-0.625,0.113c-0.91,0-0.941-0.624-0.941-1.38V4.091h-0.812V3.651h0.812V2.654l0.511-0.179v1.176h0.942
			V4.091z"/>
		<path fill="#FFFFFF" d="M347.83,7.662c-0.356,0.146-0.819,0.227-1.201,0.227c-1.373,0-1.884-0.925-1.884-2.168
			c0-1.265,0.699-2.167,1.746-2.167c1.168,0,1.647,0.942,1.647,2.054v0.26h-2.832c0,0.877,0.469,1.583,1.362,1.583
			c0.374,0,0.919-0.154,1.161-0.308V7.662z M347.579,5.43c0-0.722-0.293-1.437-1.056-1.437c-0.754,0-1.217,0.755-1.217,1.437
			H347.579z"/>
		<path fill="#FFFFFF" d="M350.255,2.548h-0.511V1.866h0.511V2.548z M349.744,3.651h0.511v4.141h-0.511V3.651z"/>
		<path fill="#FFFFFF" d="M355.457,7.792h-0.512V7.134h-0.017c-0.274,0.528-0.697,0.755-1.29,0.755
			c-1.137,0-1.705-0.941-1.705-2.168c0-1.258,0.488-2.167,1.705-2.167c0.812,0,1.218,0.594,1.29,0.796h0.017V1.704h0.512V7.792z
			 M353.721,7.451c0.908,0,1.225-0.974,1.225-1.729c0-0.754-0.316-1.729-1.225-1.729c-0.976,0-1.227,0.926-1.227,1.729
			C352.494,6.526,352.745,7.451,353.721,7.451z"/>
		<path fill="#FFFFFF" d="M357.835,2.548h-0.514V1.866h0.514V2.548z M357.321,3.651h0.514v4.141h-0.514V3.651z"/>
		<path fill="#FFFFFF" d="M363.036,7.451c0,1.153-0.52,2.095-1.94,2.095c-0.543,0-1.039-0.154-1.25-0.22l0.04-0.511
			c0.316,0.163,0.772,0.292,1.218,0.292c1.316,0,1.428-0.958,1.428-2.126h-0.015c-0.276,0.601-0.73,0.812-1.259,0.812
			c-1.324,0-1.744-1.152-1.744-2.071c0-1.258,0.485-2.167,1.704-2.167c0.552,0,0.908,0.074,1.291,0.568h0.017V3.651h0.511V7.451z
			 M361.267,7.354c0.925,0,1.259-0.876,1.259-1.632c0-0.998-0.294-1.729-1.228-1.729c-0.974,0-1.225,0.926-1.225,1.729
			C360.073,6.534,360.398,7.354,361.267,7.354z"/>
		<path fill="#FFFFFF" d="M368.133,6.817c0,0.316,0,0.642,0.031,0.975h-0.494V7.054h-0.017c-0.172,0.373-0.479,0.835-1.339,0.835
			c-1.024,0-1.413-0.681-1.413-1.591V3.651h0.511v2.518c0,0.779,0.276,1.282,0.982,1.282c0.934,0,1.227-0.819,1.227-1.51v-2.29
			h0.512V6.817z"/>
		<path fill="#FFFFFF" d="M370.044,4.626c0-0.316,0-0.641-0.032-0.975h0.494v0.739h0.018c0.171-0.374,0.479-0.836,1.339-0.836
			c1.024,0,1.412,0.682,1.412,1.591v2.646h-0.511V5.275c0-0.779-0.276-1.283-0.982-1.283c-0.933,0-1.225,0.82-1.225,1.51v2.29
			h-0.513V4.626z"/>
		<path fill="#FFFFFF" d="M378.468,7.451c0,1.153-0.52,2.095-1.938,2.095c-0.545,0-1.039-0.154-1.25-0.22l0.04-0.511
			c0.316,0.163,0.771,0.292,1.216,0.292c1.316,0,1.431-0.958,1.431-2.126h-0.018c-0.274,0.601-0.73,0.812-1.259,0.812
			c-1.321,0-1.744-1.152-1.744-2.071c0-1.258,0.488-2.167,1.704-2.167c0.554,0,0.91,0.074,1.291,0.568h0.017V3.651h0.511V7.451z
			 M376.698,7.354c0.927,0,1.259-0.876,1.259-1.632c0-0.998-0.291-1.729-1.225-1.729c-0.977,0-1.228,0.926-1.228,1.729
			C375.505,6.534,375.83,7.354,376.698,7.354z"/>
		<path fill="#FFFFFF" d="M380.602,7.11h0.682l-0.642,1.77h-0.512L380.602,7.11z"/>
		<path fill="#FFFFFF" d="M191.543,13.318h1.348c0.925,0,1.793,0.308,1.793,1.396c0,0.722-0.332,1.153-1.031,1.29v0.017
			c0.714,0.129,1.202,0.6,1.202,1.347c0,1.233-1.008,1.616-2.184,1.616h-1.128V13.318z M192.103,18.496h0.585
			c0.754,0,1.607-0.203,1.607-1.104c0-1.006-0.869-1.112-1.697-1.112h-0.495V18.496z M192.119,15.793h0.625
			c0.592,0,1.38-0.154,1.38-1.055c0-0.82-0.755-0.933-1.233-0.933h-0.771V15.793z"/>
		<path fill="#FFFFFF" d="M199.454,18.853c-0.356,0.147-0.819,0.228-1.202,0.228c-1.37,0-1.882-0.925-1.882-2.168
			c0-1.266,0.697-2.168,1.745-2.168c1.169,0,1.647,0.942,1.647,2.055v0.26h-2.832c0,0.876,0.471,1.582,1.363,1.582
			c0.372,0,0.917-0.154,1.16-0.308V18.853z M199.203,16.621c0-0.722-0.292-1.436-1.057-1.436c-0.754,0-1.216,0.754-1.216,1.436
			H199.203z"/>
		<path fill="#FFFFFF" d="M202.806,18.984h-0.602l-1.404-4.14h0.561l1.145,3.58h0.016l1.202-3.58h0.536L202.806,18.984z"/>
		<path fill="#FFFFFF" d="M207.219,14.745c1.34,0,1.932,1.039,1.932,2.168s-0.592,2.168-1.932,2.168s-1.932-1.039-1.932-2.168
			S205.879,14.745,207.219,14.745z M207.219,18.642c0.893,0,1.371-0.771,1.371-1.729c0-0.958-0.479-1.729-1.371-1.729
			s-1.372,0.771-1.372,1.729C205.847,17.871,206.326,18.642,207.219,18.642z M206.221,13.472h0.608v0.682h-0.608V13.472z
			 M207.608,13.472h0.608v0.682h-0.608V13.472z"/>
		<path fill="#FFFFFF" d="M210.748,12.896h0.511v6.088h-0.511V12.896z"/>
		<path fill="#FFFFFF" d="M213.182,12.896h0.511v3.645l1.852-1.697h0.657l-2.021,1.834l2.264,2.306h-0.705l-2.047-2.126v2.126
			h-0.511V12.896z"/>
		<path fill="#FFFFFF" d="M220.647,18.853c-0.357,0.147-0.819,0.228-1.202,0.228c-1.37,0-1.883-0.925-1.883-2.168
			c0-1.266,0.698-2.168,1.746-2.168c1.169,0,1.646,0.942,1.646,2.055v0.26h-2.832c0,0.876,0.472,1.582,1.363,1.582
			c0.373,0,0.918-0.154,1.161-0.308V18.853z M220.396,16.621c0-0.722-0.291-1.436-1.056-1.436c-0.754,0-1.217,0.754-1.217,1.436
			H220.396z"/>
		<path fill="#FFFFFF" d="M222.561,15.769c0-0.454,0-0.624-0.031-0.925h0.511v0.795h0.017c0.186-0.462,0.534-0.894,1.062-0.894
			c0.122,0,0.269,0.025,0.357,0.05v0.535c-0.106-0.031-0.243-0.048-0.373-0.048c-0.812,0-1.032,0.909-1.032,1.656v2.046h-0.511
			V15.769z"/>
		<path fill="#FFFFFF" d="M229.127,18.009c0,0.317,0,0.641,0.031,0.975h-0.494v-0.739h-0.017c-0.171,0.374-0.479,0.836-1.339,0.836
			c-1.022,0-1.413-0.682-1.413-1.591v-2.646h0.511v2.516c0,0.779,0.276,1.282,0.983,1.282c0.934,0,1.226-0.819,1.226-1.509v-2.289
			h0.512V18.009z"/>
		<path fill="#FFFFFF" d="M231.04,15.818c0-0.317,0-0.642-0.032-0.975h0.494v0.738h0.018c0.171-0.373,0.479-0.836,1.339-0.836
			c1.023,0,1.413,0.682,1.413,1.593v2.646h-0.512v-2.518c0-0.779-0.276-1.282-0.981-1.282c-0.934,0-1.228,0.819-1.228,1.51v2.289
			h-0.511V15.818z"/>
		<path fill="#FFFFFF" d="M239.464,18.642c0,1.153-0.52,2.095-1.94,2.095c-0.544,0-1.039-0.154-1.25-0.22l0.041-0.511
			c0.315,0.163,0.771,0.293,1.218,0.293c1.315,0,1.429-0.958,1.429-2.127h-0.017c-0.276,0.601-0.73,0.812-1.259,0.812
			c-1.322,0-1.745-1.153-1.745-2.071c0-1.257,0.487-2.168,1.705-2.168c0.552,0,0.908,0.074,1.291,0.569h0.017v-0.471h0.511V18.642z
			 M237.694,18.544c0.925,0,1.259-0.876,1.259-1.631c0-0.998-0.294-1.729-1.227-1.729c-0.974,0-1.226,0.925-1.226,1.729
			C236.501,17.725,236.825,18.544,237.694,18.544z"/>
		<path fill="#FFFFFF" d="M241.013,18.382c0.308,0.154,0.682,0.26,1.079,0.26c0.486,0,0.916-0.267,0.916-0.738
			c0-0.982-1.988-0.828-1.988-2.03c0-0.819,0.666-1.129,1.349-1.129c0.219,0,0.657,0.05,1.022,0.188l-0.049,0.446
			c-0.269-0.122-0.634-0.194-0.918-0.194c-0.526,0-0.892,0.163-0.892,0.689c0,0.772,2.036,0.674,2.036,2.03
			c0,0.877-0.82,1.177-1.445,1.177c-0.396,0-0.794-0.048-1.159-0.195L241.013,18.382z"/>
		<path fill="#FFFFFF" d="M244.801,18.382c0.309,0.154,0.683,0.26,1.079,0.26c0.487,0,0.917-0.267,0.917-0.738
			c0-0.982-1.988-0.828-1.988-2.03c0-0.819,0.666-1.129,1.349-1.129c0.218,0,0.656,0.05,1.021,0.188l-0.048,0.446
			c-0.269-0.122-0.634-0.194-0.918-0.194c-0.527,0-0.893,0.163-0.893,0.689c0,0.772,2.037,0.674,2.037,2.03
			c0,0.877-0.82,1.177-1.445,1.177c-0.397,0-0.794-0.048-1.159-0.195L244.801,18.382z"/>
		<path fill="#FFFFFF" d="M251.602,15.396c-0.276-0.123-0.608-0.211-0.885-0.211c-0.999,0-1.559,0.722-1.559,1.729
			c0,0.942,0.567,1.729,1.501,1.729c0.325,0,0.625-0.072,0.934-0.186l0.049,0.479c-0.349,0.12-0.674,0.146-1.062,0.146
			c-1.332,0-1.98-1.015-1.98-2.168c0-1.274,0.819-2.168,2.045-2.168c0.495,0,0.853,0.114,0.998,0.163L251.602,15.396z"/>
		<path fill="#FFFFFF" d="M253.142,12.896h0.512v2.646h0.016c0.22-0.454,0.683-0.796,1.291-0.796c1.112,0,1.412,0.739,1.412,1.763
			v2.476h-0.511v-2.469c0-0.714-0.138-1.331-0.982-1.331c-0.909,0-1.226,0.859-1.226,1.583v2.216h-0.512V12.896z"/>
		<path fill="#FFFFFF" d="M261.517,18.009c0,0.317,0,0.641,0.032,0.975h-0.494v-0.739h-0.018c-0.17,0.374-0.479,0.836-1.339,0.836
			c-1.021,0-1.413-0.682-1.413-1.591v-2.646h0.512v2.516c0,0.779,0.276,1.282,0.982,1.282c0.934,0,1.227-0.819,1.227-1.509v-2.289
			h0.511V18.009z"/>
		<path fill="#FFFFFF" d="M265.217,15.282h-0.941v2.679c0,0.373,0.137,0.681,0.551,0.681c0.194,0,0.325-0.04,0.471-0.097
			l0.032,0.422c-0.121,0.049-0.372,0.114-0.625,0.114c-0.908,0-0.942-0.625-0.942-1.38v-2.419h-0.811v-0.438h0.811v-0.998
			l0.514-0.18v1.178h0.941V15.282z"/>
		<path fill="#FFFFFF" d="M266.383,18.553l2.492-3.271h-2.396v-0.438h2.988v0.438l-2.491,3.263h2.491v0.439h-3.085V18.553z"/>
		<path fill="#FFFFFF" d="M277.119,18.009c0,0.317,0,0.641,0.032,0.975h-0.494v-0.739h-0.017c-0.172,0.374-0.479,0.836-1.34,0.836
			c-1.023,0-1.412-0.682-1.412-1.591v-2.646h0.511v2.516c0,0.779,0.276,1.282,0.982,1.282c0.934,0,1.227-0.819,1.227-1.509v-2.289
			h0.511V18.009z"/>
		<path fill="#FFFFFF" d="M279.033,15.818c0-0.317,0-0.642-0.032-0.975h0.494v0.738h0.018c0.169-0.373,0.477-0.836,1.339-0.836
			c1.021,0,1.413,0.682,1.413,1.593v2.646h-0.512v-2.518c0-0.779-0.276-1.282-0.984-1.282c-0.933,0-1.225,0.819-1.225,1.51v2.289
			h-0.511V15.818z"/>
		<path fill="#FFFFFF" d="M287.455,18.984h-0.511v-0.658h-0.017c-0.275,0.527-0.697,0.755-1.291,0.755
			c-1.136,0-1.704-0.942-1.704-2.168c0-1.257,0.488-2.168,1.704-2.168c0.813,0,1.219,0.594,1.291,0.796h0.017v-2.646h0.511V18.984z
			 M285.72,18.642c0.907,0,1.225-0.974,1.225-1.729s-0.317-1.729-1.225-1.729c-0.977,0-1.228,0.925-1.228,1.729
			S284.743,18.642,285.72,18.642z"/>
		<path fill="#FFFFFF" d="M292.112,18.262c0.331,0.21,0.722,0.332,1.25,0.332c0.697,0,1.273-0.357,1.273-1.161
			c0-1.112-2.598-1.249-2.598-2.736c0-0.908,0.796-1.476,1.795-1.476c0.274,0,0.723,0.04,1.111,0.186l-0.089,0.511
			c-0.251-0.137-0.65-0.211-1.03-0.211c-0.585,0-1.228,0.244-1.228,0.975c0,1.138,2.598,1.145,2.598,2.802
			c0,1.144-0.982,1.599-1.858,1.599c-0.551,0-0.982-0.114-1.282-0.244L292.112,18.262z"/>
		<path fill="#FFFFFF" d="M296.849,14.844h0.512l-0.032,0.755h0.018c0.129-0.228,0.445-0.854,1.321-0.854
			c1.219,0,1.707,0.911,1.707,2.168c0,1.226-0.57,2.168-1.707,2.168c-0.647,0-1.039-0.268-1.29-0.805h-0.017v2.412h-0.512V14.844z
			 M298.587,15.185c-0.91,0-1.227,0.974-1.227,1.729s0.316,1.729,1.227,1.729c0.974,0,1.226-0.925,1.226-1.729
			S299.561,15.185,298.587,15.185z"/>
		<path fill="#FFFFFF" d="M303.658,14.745c1.341,0,1.932,1.039,1.932,2.168s-0.591,2.168-1.932,2.168
			c-1.339,0-1.933-1.039-1.933-2.168S302.319,14.745,303.658,14.745z M303.658,18.642c0.893,0,1.372-0.771,1.372-1.729
			c0-0.958-0.479-1.729-1.372-1.729c-0.894,0-1.371,0.771-1.371,1.729C302.287,17.871,302.765,18.642,303.658,18.642z"/>
		<path fill="#FFFFFF" d="M307.187,15.769c0-0.454,0-0.624-0.031-0.925h0.511v0.795h0.018c0.186-0.462,0.536-0.894,1.062-0.894
			c0.123,0,0.269,0.025,0.359,0.05v0.535c-0.105-0.031-0.245-0.048-0.374-0.048c-0.812,0-1.03,0.909-1.03,1.656v2.046h-0.514V15.769
			z"/>
		<path fill="#FFFFFF" d="M312.309,15.282h-0.942v2.679c0,0.373,0.138,0.681,0.554,0.681c0.194,0,0.323-0.04,0.469-0.097
			l0.033,0.422c-0.122,0.049-0.373,0.114-0.625,0.114c-0.91,0-0.941-0.625-0.941-1.38v-2.419h-0.812v-0.438h0.812v-0.998l0.511-0.18
			v1.178h0.942V15.282z"/>
		<path fill="#FFFFFF" d="M318.863,18.984h-0.6l-2.111-5.666h0.593l1.827,5.105l1.89-5.105h0.554L318.863,18.984z"/>
		<path fill="#FFFFFF" d="M322.344,13.318h1.348c0.925,0,1.793,0.308,1.793,1.396c0,0.722-0.331,1.153-1.03,1.29v0.017
			c0.714,0.129,1.201,0.6,1.201,1.347c0,1.233-1.007,1.616-2.184,1.616h-1.128V13.318z M322.903,18.496h0.585
			c0.754,0,1.607-0.203,1.607-1.104c0-1.006-0.87-1.112-1.698-1.112h-0.494V18.496z M322.921,15.793h0.625
			c0.591,0,1.379-0.154,1.379-1.055c0-0.82-0.754-0.933-1.233-0.933h-0.771V15.793z"/>
		<path fill="#FFFFFF" d="M327.383,18.262c0.332,0.21,0.723,0.332,1.25,0.332c0.697,0,1.274-0.357,1.274-1.161
			c0-1.112-2.598-1.249-2.598-2.736c0-0.908,0.796-1.476,1.795-1.476c0.274,0,0.722,0.04,1.11,0.186l-0.089,0.511
			c-0.251-0.137-0.65-0.211-1.03-0.211c-0.585,0-1.227,0.244-1.227,0.975c0,1.138,2.598,1.145,2.598,2.802
			c0,1.144-0.982,1.599-1.858,1.599c-0.552,0-0.982-0.114-1.282-0.244L327.383,18.262z"/>
		<path fill="#FFFFFF" d="M194.595,25.548c-0.357-0.154-0.755-0.243-1.153-0.243c-0.389,0-0.894,0.17-0.894,0.787
			c0,0.982,2.485,0.569,2.485,2.468c0,1.241-0.982,1.713-2.127,1.713c-0.618,0-0.893-0.081-1.453-0.22l0.105-1.022
			c0.39,0.211,0.836,0.349,1.283,0.349c0.43,0,1.005-0.219,1.005-0.729c0-1.081-2.483-0.634-2.483-2.508
			c0-1.268,0.982-1.73,1.981-1.73c0.487,0,0.941,0.065,1.355,0.203L194.595,25.548z"/>
		<path fill="#FFFFFF" d="M198.797,26.896c-0.193-0.089-0.405-0.154-0.738-0.154c-0.674,0-1.104,0.536-1.104,1.323
			c0,0.771,0.365,1.364,1.129,1.364c0.308,0,0.647-0.114,0.836-0.195l0.049,0.901c-0.317,0.098-0.643,0.138-1.088,0.138
			c-1.373,0-2.063-0.934-2.063-2.208c0-1.209,0.716-2.168,2.022-2.168c0.438,0,0.755,0.05,1.055,0.139L198.797,26.896z"/>
		<path fill="#FFFFFF" d="M199.81,24.086h1.088v2.477h0.016c0.277-0.406,0.748-0.666,1.316-0.666c0.99,0,1.42,0.699,1.42,1.641
			v2.638h-1.088v-2.232c0-0.511-0.007-1.201-0.706-1.201c-0.788,0-0.958,0.853-0.958,1.389v2.045h-1.088V24.086z"/>
		<path fill="#FFFFFF" d="M204.418,25.994h1.152l0.926,3.093h0.016l0.846-3.093h1.266l0.909,3.093h0.017l0.868-3.093h1.039
			l-1.282,4.181h-1.282l-0.909-3.189h-0.018l-0.892,3.189h-1.243L204.418,25.994z"/>
		<path fill="#FFFFFF" d="M215.576,29.939c-0.396,0.219-0.852,0.333-1.436,0.333c-1.381,0-2.184-0.796-2.184-2.167
			c0-1.21,0.641-2.209,1.939-2.209c1.551,0,1.988,1.064,1.988,2.525h-2.889c0.048,0.674,0.52,1.055,1.193,1.055
			c0.527,0,0.981-0.195,1.387-0.422V29.939z M214.846,27.675c-0.031-0.528-0.275-0.982-0.885-0.982
			c-0.608,0-0.917,0.423-0.965,0.982H214.846z"/>
		<path fill="#FFFFFF" d="M216.882,24.191h1.087v1.039h-1.087V24.191z M216.882,25.994h1.087v4.181h-1.087V25.994z"/>
		<path fill="#FFFFFF" d="M219.056,25.994h3.312v0.893l-2.078,2.443h2.15v0.845h-3.475V29.29l2.118-2.452h-2.028V25.994z"/>
		<path fill="#FFFFFF" d="M226.766,29.939c-0.397,0.219-0.853,0.333-1.437,0.333c-1.38,0-2.184-0.796-2.184-2.167
			c0-1.21,0.641-2.209,1.939-2.209c1.552,0,1.988,1.064,1.988,2.525h-2.889c0.049,0.674,0.52,1.055,1.193,1.055
			c0.528,0,0.981-0.195,1.388-0.422V29.939z M226.034,27.675c-0.031-0.528-0.275-0.982-0.885-0.982
			c-0.608,0-0.916,0.423-0.965,0.982H226.034z"/>
		<path fill="#FFFFFF" d="M228.07,25.994h0.967v0.949h0.016c0.049-0.389,0.495-1.047,1.145-1.047c0.105,0,0.22,0,0.334,0.033v1.096
			c-0.099-0.057-0.294-0.09-0.488-0.09c-0.885,0-0.885,1.104-0.885,1.705v1.534h-1.088V25.994z"/>
		<path fill="#FFFFFF" d="M235.422,24.509h1.283l2.224,5.666h-1.258l-0.487-1.299h-2.297l-0.495,1.299h-1.178L235.422,24.509z
			 M236.047,25.645h-0.017l-0.819,2.338h1.655L236.047,25.645z"/>
		<path fill="#FFFFFF" d="M239.705,25.994h0.967v0.949h0.016c0.049-0.389,0.496-1.047,1.145-1.047c0.105,0,0.22,0,0.333,0.033v1.096
			c-0.097-0.057-0.292-0.09-0.487-0.09c-0.885,0-0.885,1.104-0.885,1.705v1.534h-1.088V25.994z"/>
		<path fill="#FFFFFF" d="M242.942,25.994h1.015v0.584h0.017c0.342-0.511,0.836-0.682,1.241-0.682c0.585,0,0.999,0.22,1.234,0.739
			c0.253-0.503,0.795-0.739,1.307-0.739c1.031,0,1.324,0.707,1.324,1.641v2.638h-1.088v-2.492c0-0.39,0-0.941-0.625-0.941
			c-0.723,0-0.812,0.86-0.812,1.404v2.029h-1.087v-2.492c0-0.39,0-0.941-0.626-0.941c-0.723,0-0.812,0.86-0.812,1.404v2.029h-1.088
			V25.994z"/>
		<path fill="#FFFFFF" d="M253.646,29.939c-0.396,0.219-0.852,0.333-1.436,0.333c-1.381,0-2.184-0.796-2.184-2.167
			c0-1.21,0.641-2.209,1.939-2.209c1.551,0,1.988,1.064,1.988,2.525h-2.889c0.048,0.674,0.52,1.055,1.192,1.055
			c0.528,0,0.982-0.195,1.388-0.422V29.939z M252.915,27.675c-0.031-0.528-0.275-0.982-0.885-0.982
			c-0.608,0-0.917,0.423-0.965,0.982H252.915z"/>
		<path fill="#FFFFFF" d="M258.279,29.939c-0.398,0.219-0.854,0.333-1.438,0.333c-1.38,0-2.183-0.796-2.183-2.167
			c0-1.21,0.641-2.209,1.939-2.209c1.551,0,1.989,1.064,1.989,2.525h-2.89c0.049,0.674,0.52,1.055,1.193,1.055
			c0.527,0,0.982-0.195,1.388-0.422V29.939z M257.549,27.675c-0.032-0.528-0.277-0.982-0.885-0.982
			c-0.608,0-0.917,0.423-0.966,0.982H257.549z"/>
	</g>
	<g>
		<path fill="#FFFFFF" d="M32.28,7.068c0.333,0.211,0.723,0.333,1.25,0.333c0.698,0,1.274-0.357,1.274-1.161
			c0-1.113-2.598-1.25-2.598-2.736c0-0.909,0.796-1.478,1.794-1.478c0.275,0,0.722,0.04,1.112,0.186l-0.089,0.512
			c-0.251-0.139-0.649-0.211-1.031-0.211c-0.585,0-1.226,0.244-1.226,0.975c0,1.136,2.598,1.145,2.598,2.8
			c0,1.145-0.982,1.599-1.859,1.599c-0.552,0-0.982-0.114-1.282-0.243L32.28,7.068z"/>
		<path fill="#FFFFFF" d="M39.763,4.203c-0.276-0.122-0.609-0.211-0.885-0.211c-0.999,0-1.559,0.722-1.559,1.729
			c0,0.942,0.568,1.729,1.502,1.729c0.325,0,0.625-0.073,0.934-0.187l0.048,0.479c-0.349,0.122-0.674,0.146-1.063,0.146
			c-1.332,0-1.981-1.014-1.981-2.167c0-1.274,0.82-2.168,2.046-2.168c0.496,0,0.853,0.114,0.999,0.163L39.763,4.203z"/>
		<path fill="#FFFFFF" d="M41.303,1.702h0.511v2.646h0.016c0.219-0.454,0.682-0.795,1.291-0.795c1.112,0,1.412,0.738,1.412,1.762
			v2.476h-0.511V5.323c0-0.715-0.138-1.332-0.982-1.332c-0.909,0-1.226,0.86-1.226,1.583v2.216h-0.511V1.702z"/>
		<path fill="#FFFFFF" d="M50.7,7.791h-0.617l-1.128-3.58h-0.016l-1.128,3.58h-0.617l-1.331-4.14h0.56l1.088,3.58h0.016l1.153-3.58
			h0.617l1.096,3.58h0.016l1.145-3.58h0.511L50.7,7.791z"/>
		<path fill="#FFFFFF" d="M56.168,7.661c-0.357,0.146-0.82,0.227-1.202,0.227c-1.372,0-1.883-0.925-1.883-2.167
			c0-1.267,0.699-2.168,1.746-2.168c1.169,0,1.647,0.942,1.647,2.054v0.26h-2.833c0,0.876,0.471,1.583,1.364,1.583
			c0.374,0,0.918-0.154,1.161-0.308V7.661z M55.917,5.429c0-0.722-0.292-1.437-1.055-1.437c-0.754,0-1.218,0.755-1.218,1.437H55.917
			z"/>
		<path fill="#FFFFFF" d="M58.594,2.547h-0.511V1.865h0.511V2.547z M58.083,3.651h0.511v4.14h-0.511V3.651z"/>
		<path fill="#FFFFFF" d="M60.135,7.36l2.492-3.271h-2.395V3.651h2.987v0.438l-2.492,3.264h2.492v0.438h-3.084V7.36z"/>
		<path fill="#FFFFFF" d="M67.527,7.661c-0.357,0.146-0.82,0.227-1.202,0.227c-1.372,0-1.883-0.925-1.883-2.167
			c0-1.267,0.699-2.168,1.746-2.168c1.169,0,1.648,0.942,1.648,2.054v0.26h-2.833c0,0.876,0.471,1.583,1.364,1.583
			c0.374,0,0.918-0.154,1.161-0.308V7.661z M67.275,5.429c0-0.722-0.292-1.437-1.055-1.437c-0.754,0-1.218,0.755-1.218,1.437H67.275
			z"/>
		<path fill="#FFFFFF" d="M69.441,4.577c0-0.455,0-0.625-0.033-0.925h0.511v0.795h0.016C70.123,3.983,70.472,3.553,71,3.553
			c0.121,0,0.268,0.024,0.357,0.049v0.535c-0.106-0.032-0.244-0.048-0.374-0.048c-0.812,0-1.031,0.91-1.031,1.657v2.045h-0.511
			V4.577z"/>
		<path fill="#FFFFFF" d="M73.287,2.547h-0.511V1.865h0.511V2.547z M72.776,3.651h0.511v4.14h-0.511V3.651z"/>
		<path fill="#FFFFFF" d="M74.893,7.19c0.309,0.154,0.682,0.26,1.08,0.26c0.487,0,0.917-0.267,0.917-0.738
			c0-0.982-1.989-0.828-1.989-2.029c0-0.82,0.666-1.129,1.348-1.129c0.219,0,0.657,0.049,1.022,0.187l-0.048,0.447
			c-0.268-0.122-0.633-0.195-0.917-0.195c-0.527,0-0.893,0.163-0.893,0.69c0,0.771,2.038,0.674,2.038,2.029
			c0,0.876-0.82,1.176-1.445,1.176c-0.397,0-0.795-0.048-1.16-0.194L74.893,7.19z"/>
		<path fill="#FFFFFF" d="M81.693,4.203c-0.276-0.122-0.608-0.211-0.885-0.211c-0.999,0-1.559,0.722-1.559,1.729
			c0,0.942,0.569,1.729,1.502,1.729c0.325,0,0.625-0.073,0.934-0.187l0.049,0.479c-0.349,0.122-0.674,0.146-1.063,0.146
			c-1.332,0-1.981-1.014-1.981-2.167c0-1.274,0.82-2.168,2.046-2.168c0.495,0,0.852,0.114,0.999,0.163L81.693,4.203z"/>
		<path fill="#FFFFFF" d="M83.234,1.702h0.511v2.646h0.017c0.219-0.454,0.682-0.795,1.291-0.795c1.112,0,1.412,0.738,1.412,1.762
			v2.476h-0.512V5.323c0-0.715-0.138-1.332-0.982-1.332c-0.909,0-1.226,0.86-1.226,1.583v2.216h-0.511V1.702z"/>
		<path fill="#FFFFFF" d="M91.154,7.661c-0.357,0.146-0.82,0.227-1.202,0.227c-1.372,0-1.883-0.925-1.883-2.167
			c0-1.267,0.699-2.168,1.746-2.168c1.169,0,1.648,0.942,1.648,2.054v0.26h-2.833c0,0.876,0.471,1.583,1.364,1.583
			c0.374,0,0.918-0.154,1.161-0.308V7.661z M90.902,5.429c0-0.722-0.292-1.437-1.055-1.437c-0.754,0-1.218,0.755-1.218,1.437H90.902
			z"/>
		<path fill="#FFFFFF" d="M96.013,2.125h2.777v0.488h-2.216v2.021h2.102V5.12h-2.102v2.184h2.313v0.487h-2.874V2.125z"/>
		<path fill="#FFFFFF" d="M101.157,2.547h-0.511V1.865h0.511V2.547z M100.646,3.651h0.511v4.14h-0.511V3.651z"/>
		<path fill="#FFFFFF" d="M106.359,7.791h-0.511V7.134h-0.016c-0.276,0.527-0.698,0.754-1.291,0.754
			c-1.136,0-1.705-0.941-1.705-2.167c0-1.259,0.487-2.168,1.705-2.168c0.812,0,1.218,0.592,1.291,0.795h0.016V1.702h0.511V7.791z
			 M104.623,7.45c0.909,0,1.226-0.975,1.226-1.729c0-0.755-0.316-1.729-1.226-1.729c-0.974,0-1.226,0.925-1.226,1.729
			C103.396,6.525,103.648,7.45,104.623,7.45z"/>
		<path fill="#FFFFFF" d="M111.504,7.45c0,1.153-0.52,2.094-1.94,2.094c-0.544,0-1.039-0.154-1.25-0.218l0.041-0.512
			c0.316,0.163,0.771,0.293,1.217,0.293c1.315,0,1.429-0.959,1.429-2.128h-0.016c-0.276,0.601-0.731,0.812-1.258,0.812
			c-1.323,0-1.746-1.153-1.746-2.07c0-1.259,0.487-2.168,1.705-2.168c0.552,0,0.909,0.073,1.291,0.568h0.017v-0.47h0.511V7.45z
			 M109.734,7.353c0.925,0,1.259-0.877,1.259-1.631c0-0.999-0.292-1.729-1.226-1.729c-0.974,0-1.226,0.925-1.226,1.729
			C108.541,6.532,108.865,7.353,109.734,7.353z"/>
		<path fill="#FFFFFF" d="M116.145,7.661c-0.357,0.146-0.82,0.227-1.202,0.227c-1.372,0-1.883-0.925-1.883-2.167
			c0-1.267,0.699-2.168,1.746-2.168c1.169,0,1.648,0.942,1.648,2.054v0.26h-2.833c0,0.876,0.471,1.583,1.364,1.583
			c0.374,0,0.918-0.154,1.161-0.308V7.661z M115.893,5.429c0-0.722-0.292-1.437-1.055-1.437c-0.754,0-1.218,0.755-1.218,1.437
			H115.893z"/>
		<path fill="#FFFFFF" d="M118.059,4.625c0-0.317,0-0.642-0.033-0.974h0.495V4.39h0.017c0.17-0.373,0.479-0.836,1.339-0.836
			c1.022,0,1.412,0.682,1.412,1.591v2.646h-0.512V5.274c0-0.779-0.276-1.283-0.982-1.283c-0.933,0-1.226,0.819-1.226,1.51v2.29
			h-0.511V4.625z"/>
		<path fill="#FFFFFF" d="M124.818,3.553c1.339,0,1.932,1.039,1.932,2.168c0,1.127-0.592,2.167-1.932,2.167
			c-1.34,0-1.932-1.039-1.932-2.167C122.886,4.592,123.478,3.553,124.818,3.553z M124.818,7.45c0.893,0,1.372-0.771,1.372-1.729
			c0-0.959-0.479-1.729-1.372-1.729c-0.893,0-1.372,0.771-1.372,1.729C123.446,6.679,123.925,7.45,124.818,7.45z"/>
		<path fill="#FFFFFF" d="M128.03,7.19c0.309,0.154,0.682,0.26,1.08,0.26c0.487,0,0.917-0.267,0.917-0.738
			c0-0.982-1.989-0.828-1.989-2.029c0-0.82,0.666-1.129,1.348-1.129c0.219,0,0.657,0.049,1.022,0.187l-0.048,0.447
			c-0.268-0.122-0.634-0.195-0.917-0.195c-0.527,0-0.893,0.163-0.893,0.69c0,0.771,2.038,0.674,2.038,2.029
			c0,0.876-0.82,1.176-1.445,1.176c-0.397,0-0.795-0.048-1.16-0.194L128.03,7.19z"/>
		<path fill="#FFFFFF" d="M131.819,7.19c0.308,0.154,0.682,0.26,1.08,0.26c0.487,0,0.917-0.267,0.917-0.738
			c0-0.982-1.989-0.828-1.989-2.029c0-0.82,0.666-1.129,1.348-1.129c0.219,0,0.658,0.049,1.023,0.187l-0.048,0.447
			c-0.269-0.122-0.634-0.195-0.918-0.195c-0.527,0-0.893,0.163-0.893,0.69c0,0.771,2.037,0.674,2.037,2.029
			c0,0.876-0.82,1.176-1.445,1.176c-0.397,0-0.795-0.048-1.161-0.194L131.819,7.19z"/>
		<path fill="#FFFFFF" d="M138.701,7.661c-0.357,0.146-0.82,0.227-1.202,0.227c-1.372,0-1.883-0.925-1.883-2.167
			c0-1.267,0.699-2.168,1.746-2.168c1.169,0,1.648,0.942,1.648,2.054v0.26h-2.833c0,0.876,0.471,1.583,1.364,1.583
			c0.373,0,0.917-0.154,1.161-0.308V7.661z M138.449,5.429c0-0.722-0.292-1.437-1.056-1.437c-0.754,0-1.217,0.755-1.217,1.437
			H138.449z"/>
		<path fill="#FFFFFF" d="M140.615,4.625c0-0.317,0-0.642-0.033-0.974h0.495V4.39h0.017c0.17-0.373,0.479-0.836,1.339-0.836
			c1.023,0,1.413,0.682,1.413,1.591v2.646h-0.512V5.274c0-0.779-0.276-1.283-0.982-1.283c-0.933,0-1.226,0.819-1.226,1.51v2.29
			h-0.511V4.625z"/>
		<path fill="#FFFFFF" d="M145.442,7.19c0.309,0.154,0.682,0.26,1.08,0.26c0.487,0,0.917-0.267,0.917-0.738
			c0-0.982-1.989-0.828-1.989-2.029c0-0.82,0.666-1.129,1.348-1.129c0.219,0,0.657,0.049,1.023,0.187l-0.049,0.447
			c-0.268-0.122-0.633-0.195-0.917-0.195c-0.527,0-0.893,0.163-0.893,0.69c0,0.771,2.038,0.674,2.038,2.029
			c0,0.876-0.82,1.176-1.445,1.176c-0.397,0-0.795-0.048-1.16-0.194L145.442,7.19z"/>
		<path fill="#FFFFFF" d="M152.242,4.203c-0.276-0.122-0.608-0.211-0.885-0.211c-0.998,0-1.559,0.722-1.559,1.729
			c0,0.942,0.568,1.729,1.502,1.729c0.325,0,0.625-0.073,0.934-0.187l0.049,0.479c-0.349,0.122-0.674,0.146-1.063,0.146
			c-1.332,0-1.981-1.014-1.981-2.167c0-1.274,0.82-2.168,2.046-2.168c0.495,0,0.852,0.114,0.999,0.163L152.242,4.203z"/>
		<path fill="#FFFFFF" d="M153.783,1.702h0.511v2.646h0.017c0.219-0.454,0.682-0.795,1.291-0.795c1.112,0,1.412,0.738,1.412,1.762
			v2.476h-0.511V5.323c0-0.715-0.138-1.332-0.982-1.332c-0.909,0-1.226,0.86-1.226,1.583v2.216h-0.511V1.702z"/>
		<path fill="#FFFFFF" d="M161.306,7.125h-0.017c-0.227,0.494-0.803,0.762-1.314,0.762c-1.177,0-1.364-0.795-1.364-1.169
			c0-1.388,1.478-1.453,2.549-1.453h0.098v-0.21c0-0.707-0.252-1.064-0.941-1.064c-0.431,0-0.836,0.097-1.218,0.341V3.837
			c0.317-0.154,0.852-0.284,1.218-0.284c1.023,0,1.453,0.463,1.453,1.543v1.827c0,0.332,0,0.584,0.04,0.868h-0.502V7.125z
			 M161.257,5.704h-0.146c-0.885,0-1.94,0.09-1.94,0.999c0,0.544,0.39,0.747,0.861,0.747c1.202,0,1.226-1.046,1.226-1.494V5.704z"/>
		<path fill="#FFFFFF" d="M163.966,4.089h-0.836V3.651h0.836V3.351c0-0.869,0.033-1.746,1.096-1.746
			c0.162,0,0.381,0.024,0.479,0.082l-0.033,0.446c-0.104-0.057-0.26-0.089-0.406-0.089c-0.698,0-0.625,0.755-0.625,1.25v0.358h0.934
			v0.438h-0.934v3.702h-0.511V4.089z"/>
		<path fill="#FFFFFF" d="M168.737,4.089h-0.942v2.68c0,0.373,0.139,0.681,0.552,0.681c0.194,0,0.324-0.041,0.47-0.097l0.033,0.421
			c-0.122,0.05-0.373,0.114-0.625,0.114c-0.909,0-0.942-0.625-0.942-1.379v-2.42h-0.811V3.651h0.811V2.652l0.512-0.179v1.178h0.942
			V4.089z"/>
		<path fill="#FFFFFF" d="M36.323,13.949c-0.357-0.186-0.869-0.243-1.267-0.243c-1.469,0-2.297,1.039-2.297,2.444
			c0,1.427,0.804,2.443,2.297,2.443c0.374,0,0.942-0.049,1.267-0.244l0.032,0.487c-0.308,0.187-0.941,0.244-1.299,0.244
			c-1.786,0-2.857-1.177-2.857-2.93c0-1.721,1.104-2.932,2.857-2.932c0.333,0,1.007,0.057,1.299,0.211L36.323,13.949z"/>
		<path fill="#FFFFFF" d="M40.038,14.745c1.339,0,1.933,1.039,1.933,2.167c0,1.129-0.593,2.168-1.933,2.168
			s-1.932-1.039-1.932-2.168C38.106,15.784,38.698,14.745,40.038,14.745z M40.038,18.642c0.894,0,1.373-0.771,1.373-1.729
			c0-0.958-0.479-1.729-1.373-1.729c-0.893,0-1.372,0.771-1.372,1.729C38.666,17.871,39.145,18.642,40.038,18.642z"/>
		<path fill="#FFFFFF" d="M43.567,15.816c0-0.317,0-0.641-0.033-0.974h0.495v0.739h0.016c0.171-0.374,0.479-0.836,1.34-0.836
			c1.022,0,1.412,0.682,1.412,1.59v2.646h-0.512v-2.516c0-0.779-0.275-1.283-0.982-1.283c-0.934,0-1.226,0.819-1.226,1.509v2.29
			h-0.511V15.816z"/>
		<path fill="#FFFFFF" d="M49.06,15.281h-0.836v-0.438h0.836v-0.3c0-0.869,0.032-1.747,1.096-1.747c0.163,0,0.382,0.025,0.479,0.083
			l-0.032,0.446c-0.105-0.057-0.26-0.089-0.406-0.089c-0.698,0-0.625,0.754-0.625,1.25v0.357h0.934v0.438h-0.934v3.701H49.06V15.281
			z"/>
		<path fill="#FFFFFF" d="M54.822,18.853c-0.357,0.146-0.82,0.227-1.202,0.227c-1.372,0-1.883-0.926-1.883-2.168
			c0-1.266,0.698-2.167,1.745-2.167c1.169,0,1.648,0.942,1.648,2.053v0.26h-2.833c0,0.878,0.471,1.584,1.364,1.584
			c0.374,0,0.917-0.154,1.161-0.308V18.853z M54.57,16.621c0-0.723-0.292-1.437-1.055-1.437c-0.755,0-1.218,0.755-1.218,1.437H54.57
			z M53.718,13.244h0.641l-1.022,1.168h-0.374L53.718,13.244z"/>
		<path fill="#FFFFFF" d="M60.014,18.982h-0.511v-0.657h-0.016c-0.276,0.528-0.699,0.755-1.291,0.755
			c-1.136,0-1.705-0.942-1.705-2.168c0-1.259,0.487-2.167,1.705-2.167c0.812,0,1.218,0.593,1.291,0.795h0.016v-2.646h0.511V18.982z
			 M58.277,18.642c0.909,0,1.226-0.975,1.226-1.729s-0.316-1.729-1.226-1.729c-0.974,0-1.226,0.925-1.226,1.729
			S57.303,18.642,58.277,18.642z"/>
		<path fill="#FFFFFF" d="M64.656,18.853c-0.357,0.146-0.82,0.227-1.202,0.227c-1.372,0-1.883-0.926-1.883-2.168
			c0-1.266,0.699-2.167,1.746-2.167c1.169,0,1.647,0.942,1.647,2.053v0.26h-2.833c0,0.878,0.471,1.584,1.364,1.584
			c0.374,0,0.917-0.154,1.161-0.308V18.853z M64.404,16.621c0-0.723-0.292-1.437-1.055-1.437c-0.755,0-1.218,0.755-1.218,1.437
			H64.404z M63.552,13.244h0.641l-1.023,1.168h-0.373L63.552,13.244z"/>
		<path fill="#FFFFFF" d="M66.569,15.768c0-0.454,0-0.625-0.033-0.925h0.512v0.795h0.016c0.187-0.462,0.536-0.893,1.064-0.893
			c0.121,0,0.268,0.023,0.356,0.049v0.535c-0.105-0.033-0.243-0.048-0.373-0.048c-0.812,0-1.031,0.909-1.031,1.656v2.045h-0.511
			V15.768z"/>
		<path fill="#FFFFFF" d="M72.282,18.316h-0.016c-0.228,0.496-0.804,0.764-1.315,0.764c-1.177,0-1.364-0.795-1.364-1.169
			c0-1.389,1.478-1.453,2.549-1.453h0.097v-0.211c0-0.707-0.251-1.063-0.941-1.063c-0.431,0-0.836,0.097-1.218,0.341v-0.496
			c0.316-0.154,0.853-0.283,1.218-0.283c1.022,0,1.453,0.463,1.453,1.542v1.827c0,0.333,0,0.585,0.041,0.868h-0.503V18.316z
			 M72.233,16.896h-0.146c-0.884,0-1.939,0.089-1.939,0.998c0,0.545,0.39,0.748,0.86,0.748c1.201,0,1.226-1.047,1.226-1.494V16.896z
			"/>
		<path fill="#FFFFFF" d="M76.379,15.281h-0.941v2.679c0,0.374,0.138,0.682,0.552,0.682c0.195,0,0.325-0.041,0.471-0.097
			l0.032,0.421c-0.122,0.049-0.374,0.114-0.625,0.114c-0.909,0-0.942-0.625-0.942-1.38v-2.419h-0.812v-0.438h0.812v-0.999
			l0.512-0.179v1.177h0.941V15.281z"/>
		<path fill="#FFFFFF" d="M78.439,13.738h-0.511v-0.682h0.511V13.738z M77.929,14.842h0.511v4.14h-0.511V14.842z"/>
		<path fill="#FFFFFF" d="M81.978,14.745c1.339,0,1.932,1.039,1.932,2.167c0,1.129-0.593,2.168-1.932,2.168
			s-1.932-1.039-1.932-2.168C80.046,15.784,80.638,14.745,81.978,14.745z M81.978,18.642c0.893,0,1.372-0.771,1.372-1.729
			c0-0.958-0.479-1.729-1.372-1.729c-0.893,0-1.372,0.771-1.372,1.729C80.606,17.871,81.085,18.642,81.978,18.642z"/>
		<path fill="#FFFFFF" d="M85.507,15.816c0-0.317,0-0.641-0.033-0.974h0.496v0.739h0.016c0.171-0.374,0.479-0.836,1.34-0.836
			c1.022,0,1.412,0.682,1.412,1.59v2.646h-0.512v-2.516c0-0.779-0.276-1.283-0.982-1.283c-0.934,0-1.226,0.819-1.226,1.509v2.29
			h-0.511V15.816z"/>
		<path fill="#FFFFFF" d="M93.223,18.382c0.308,0.154,0.682,0.26,1.08,0.26c0.487,0,0.917-0.268,0.917-0.739
			c0-0.982-1.989-0.828-1.989-2.03c0-0.819,0.666-1.128,1.348-1.128c0.219,0,0.658,0.049,1.023,0.186l-0.049,0.447
			c-0.268-0.122-0.633-0.194-0.917-0.194c-0.527,0-0.893,0.162-0.893,0.689c0,0.771,2.037,0.674,2.037,2.03
			c0,0.876-0.82,1.177-1.445,1.177c-0.397,0-0.795-0.05-1.161-0.195L93.223,18.382z"/>
		<path fill="#FFFFFF" d="M100.559,18.008c0,0.317,0,0.642,0.032,0.974h-0.495v-0.738h-0.016c-0.171,0.373-0.479,0.836-1.34,0.836
			c-1.022,0-1.412-0.682-1.412-1.591v-2.646h0.511v2.517c0,0.779,0.276,1.283,0.983,1.283c0.933,0,1.225-0.82,1.225-1.51v-2.29
			h0.512V18.008z"/>
		<path fill="#FFFFFF" d="M102.983,13.738h-0.511v-0.682h0.511V13.738z M102.472,14.842h0.511v4.14h-0.511V14.842z"/>
		<path fill="#FFFFFF" d="M104.589,18.382c0.308,0.154,0.682,0.26,1.08,0.26c0.487,0,0.917-0.268,0.917-0.739
			c0-0.982-1.989-0.828-1.989-2.03c0-0.819,0.666-1.128,1.348-1.128c0.219,0,0.657,0.049,1.022,0.186l-0.048,0.447
			c-0.269-0.122-0.634-0.194-0.918-0.194c-0.527,0-0.893,0.162-0.893,0.689c0,0.771,2.038,0.674,2.038,2.03
			c0,0.876-0.82,1.177-1.445,1.177c-0.397,0-0.795-0.05-1.161-0.195L104.589,18.382z"/>
		<path fill="#FFFFFF" d="M108.378,18.382c0.309,0.154,0.682,0.26,1.08,0.26c0.487,0,0.917-0.268,0.917-0.739
			c0-0.982-1.989-0.828-1.989-2.03c0-0.819,0.666-1.128,1.348-1.128c0.219,0,0.657,0.049,1.023,0.186l-0.049,0.447
			c-0.268-0.122-0.633-0.194-0.917-0.194c-0.527,0-0.893,0.162-0.893,0.689c0,0.771,2.038,0.674,2.038,2.03
			c0,0.876-0.82,1.177-1.445,1.177c-0.397,0-0.795-0.05-1.16-0.195L108.378,18.382z"/>
		<path fill="#FFFFFF" d="M115.261,18.853c-0.357,0.146-0.82,0.227-1.202,0.227c-1.372,0-1.883-0.926-1.883-2.168
			c0-1.266,0.699-2.167,1.746-2.167c1.169,0,1.648,0.942,1.648,2.053v0.26h-2.833c0,0.878,0.471,1.584,1.364,1.584
			c0.374,0,0.918-0.154,1.161-0.308V18.853z M115.009,16.621c0-0.723-0.292-1.437-1.055-1.437c-0.754,0-1.218,0.755-1.218,1.437
			H115.009z"/>
		<path fill="#FFFFFF" d="M36.323,25.142c-0.357-0.188-0.869-0.244-1.267-0.244c-1.469,0-2.297,1.039-2.297,2.443
			c0,1.429,0.804,2.443,2.297,2.443c0.374,0,0.942-0.049,1.267-0.243l0.032,0.486c-0.308,0.188-0.941,0.244-1.299,0.244
			c-1.786,0-2.857-1.178-2.857-2.931c0-1.722,1.104-2.931,2.857-2.931c0.333,0,1.007,0.057,1.299,0.212L36.323,25.142z"/>
		<path fill="#FFFFFF" d="M40.038,25.937c1.339,0,1.933,1.039,1.933,2.167c0,1.129-0.593,2.168-1.933,2.168
			s-1.932-1.039-1.932-2.168C38.106,26.976,38.698,25.937,40.038,25.937z M40.038,29.833c0.894,0,1.373-0.771,1.373-1.729
			c0-0.957-0.479-1.729-1.373-1.729c-0.893,0-1.372,0.771-1.372,1.729C38.666,29.062,39.145,29.833,40.038,29.833z"/>
		<path fill="#FFFFFF" d="M43.567,27.008c0-0.316,0-0.641-0.033-0.975h0.495v0.739h0.016c0.171-0.374,0.479-0.836,1.34-0.836
			c1.022,0,1.412,0.682,1.412,1.591v2.646h-0.512v-2.517c0-0.779-0.275-1.282-0.982-1.282c-0.934,0-1.226,0.82-1.226,1.51v2.289
			h-0.511V27.008z"/>
		<path fill="#FFFFFF" d="M49.06,26.473h-0.836v-0.439h0.836v-0.3c0-0.868,0.032-1.745,1.096-1.745c0.163,0,0.382,0.024,0.479,0.081
			l-0.032,0.446c-0.105-0.057-0.26-0.089-0.406-0.089c-0.698,0-0.625,0.755-0.625,1.25v0.356h0.934v0.439h-0.934v3.701H49.06V26.473
			z"/>
		<path fill="#FFFFFF" d="M54.822,30.044c-0.357,0.146-0.82,0.228-1.202,0.228c-1.372,0-1.883-0.926-1.883-2.168
			c0-1.266,0.698-2.167,1.745-2.167c1.169,0,1.648,0.941,1.648,2.054v0.26h-2.833c0,0.877,0.471,1.583,1.364,1.583
			c0.374,0,0.917-0.154,1.161-0.309V30.044z M54.57,27.812c0-0.722-0.292-1.437-1.055-1.437c-0.755,0-1.218,0.755-1.218,1.437H54.57
			z"/>
		<path fill="#FFFFFF" d="M60.014,30.174h-0.511v-0.658h-0.016c-0.276,0.528-0.699,0.756-1.291,0.756
			c-1.136,0-1.705-0.941-1.705-2.168c0-1.258,0.487-2.167,1.705-2.167c0.812,0,1.218,0.593,1.291,0.796h0.016v-2.646h0.511V30.174z
			 M58.277,29.833c0.909,0,1.226-0.974,1.226-1.729c0-0.754-0.316-1.729-1.226-1.729c-0.974,0-1.226,0.926-1.226,1.729
			C57.051,28.908,57.303,29.833,58.277,29.833z"/>
		<path fill="#FFFFFF" d="M64.656,30.044c-0.357,0.146-0.82,0.228-1.202,0.228c-1.372,0-1.883-0.926-1.883-2.168
			c0-1.266,0.699-2.167,1.746-2.167c1.169,0,1.647,0.941,1.647,2.054v0.26h-2.833c0,0.877,0.471,1.583,1.364,1.583
			c0.374,0,0.917-0.154,1.161-0.309V30.044z M64.404,27.812c0-0.722-0.292-1.437-1.055-1.437c-0.755,0-1.218,0.755-1.218,1.437
			H64.404z"/>
		<path fill="#FFFFFF" d="M66.569,26.96c0-0.455,0-0.626-0.033-0.927h0.512v0.797h0.016c0.187-0.463,0.536-0.894,1.064-0.894
			c0.121,0,0.268,0.024,0.356,0.049v0.536c-0.105-0.033-0.243-0.049-0.373-0.049c-0.812,0-1.031,0.908-1.031,1.656v2.045h-0.511
			V26.96z"/>
		<path fill="#FFFFFF" d="M72.282,29.508h-0.016c-0.228,0.496-0.804,0.764-1.315,0.764c-1.177,0-1.364-0.796-1.364-1.169
			c0-1.388,1.478-1.453,2.549-1.453h0.097v-0.212c0-0.705-0.251-1.062-0.941-1.062c-0.431,0-0.836,0.098-1.218,0.341v-0.495
			c0.316-0.154,0.853-0.284,1.218-0.284c1.022,0,1.453,0.462,1.453,1.543v1.825c0,0.334,0,0.585,0.041,0.869h-0.503V29.508z
			 M72.233,28.088h-0.146c-0.884,0-1.939,0.089-1.939,0.998c0,0.544,0.39,0.747,0.86,0.747c1.201,0,1.226-1.048,1.226-1.493V28.088z
			"/>
		<path fill="#FFFFFF" d="M74.212,29.744l2.492-3.271H74.31v-0.439h2.987v0.439l-2.492,3.263h2.492v0.438h-3.085V29.744z"/>
		<path fill="#FFFFFF" d="M79.34,24.93h-0.511v-0.682h0.511V24.93z M78.829,26.033h0.511v4.141h-0.511V26.033z"/>
		<path fill="#FFFFFF" d="M82.878,25.937c1.339,0,1.932,1.039,1.932,2.167c0,1.129-0.593,2.168-1.932,2.168
			c-1.34,0-1.932-1.039-1.932-2.168C80.946,26.976,81.538,25.937,82.878,25.937z M82.878,29.833c0.893,0,1.372-0.771,1.372-1.729
			c0-0.957-0.479-1.729-1.372-1.729s-1.372,0.771-1.372,1.729C81.506,29.062,81.985,29.833,82.878,29.833z"/>
		<path fill="#FFFFFF" d="M86.407,27.008c0-0.316,0-0.641-0.033-0.975h0.495v0.739h0.017c0.17-0.374,0.479-0.836,1.339-0.836
			c1.023,0,1.413,0.682,1.413,1.591v2.646h-0.512v-2.517c0-0.779-0.276-1.282-0.982-1.282c-0.934,0-1.226,0.82-1.226,1.51v2.289
			h-0.511V27.008z"/>
		<path fill="#FFFFFF" d="M94.328,30.044c-0.357,0.146-0.82,0.228-1.202,0.228c-1.372,0-1.883-0.926-1.883-2.168
			c0-1.266,0.698-2.167,1.746-2.167c1.169,0,1.647,0.941,1.647,2.054v0.26h-2.833c0,0.877,0.471,1.583,1.364,1.583
			c0.374,0,0.917-0.154,1.161-0.309V30.044z M94.076,27.812c0-0.722-0.292-1.437-1.055-1.437c-0.755,0-1.218,0.755-1.218,1.437
			H94.076z"/>
		<path fill="#FFFFFF" d="M99.032,29.451c0.333,0.211,0.722,0.333,1.25,0.333c0.698,0,1.274-0.356,1.274-1.161
			c0-1.111-2.598-1.25-2.598-2.735c0-0.909,0.795-1.478,1.794-1.478c0.276,0,0.722,0.041,1.112,0.188l-0.089,0.511
			c-0.252-0.138-0.649-0.211-1.031-0.211c-0.584,0-1.226,0.244-1.226,0.974c0,1.137,2.598,1.145,2.598,2.801
			c0,1.146-0.982,1.6-1.859,1.6c-0.552,0-0.982-0.113-1.283-0.244L99.032,29.451z"/>
		<path fill="#FFFFFF" d="M105.256,30.174h-0.601l-1.404-4.141h0.56l1.145,3.58h0.017l1.201-3.58h0.536L105.256,30.174z"/>
		<path fill="#FFFFFF" d="M108.565,24.93h-0.511v-0.682h0.511V24.93z M108.054,26.033h0.511v4.141h-0.511V26.033z"/>
		<path fill="#FFFFFF" d="M110.106,29.744l2.492-3.271h-2.395v-0.439h2.987v0.439l-2.492,3.263h2.492v0.438h-3.084V29.744z"/>
		<path fill="#FFFFFF" d="M114.342,29.744l2.492-3.271h-2.395v-0.439h2.987v0.439l-2.492,3.263h2.492v0.438h-3.084V29.744z"/>
		<path fill="#FFFFFF" d="M121.735,30.044c-0.357,0.146-0.82,0.228-1.202,0.228c-1.372,0-1.883-0.926-1.883-2.168
			c0-1.266,0.698-2.167,1.746-2.167c1.169,0,1.648,0.941,1.648,2.054v0.26h-2.833c0,0.877,0.471,1.583,1.364,1.583
			c0.374,0,0.918-0.154,1.161-0.309V30.044z M121.483,27.812c0-0.722-0.292-1.437-1.055-1.437c-0.755,0-1.218,0.755-1.218,1.437
			H121.483z"/>
		<path fill="#FFFFFF" d="M123.649,26.96c0-0.455,0-0.626-0.033-0.927h0.511v0.797h0.016c0.187-0.463,0.536-0.894,1.064-0.894
			c0.121,0,0.268,0.024,0.357,0.049v0.536c-0.106-0.033-0.244-0.049-0.374-0.049c-0.812,0-1.031,0.908-1.031,1.656v2.045h-0.511
			V26.96z"/>
		<path fill="#FFFFFF" d="M129.362,29.508h-0.016c-0.228,0.496-0.804,0.764-1.315,0.764c-1.177,0-1.364-0.796-1.364-1.169
			c0-1.388,1.478-1.453,2.549-1.453h0.097v-0.212c0-0.705-0.251-1.062-0.941-1.062c-0.43,0-0.836,0.098-1.218,0.341v-0.495
			c0.316-0.154,0.853-0.284,1.218-0.284c1.022,0,1.453,0.462,1.453,1.543v1.825c0,0.334,0,0.585,0.041,0.869h-0.503V29.508z
			 M129.313,28.088h-0.146c-0.884,0-1.939,0.089-1.939,0.998c0,0.544,0.39,0.747,0.86,0.747c1.201,0,1.226-1.048,1.226-1.493V28.088
			z"/>
		<path fill="#FFFFFF" d="M36.323,36.332c-0.357-0.187-0.869-0.244-1.267-0.244c-1.469,0-2.297,1.039-2.297,2.444
			c0,1.429,0.804,2.443,2.297,2.443c0.374,0,0.942-0.049,1.267-0.243l0.032,0.485c-0.308,0.188-0.941,0.244-1.299,0.244
			c-1.786,0-2.857-1.178-2.857-2.93c0-1.722,1.104-2.931,2.857-2.931c0.333,0,1.007,0.056,1.299,0.211L36.323,36.332z"/>
		<path fill="#FFFFFF" d="M40.038,37.127c1.339,0,1.933,1.039,1.933,2.167c0,1.129-0.593,2.168-1.933,2.168
			s-1.932-1.039-1.932-2.168C38.106,38.166,38.698,37.127,40.038,37.127z M40.038,41.023c0.894,0,1.373-0.771,1.373-1.729
			c0-0.956-0.479-1.729-1.373-1.729c-0.893,0-1.372,0.772-1.372,1.729C38.666,40.253,39.145,41.023,40.038,41.023z"/>
		<path fill="#FFFFFF" d="M43.567,38.199c0-0.316,0-0.641-0.033-0.975h0.495v0.739h0.016c0.171-0.374,0.479-0.837,1.34-0.837
			c1.022,0,1.412,0.683,1.412,1.592v2.646h-0.512v-2.517c0-0.779-0.275-1.283-0.982-1.283c-0.934,0-1.226,0.82-1.226,1.51v2.29
			h-0.511V38.199z"/>
		<path fill="#FFFFFF" d="M49.06,37.664h-0.836v-0.439h0.836v-0.3c0-0.868,0.032-1.746,1.096-1.746c0.163,0,0.382,0.024,0.479,0.082
			l-0.032,0.446c-0.105-0.057-0.26-0.09-0.406-0.09c-0.698,0-0.625,0.755-0.625,1.25v0.357h0.934v0.439h-0.934v3.701H49.06V37.664z"
			/>
		<path fill="#FFFFFF" d="M54.822,41.235c-0.357,0.146-0.82,0.227-1.202,0.227c-1.372,0-1.883-0.925-1.883-2.168
			c0-1.265,0.698-2.167,1.745-2.167c1.169,0,1.648,0.942,1.648,2.055v0.26h-2.833c0,0.877,0.471,1.582,1.364,1.582
			c0.374,0,0.917-0.154,1.161-0.308V41.235z M54.57,39.003c0-0.723-0.292-1.438-1.055-1.438c-0.755,0-1.218,0.755-1.218,1.438H54.57
			z"/>
		<path fill="#FFFFFF" d="M60.014,41.365h-0.511v-0.658h-0.016c-0.276,0.528-0.699,0.755-1.291,0.755
			c-1.136,0-1.705-0.94-1.705-2.168c0-1.258,0.487-2.167,1.705-2.167c0.812,0,1.218,0.594,1.291,0.797h0.016v-2.646h0.511V41.365z
			 M58.277,41.023c0.909,0,1.226-0.974,1.226-1.729c0-0.754-0.316-1.729-1.226-1.729c-0.974,0-1.226,0.926-1.226,1.729
			C57.051,40.099,57.303,41.023,58.277,41.023z"/>
		<path fill="#FFFFFF" d="M64.656,41.235c-0.357,0.146-0.82,0.227-1.202,0.227c-1.372,0-1.883-0.925-1.883-2.168
			c0-1.265,0.699-2.167,1.746-2.167c1.169,0,1.647,0.942,1.647,2.055v0.26h-2.833c0,0.877,0.471,1.582,1.364,1.582
			c0.374,0,0.917-0.154,1.161-0.308V41.235z M64.404,39.003c0-0.723-0.292-1.438-1.055-1.438c-0.755,0-1.218,0.755-1.218,1.438
			H64.404z"/>
		<path fill="#FFFFFF" d="M66.569,38.15c0-0.455,0-0.625-0.033-0.926h0.512v0.796h0.016c0.187-0.462,0.536-0.894,1.064-0.894
			c0.121,0,0.268,0.024,0.356,0.049v0.536c-0.105-0.032-0.243-0.048-0.373-0.048c-0.812,0-1.031,0.908-1.031,1.655v2.046h-0.511
			V38.15z"/>
		<path fill="#FFFFFF" d="M72.282,40.698h-0.016c-0.228,0.497-0.804,0.764-1.315,0.764c-1.177,0-1.364-0.795-1.364-1.169
			c0-1.388,1.478-1.453,2.549-1.453h0.097v-0.211c0-0.705-0.251-1.063-0.941-1.063c-0.431,0-0.836,0.099-1.218,0.341v-0.495
			c0.316-0.154,0.853-0.284,1.218-0.284c1.022,0,1.453,0.463,1.453,1.543v1.826c0,0.333,0,0.585,0.041,0.869h-0.503V40.698z
			 M72.233,39.279h-0.146c-0.884,0-1.939,0.089-1.939,0.998c0,0.544,0.39,0.746,0.86,0.746c1.201,0,1.226-1.047,1.226-1.493V39.279z
			"/>
		<path fill="#FFFFFF" d="M74.212,40.936l2.492-3.271H74.31v-0.439h2.987v0.439l-2.492,3.263h2.492v0.438h-3.085V40.936z"/>
		<path fill="#FFFFFF" d="M79.34,36.121h-0.511v-0.683h0.511V36.121z M78.829,37.225h0.511v4.141h-0.511V37.225z"/>
		<path fill="#FFFFFF" d="M84.493,40.391c0,0.316,0,0.642,0.032,0.975h-0.495v-0.738h-0.016c-0.171,0.373-0.479,0.835-1.34,0.835
			c-1.022,0-1.412-0.681-1.412-1.591v-2.646h0.511v2.518c0,0.779,0.276,1.281,0.982,1.281c0.934,0,1.226-0.819,1.226-1.51v-2.289
			h0.511V40.391z"/>
		<path fill="#FFFFFF" d="M86.407,38.199c0-0.316,0-0.641-0.033-0.975h0.495v0.739h0.017c0.17-0.374,0.479-0.837,1.339-0.837
			c1.023,0,1.413,0.683,1.413,1.592v2.646h-0.512v-2.517c0-0.779-0.276-1.283-0.982-1.283c-0.934,0-1.226,0.82-1.226,1.51v2.29
			h-0.511V38.199z"/>
		<path fill="#FFFFFF" d="M94.123,40.764c0.309,0.154,0.682,0.26,1.08,0.26c0.487,0,0.917-0.268,0.917-0.739
			c0-0.981-1.989-0.827-1.989-2.029c0-0.819,0.666-1.128,1.348-1.128c0.219,0,0.657,0.049,1.022,0.188l-0.048,0.446
			c-0.268-0.122-0.634-0.195-0.917-0.195c-0.527,0-0.893,0.163-0.893,0.689c0,0.772,2.038,0.675,2.038,2.029
			c0,0.878-0.82,1.178-1.445,1.178c-0.397,0-0.795-0.049-1.16-0.194L94.123,40.764z"/>
		<path fill="#FFFFFF" d="M99.666,41.365h-0.601l-1.404-4.141h0.56l1.145,3.579h0.017l1.201-3.579h0.536L99.666,41.365z"/>
		<path fill="#FFFFFF" d="M102.975,36.121h-0.511v-0.683h0.511V36.121z M102.464,37.225h0.511v4.141h-0.511V37.225z"/>
		<path fill="#FFFFFF" d="M104.517,40.936l2.492-3.271h-2.395v-0.439h2.987v0.439l-2.492,3.263h2.492v0.438h-3.084V40.936z"/>
		<path fill="#FFFFFF" d="M109.133,38.15c0-0.455,0-0.625-0.032-0.926h0.511v0.796h0.017c0.186-0.462,0.535-0.894,1.063-0.894
			c0.122,0,0.268,0.024,0.357,0.049v0.536c-0.106-0.032-0.244-0.048-0.374-0.048c-0.812,0-1.031,0.908-1.031,1.655v2.046h-0.511
			V38.15z"/>
		<path fill="#FFFFFF" d="M114.846,40.698h-0.016c-0.228,0.497-0.804,0.764-1.315,0.764c-1.177,0-1.364-0.795-1.364-1.169
			c0-1.388,1.478-1.453,2.549-1.453h0.097v-0.211c0-0.705-0.251-1.063-0.941-1.063c-0.43,0-0.836,0.099-1.218,0.341v-0.495
			c0.317-0.154,0.853-0.284,1.218-0.284c1.022,0,1.453,0.463,1.453,1.543v1.826c0,0.333,0,0.585,0.041,0.869h-0.504V40.698z
			 M114.797,39.279h-0.146c-0.885,0-1.94,0.089-1.94,0.998c0,0.544,0.39,0.746,0.861,0.746c1.201,0,1.226-1.047,1.226-1.493V39.279z
			"/>
	</g>
	<g>
		<g>
			<path fill="#E20613" d="M22.994,1.879c0,0-4.292-1.879-11.476-1.879h-0.002C4.331,0,0.038,1.879,0.038,1.879
				s-0.384,8.323,1.245,13.028c2.877,8.273,10.231,10.598,10.231,10.598h0.002h0.002c0,0,7.353-2.325,10.231-10.598
				C23.379,10.203,22.994,1.879,22.994,1.879z"/>
		</g>
		<polygon fill="#FFFFFF" points="19.144,9.054 19.144,13.639 13.794,13.639 13.794,18.988 9.209,18.988 9.209,13.639 3.86,13.639 
			3.86,9.054 9.209,9.054 9.209,3.707 13.793,3.707 13.794,9.054 		"/>
	</g>
</g>
</svg>
