<?xml version="1.0" encoding="utf-8"?>
<!-- Generator: Adobe Illustrator 16.0.4, SVG Export Plug-In . SVG Version: 6.00 Build 0)  -->
<!DOCTYPE svg PUBLIC "-//W3C//DTD SVG 1.1//EN" "http://www.w3.org/Graphics/SVG/1.1/DTD/svg11.dtd">
<svg version="1.1" id="Ebene_1" xmlns="http://www.w3.org/2000/svg" xmlns:xlink="http://www.w3.org/1999/xlink" x="0px" y="0px"
	 width="54px" height="30px" viewBox="0 0 54 30" style="enable-background:new 0 0 54 30;" xml:space="preserve">
<style type="text/css">
<![CDATA[
	.st0{fill:none;stroke:#54A8B6;stroke-width:2;stroke-linecap:round;stroke-linejoin:round;stroke-miterlimit:10;}
	.st1{fill:none;stroke:#54A8B6;stroke-width:2;stroke-linejoin:round;stroke-miterlimit:10;}
	.st2{fill:none;stroke:#54A8B6;stroke-width:2;stroke-linecap:round;stroke-miterlimit:10;}
]]>
</style>
<g>
	<path class="st1" d="M20.7,14.6c2.3,0,4.2-1.9,4.2-4.2c0-2.3-1.9-4.2-4.2-4.2s-4.2,1.9-4.2,4.2C16.5,12.7,18.4,14.6,20.7,14.6z
		 M20.7,16.6c-2.8,0-8.3,1.4-8.3,4.2v2.1H29v-2.1C29,18,23.4,16.6,20.7,16.6z"/>
	<path class="st2" d="M3.2,17.6v2.6 M3.2,8.9v3.5 M3.2,25.5c0,1.9,1.6,3.5,3.5,3.5h28c1.9,0,3.5-1.6,3.5-3.5v-21
		c0-1.9-1.6-3.5-3.5-3.5h-28C5,1,3.7,2.1,3.3,3.6"/>
	<g>
		<line class="st0" x1="1" y1="6" x2="6" y2="6"/>
		<line class="st0" x1="1" y1="23" x2="6" y2="23"/>
		<line class="st0" x1="1" y1="15" x2="6" y2="15"/>
	</g>
	<g>
		<line class="st0" x1="41" y1="25" x2="46" y2="25"/>
		<path class="st2" d="M39.9,28.9c0.6,0.1,1.2,0.1,1.8,0.1C47.9,29,53,23.9,53,17.7S47.9,6.3,41.7,6.3c-0.3,0-0.6,0-0.9,0 M40.8,15
			c0.3-0.1,0.6-0.1,0.9-0.1c1.6,0,2.8,1.3,2.8,2.8s-1.3,2.8-2.8,2.8c-0.3,0-0.6,0-0.9-0.1"/>
	</g>
</g>
</svg>
