<?xml version="1.0" encoding="utf-8"?>
<!-- Generator: Adobe Illustrator 26.3.1, SVG Export Plug-In . SVG Version: 6.00 Build 0)  -->
<svg version="1.1" id="Ebene_1" xmlns="http://www.w3.org/2000/svg" xmlns:xlink="http://www.w3.org/1999/xlink" x="0px" y="0px"
	 viewBox="0 0 50.3 34" style="enable-background:new 0 0 50.3 34;" xml:space="preserve">
<style type="text/css">
	.st0{fill:none;stroke:#2E264D;stroke-width:2;stroke-linejoin:round;stroke-miterlimit:10;}
	.st1{fill:none;stroke:#2E264D;stroke-width:2;stroke-linecap:round;stroke-linejoin:round;stroke-miterlimit:10;}
</style>
<g>
	<g>
		<path class="st0" d="M46.3,6.9h-9.5c-1.6,0-3,1.3-3,3V30c0,1.6,1.3,3,3,3h9.5c1.6,0,3-1.3,3-3V9.9C49.3,8.3,48,6.9,46.3,6.9z"/>
		<circle class="st0" cx="41.6" cy="30" r="0.9"/>
		<rect x="36.3" y="10.5" class="st0" width="10.7" height="16.6"/>
	</g>
	<path class="st1" d="M45.4,4c0-2.2-1.8-3-4-3H5C2.8,1,1,2.8,1,5v24c0,2.2,1.8,4,4,4h27.1 M30.7,29H9.1V5h20.8"/>
</g>
</svg>
