<?xml version="1.0" encoding="utf-8"?>
<!-- Generator: Adobe Illustrator 16.0.4, SVG Export Plug-In . SVG Version: 6.00 Build 0)  -->
<!DOCTYPE svg PUBLIC "-//W3C//DTD SVG 1.1//EN" "http://www.w3.org/Graphics/SVG/1.1/DTD/svg11.dtd">
<svg version="1.1" id="Ebene_1" xmlns="http://www.w3.org/2000/svg" xmlns:xlink="http://www.w3.org/1999/xlink" x="0px" y="0px"
	 width="50.2px" height="34px" viewBox="0 0 50.2 34" enable-background="new 0 0 50.2 34" xml:space="preserve">
<path fill="none" stroke="#53A8B6" stroke-width="2" stroke-linecap="round" stroke-linejoin="round" stroke-miterlimit="10" d="
	M36.2,9.2v-5C36.2,2.4,34.799,1,33,1H4.2C2.4,1,1,2.4,1,4.2v19.2C1,25.2,2.4,26.6,4.2,26.6h11.2L12.2,31.4V33H25v-1.6L21.8,26.6h4.6
	 M25.4,20.2H4.2v-16H33v5"/>
<path fill="none" stroke="#53A8B6" stroke-width="2" stroke-linecap="round" stroke-linejoin="round" stroke-miterlimit="10" d="
	M49.2,30.4V14.7c0-1.4-1.199-2.6-2.6-2.6H31c-1.4,0-2.601,1.2-2.601,2.6v15.6c0,1.4,1.2,2.601,2.601,2.601h15.6
	C48.1,33,49.2,31.8,49.2,30.4z"/>
<polygon fill="none" stroke="#53A8B6" stroke-width="2" stroke-linecap="round" stroke-linejoin="round" stroke-miterlimit="10" points="
	35,23.9 37.6,27.4 41.5,22.6 46.7,29.1 31.1,29.1 "/>
<path fill="none" stroke="#53A8B6" stroke-width="2" stroke-linecap="round" stroke-linejoin="round" stroke-miterlimit="10" d="
	M26.4,16.7"/>
<path fill="none" stroke="#53A8B6" stroke-width="2" stroke-linecap="round" stroke-linejoin="round" stroke-miterlimit="10" d="
	M29.1,10.3"/>
</svg>
