<?xml version="1.0" encoding="utf-8"?>
<!-- Generator: Adobe Illustrator 16.0.4, SVG Export Plug-In . SVG Version: 6.00 Build 0)  -->
<!DOCTYPE svg PUBLIC "-//W3C//DTD SVG 1.1//EN" "http://www.w3.org/Graphics/SVG/1.1/DTD/svg11.dtd">
<svg version="1.1" id="Ebene_1" xmlns="http://www.w3.org/2000/svg" xmlns:xlink="http://www.w3.org/1999/xlink" x="0px" y="0px"
	 width="60.6px" height="34px" viewBox="0 0 60.6 34" style="enable-background:new 0 0 60.6 34;" xml:space="preserve">
<style type="text/css">
<![CDATA[
	.st0{fill:none;stroke:#53A8B6;stroke-width:2;stroke-linejoin:round;stroke-miterlimit:10;}
	.st1{fill:none;stroke:#53A8B6;stroke-width:2;stroke-miterlimit:10;}
	.st2{fill:none;stroke:#53A8B6;stroke-width:2;stroke-linecap:round;stroke-linejoin:round;stroke-miterlimit:10;}
]]>
</style>
<g>
	<polyline class="st2" points="36.8,20 50.2,20 50.2,24.7 50.2,25.6 50.2,33 37.1,33 	"/>
	<path class="st2" d="M52.1,27h7.4V15.8c0-3.1-2.5-5.6-5.6-5.6H38.5"/>
	<path class="st0" d="M53.7,17.7c-1,0-1.9-0.8-1.9-1.9s0.8-1.9,1.9-1.9s1.9,0.8,1.9,1.9S54.7,17.7,53.7,17.7z"/>
	<polyline class="st2" points="36.6,10.3 50,10.3 50,1 27.7,1 27.7,2.9 	"/>
	<g>
		<path class="st1" d="M1,7.1v23.7c0,0.6,0.6,1,1.1,1c4.1-0.6,8.2-0.4,12.3,1.2c0.6,0.3,1.4-0.2,1.4-0.9V8.5c0-0.4-0.2-0.8-0.6-0.9
			c-4.5-2-9-2.1-13.4-1.4C1.3,6.2,1,6.6,1,7.1z"/>
		<path class="st1" d="M33.5,7.1v23.7c0,0.6-0.6,1-1.1,1c-4.1-0.6-8.2-0.4-12.3,1.2c-0.6,0.3-1.4-0.2-1.4-0.9V8.5
			c0-0.4,0.2-0.8,0.6-0.9c4.4-2,8.9-2.1,13.3-1.4C33.1,6.2,33.5,6.6,33.5,7.1z"/>
	</g>
</g>
</svg>
