<?xml version="1.0" encoding="utf-8"?>
<!-- Generator: Adobe Illustrator 16.0.4, SVG Export Plug-In . SVG Version: 6.00 Build 0)  -->
<!DOCTYPE svg PUBLIC "-//W3C//DTD SVG 1.1//EN" "http://www.w3.org/Graphics/SVG/1.1/DTD/svg11.dtd">
<svg version="1.1" id="Ebene_1" xmlns="http://www.w3.org/2000/svg" xmlns:xlink="http://www.w3.org/1999/xlink" x="0px" y="0px"
	 width="34px" height="42px" viewBox="0 0 34 42" style="enable-background:new 0 0 34 42;" xml:space="preserve">
<style type="text/css">
<![CDATA[
	.st0{fill:none;stroke:#53A8B6;stroke-width:2;stroke-miterlimit:10;}
	.st1{fill:none;stroke:#53A8B6;stroke-width:2;stroke-linecap:round;stroke-linejoin:round;stroke-miterlimit:10;}
]]>
</style>
<g>
	<path class="st0" d="M29,1H5C2.8,1,1,2.8,1,5v32c0,2.2,1.8,4,4,4h24c2.2,0,4-1.8,4-4V5C33,2.8,31.2,1,29,1z"/>
	<polyline class="st1" points="10.9,11.4 7.4,14.4 5.9,13 	"/>
	<line class="st1" x1="15" y1="13" x2="28" y2="13"/>
	<polyline class="st1" points="10.9,19.4 7.4,22.4 5.9,21 	"/>
	<line class="st1" x1="15" y1="21" x2="28" y2="21"/>
	<line class="st1" x1="15" y1="29" x2="28" y2="29"/>
	<circle class="st1" cx="8.4" cy="28.9" r="1.7"/>
</g>
</svg>
