<?xml version="1.0" encoding="utf-8"?>
<!-- Generator: Adobe Illustrator 26.3.1, SVG Export Plug-In . SVG Version: 6.00 Build 0)  -->
<svg version="1.1" id="Ebene_1" xmlns="http://www.w3.org/2000/svg" xmlns:xlink="http://www.w3.org/1999/xlink" x="0px" y="0px"
	 viewBox="0 0 56.2 44.5" style="enable-background:new 0 0 56.2 44.5;" xml:space="preserve">
<style type="text/css">
	.st0{fill:none;stroke:#2E264D;stroke-width:2;stroke-linecap:round;stroke-miterlimit:10;}
	.st1{fill:none;stroke:#2E264D;stroke-width:2;stroke-linecap:round;stroke-linejoin:round;stroke-miterlimit:10;}
</style>
<g>
	<path class="st0" d="M37.8,42.5c0.8,0.1,1.6,0.2,2.4,0.2c1.4,0,2.5-1.1,2.5-2.5c0-0.7-0.2-1.2-0.7-1.7c-0.4-0.4-0.6-1-0.6-1.7
		c0-1.4,1.1-2.5,2.5-2.5h3c4.6,0,8.4-3.8,8.4-8.4c0-7.2-6.4-13.1-14.4-13.4 M44.3,20.9c-1.4,0-2.5-1.1-2.5-2.5s1.1-2.5,2.5-2.5
		s2.5,1.1,2.5,2.5S45.7,20.9,44.3,20.9z M49.4,27.6c-1.4,0-2.5-1.1-2.5-2.5s1.1-2.5,2.5-2.5s2.5,1.1,2.5,2.5S50.8,27.6,49.4,27.6z"
		/>
	<g>
		<path class="st1" d="M21.9,41c0,0.9,0.8,1.7,1.7,1.7h6.7c0.9,0,1.7-0.8,1.7-1.7v-1.7H21.9V41z M20.2,34.2L20.2,34.2
			c0,1,0.8,1.7,1.7,1.7H32c0.9,0,1.7-0.8,1.7-1.7v-3.8c3-2.1,5-5.6,5-9.6c0-6.5-5.3-11.7-11.7-11.7c-6.5,0-11.7,5.3-11.7,11.7
			c0,0.3,0,0.7,0,1"/>
		<path class="st0" d="M15.3,21.9c0-0.3,0-0.7,0-1.1c0-6.5,5.2-11.7,11.7-11.7s11.7,5.2,11.7,11.7S33.5,32.5,27,32.5
			c-1.3,0-2.6-0.2-3.8-0.6"/>
		<line class="st1" x1="27" y1="4.4" x2="27" y2="1"/>
		<line class="st1" x1="17.9" y1="5.1" x2="16.2" y2="2.2"/>
		<line class="st1" x1="8.8" y1="20.8" x2="5.5" y2="20.8"/>
		<line class="st1" x1="36.1" y1="5.1" x2="37.7" y2="2.2"/>
		<line class="st1" x1="12.7" y1="12.6" x2="9.8" y2="10.9"/>
	</g>
	<path class="st1" d="M9.4,31.8c-2.8,0-5,2.3-5,5c0,2.2-1.9,3.4-3.4,3.4c1.5,2,4.2,3.4,6.7,3.4c3.7,0,6.7-3,6.7-6.7
		C14.4,34,12.2,31.8,9.4,31.8z M32.3,16.1l-2.2-2.2c-0.7-0.7-1.7-0.7-2.4,0l-15,15l4.6,4.6l15-15C33,17.8,33,16.7,32.3,16.1z"/>
</g>
</svg>
