<?xml version="1.0" encoding="utf-8"?>
<!-- Generator: Adobe Illustrator 16.0.4, SVG Export Plug-In . SVG Version: 6.00 Build 0)  -->
<!DOCTYPE svg PUBLIC "-//W3C//DTD SVG 1.1//EN" "http://www.w3.org/Graphics/SVG/1.1/DTD/svg11.dtd">
<svg version="1.1" id="Ebene_1" xmlns="http://www.w3.org/2000/svg" xmlns:xlink="http://www.w3.org/1999/xlink" x="0px" y="0px"
	 width="34px" height="42px" viewBox="0 0 34 42" style="enable-background:new 0 0 34 42;" xml:space="preserve">
<style type="text/css">
<![CDATA[
	.st0{fill:none;stroke:#54A8B6;stroke-width:2;stroke-miterlimit:10;}
	.st1{fill:none;stroke:#54A8B6;stroke-width:2;stroke-linecap:round;stroke-linejoin:round;stroke-miterlimit:10;}
	.st2{fill:none;stroke:#54A8B6;stroke-width:2;stroke-linejoin:round;stroke-miterlimit:10;}
]]>
</style>
<g>
	<path class="st2" d="M17,19.7c2.6,0,4.8-2.1,4.8-4.8c0-2.6-2.1-4.8-4.8-4.8s-4.8,2.1-4.8,4.8C12.2,17.6,14.4,19.7,17,19.7z
		 M17,22.1c-3.2,0-9.5,1.6-9.5,4.8v2.4h19v-2.4C26.5,23.7,20.2,22.1,17,22.1z"/>
	<path class="st0" d="M29,1H5C2.8,1,1,2.8,1,5v32c0,2.2,1.8,4,4,4h24c2.2,0,4-1.8,4-4V5C33,2.8,31.2,1,29,1z"/>
	<line class="st1" x1="10" y1="34" x2="23" y2="34"/>
</g>
</svg>
