<?xml version="1.0" encoding="utf-8"?>
<!-- Generator: Adobe Illustrator 26.3.1, SVG Export Plug-In . SVG Version: 6.00 Build 0)  -->
<svg version="1.1" id="Ebene_1" xmlns="http://www.w3.org/2000/svg" xmlns:xlink="http://www.w3.org/1999/xlink" x="0px" y="0px"
	 viewBox="0 0 50.2 34" style="enable-background:new 0 0 50.2 34;" xml:space="preserve">
<style type="text/css">
	.st0{fill:none;stroke:#2E264D;stroke-width:2;stroke-linecap:round;stroke-linejoin:round;stroke-miterlimit:10;}
</style>
<path class="st0" d="M36.2,9.2v-5C36.2,2.4,34.8,1,33,1H4.2C2.4,1,1,2.4,1,4.2v19.2c0,1.8,1.4,3.2,3.2,3.2h11.2l-3.2,4.8V33H25v-1.6
	l-3.2-4.8h4.6 M25.4,20.2H4.2v-16H33v5"/>
<path class="st0" d="M49.2,30.4V14.7c0-1.4-1.2-2.6-2.6-2.6H31c-1.4,0-2.6,1.2-2.6,2.6v15.6c0,1.4,1.2,2.6,2.6,2.6h15.6
	C48.1,33,49.2,31.8,49.2,30.4z"/>
<polygon class="st0" points="35,23.9 37.6,27.4 41.5,22.6 46.7,29.1 31.1,29.1 "/>
<path class="st0" d="M26.4,16.7"/>
<path class="st0" d="M29.1,10.3"/>
</svg>
