<?xml version="1.0" encoding="utf-8"?>
<!-- Generator: Adobe Illustrator 26.3.1, SVG Export Plug-In . SVG Version: 6.00 Build 0)  -->
<svg version="1.1" id="Ebene_1" xmlns="http://www.w3.org/2000/svg" xmlns:xlink="http://www.w3.org/1999/xlink" x="0px" y="0px"
	 viewBox="0 0 57 28" style="enable-background:new 0 0 57 28;" xml:space="preserve">
<style type="text/css">
	.st0{fill:none;stroke:#2E264D;stroke-width:2;stroke-linejoin:round;stroke-miterlimit:10;}
	.st1{fill:none;stroke:#2E264D;stroke-width:2;stroke-linecap:round;stroke-linejoin:round;stroke-miterlimit:10;}
</style>
<g>
	<path class="st0" d="M28.5,14c3.6,0,6.5-2.9,6.5-6.5S32.1,1,28.5,1S22,3.9,22,7.5S24.9,14,28.5,14z M28.5,17.3
		c-4.3,0-13,2.2-13,6.5V27h26v-3.3C41.5,19.4,32.8,17.3,28.5,17.3z"/>
	<path class="st1" d="M44.7,15.8c3.1,0,5.6-2.5,5.6-5.6s-2.5-5.6-5.6-5.6s-5.6,2.5-5.6,5.6C39.1,13.3,41.6,15.8,44.7,15.8z M43.9,27
		h12v-2.8c0-3.7-7.5-5.6-11.2-5.6c-0.9,0-2.1,0.1-3.3,0.3"/>
	<path class="st1" d="M17.8,10.2c0-3.1-2.5-5.6-5.6-5.6s-5.6,2.5-5.6,5.6s2.5,5.6,5.6,5.6C15.3,15.8,17.8,13.3,17.8,10.2z
		 M15.5,18.9c-1.2-0.2-2.3-0.3-3.3-0.3C8.5,18.6,1,20.5,1,24.2V27h12"/>
</g>
</svg>
