<?xml version="1.0" encoding="utf-8"?>
<!-- Generator: Adobe Illustrator 16.0.4, SVG Export Plug-In . SVG Version: 6.00 Build 0)  -->
<!DOCTYPE svg PUBLIC "-//W3C//DTD SVG 1.1//EN" "http://www.w3.org/Graphics/SVG/1.1/DTD/svg11.dtd">
<svg version="1.1" id="Ebene_1" xmlns="http://www.w3.org/2000/svg" xmlns:xlink="http://www.w3.org/1999/xlink" x="0px" y="0px"
	 width="57.3px" height="40.8px" viewBox="0 0 57.3 40.8" style="enable-background:new 0 0 57.3 40.8;" xml:space="preserve">
<style type="text/css">
<![CDATA[
	.st0{fill:none;stroke:#53A8B6;stroke-width:2;stroke-linejoin:round;stroke-miterlimit:10;}
	.st1{fill:none;stroke:#53A8B6;stroke-width:2;stroke-linecap:round;stroke-linejoin:round;stroke-miterlimit:10;}
]]>
</style>
<g>
	<path class="st0" d="M35.1,19.5h-2.8v-7.4c0-2-1.7-3.7-3.7-3.7h-7.4V5.6c0-2.5-2.1-4.6-4.6-4.6s-4.6,2.1-4.6,4.6v2.8H4.7
		C2.7,8.4,1,10,1,12.1l0,7h2.8c2.7,0,5,2.2,5,5s-2.2,5-5,5H1l0,7c0,2,1.7,3.7,3.7,3.7h7V37c0-2.8,2.2-5,5-5c2.7,0,5,2.2,5,5v2.8h7
		c2,0,3.7-1.7,3.7-3.7v-7.4h2.8c2.5,0,4.6-2.1,4.6-4.6S37.7,19.5,35.1,19.5z"/>
	<path class="st1" d="M35.8,38.8H42c0.5,0,0.8-0.3,0.9-0.8l0.7-4.9c1.1-0.5,2.2-1.1,3.1-1.8l4.6,1.9c0.4,0.2,0.9,0,1.1-0.4l3.7-6.4
		c0.2-0.4,0.1-0.9-0.2-1.2L52,22.2c0.1-0.6,0.1-1.2,0.1-1.8s-0.1-1.2-0.1-1.8l3.9-3.1c0.4-0.3,0.5-0.8,0.2-1.2l-3.7-6.4
		c-0.2-0.4-0.7-0.6-1.1-0.4l-4.6,1.9c-1-0.7-2-1.3-3.1-1.8l-0.7-4.9c-0.1-0.4-0.5-0.8-0.9-0.8h-7.4c-0.5,0-0.8,0.3-0.9,0.8l-0.4,2.5
		 M36.3,14.2c0.6-0.2,1.3-0.3,2-0.3c3.6,0,6.5,2.9,6.5,6.5c0,1.8-0.8,3.5-2,4.6"/>
</g>
</svg>
