<?xml version="1.0" encoding="utf-8"?>
<!-- Generator: Adobe Illustrator 26.3.1, SVG Export Plug-In . SVG Version: 6.00 Build 0)  -->
<svg version="1.1" id="Ebene_1" xmlns="http://www.w3.org/2000/svg" xmlns:xlink="http://www.w3.org/1999/xlink" x="0px" y="0px"
	 viewBox="0 0 55.5 39.1" style="enable-background:new 0 0 55.5 39.1;" xml:space="preserve">
<style type="text/css">
	.st0{fill:none;stroke:#2E264D;stroke-width:2;stroke-linecap:round;stroke-miterlimit:10;}
	.st1{fill:none;stroke:#2E264D;stroke-width:2;stroke-linecap:round;stroke-linejoin:round;stroke-miterlimit:10;}
</style>
<g>
	<path class="st0" d="M35.5,8.8c-0.4-0.2-0.9-0.3-1.3-0.3H4.7c-2,0-3.7,1.6-3.7,3.7v22.1c0,2,1.7,3.7,3.7,3.7h29.5
		c2,0,3.7-1.7,3.7-3.7V28"/>
	<g>
		<polyline class="st1" points="13.2,25.9 11.9,24.6 12.3,25 11,23.7 		"/>
		<polyline class="st1" points="11,25.9 12.3,24.6 11.9,25 13.2,23.7 		"/>
	</g>
	<line class="st1" x1="15.7" y1="25.5" x2="18.7" y2="25.5"/>
	<path class="st1" d="M21.3,27.3v6.9h6.9l20.4-20.4l-6.9-6.9L21.3,27.3z M53.9,8.5c0.7-0.7,0.7-1.9,0-2.6l-4.3-4.3
		c-0.7-0.7-1.9-0.7-2.6,0L43.6,5l6.9,6.9L53.9,8.5z"/>
	<line class="st1" x1="9.7" y1="13.5" x2="28.7" y2="13.5"/>
	<line class="st1" x1="13.7" y1="17.5" x2="24.7" y2="17.5"/>
</g>
</svg>
