<?xml version="1.0" encoding="utf-8"?>
<!-- Generator: Adobe Illustrator 26.3.1, SVG Export Plug-In . SVG Version: 6.00 Build 0)  -->
<svg version="1.1" id="Ebene_1" xmlns="http://www.w3.org/2000/svg" xmlns:xlink="http://www.w3.org/1999/xlink" x="0px" y="0px"
	 viewBox="0 0 34 42" style="enable-background:new 0 0 34 42;" xml:space="preserve">
<style type="text/css">
	.st0{fill:none;stroke:#2E264D;stroke-width:2;stroke-miterlimit:10;}
	.st1{fill:none;stroke:#2E264D;stroke-width:2;stroke-linecap:round;stroke-linejoin:round;stroke-miterlimit:10;}
</style>
<g>
	<path class="st0" d="M29,1H5C2.8,1,1,2.8,1,5v32c0,2.2,1.8,4,4,4h24c2.2,0,4-1.8,4-4V5C33,2.8,31.2,1,29,1z"/>
	<path class="st0" d="M1,14h10.1H1z"/>
	<path class="st0" d="M22.9,14H33H22.9z"/>
	<polyline class="st1" points="19.5,12 16.1,15 14.5,13.6 	"/>
	<circle class="st0" cx="17" cy="13" r="6"/>
	<line class="st1" x1="8" y1="26" x2="25" y2="26"/>
	<line class="st1" x1="7" y1="30" x2="26" y2="30"/>
	<line class="st1" x1="8" y1="34" x2="25" y2="34"/>
</g>
</svg>
