<?xml version="1.0" encoding="utf-8"?>
<!-- Generator: Adobe Illustrator 16.0.4, SVG Export Plug-In . SVG Version: 6.00 Build 0)  -->
<!DOCTYPE svg PUBLIC "-//W3C//DTD SVG 1.1//EN" "http://www.w3.org/Graphics/SVG/1.1/DTD/svg11.dtd">
<svg version="1.1" id="Ebene_1" xmlns="http://www.w3.org/2000/svg" xmlns:xlink="http://www.w3.org/1999/xlink" x="0px" y="0px"
	 width="56px" height="38.3px" viewBox="0 0 56 38.3" style="enable-background:new 0 0 56 38.3;" xml:space="preserve">
<style type="text/css">
<![CDATA[
	.st0{fill:none;stroke:#54A8B6;stroke-width:2;stroke-miterlimit:10;}
	.st1{fill:none;stroke:#54A8B6;stroke-width:2;stroke-linecap:round;stroke-linejoin:round;stroke-miterlimit:10;}
]]>
</style>
<g>
	<path class="st1" d="M40.9,8.2V4.6c0-2-1.6-3.6-3.6-3.6H4.6C2.6,1,1,2.6,1,4.6v21.8c0,2,1.6,3.6,3.6,3.6h12.7l-3.6,5.4v1.8h8.2
		 M21.9,22.8H4.6V4.6h32.7v3.6"/>
	<path class="st0" d="M35.5,11l-2.7,2.9H28c-1.7,0-3,1.3-3,2.9v17.5c0,1.6,1.3,2.9,3,2.9h24c1.7,0,3-1.3,3-2.9V16.8
		c0-1.6-1.3-2.9-3-2.9h-4.7L44.5,11H35.5z"/>
	<path class="st0" d="M40,31.6c-3.4,0-6.2-2.7-6.2-6c0-3.3,2.8-6,6.2-6s6.2,2.7,6.2,6C46.2,28.9,43.4,31.6,40,31.6z"/>
</g>
</svg>
